<?xml version="1.0" encoding="utf-8"?>
<!-- Generator: Adobe Illustrator 24.0.0, SVG Export Plug-In . SVG Version: 6.00 Build 0)  -->
<svg version="1.1" id="Capa_1" xmlns="http://www.w3.org/2000/svg" xmlns:xlink="http://www.w3.org/1999/xlink" x="0px" y="0px"
	 viewBox="0 0 300 300" style="enable-background:new 0 0 300 300;" xml:space="preserve">
<style type="text/css">
	.st0{fill:#0A7359;}
	.st1{fill:#F2F2F2;}
	.st2{fill-rule:evenodd;clip-rule:evenodd;fill:#0A7359;}
</style>
<path class="st0" d="M28.4,8h243.2c11.3,0,20.4,9.1,20.4,20.4v243.2c0,11.3-9.1,20.4-20.4,20.4H28.4C17.1,292,8,282.9,8,271.6V28.4
	C8,17.1,17.1,8,28.4,8z"/>
<path class="st1" d="M36.5,26.1h226.9c5.6,0,10.1,4.5,10.1,10.1v143.9c0,5.6-4.5,10.1-10.1,10.1H36.5c-5.6,0-10.1-4.5-10.1-10.1
	V36.3C26.4,30.7,31,26.1,36.5,26.1z"/>
<g>
	<path class="st2" d="M221.5,82.6c-1.8-1.8-4.7-1.8-6.5,0c-1.8,1.8-1.8,4.7,0,6.5c1.8,1.8,4.7,1.8,6.5,0c0,0,0,0,0,0
		C223.3,87.4,223.3,84.4,221.5,82.6z"/>
	<path class="st2" d="M228.9,61.6c1.8-1.8,1.8-4.7,0-6.5c-1.8-1.8-4.7-1.8-6.5,0c-1.8,1.8-1.8,4.7,0,6.5
		C224.2,63.4,227.1,63.4,228.9,61.6C228.9,61.6,228.9,61.6,228.9,61.6z"/>
	<path class="st2" d="M207,80.3c2.5,0.7,5-0.8,5.7-3.2c0.7-2.5-0.8-5-3.2-5.7c-2.5-0.7-5,0.8-5.7,3.2c0,0,0,0,0,0.1
		C203.1,77.1,204.6,79.6,207,80.3z"/>
	<path class="st2" d="M229.6,91.3c-2.5-0.7-5,0.8-5.6,3.2c-0.7,2.5,0.8,5,3.2,5.6c2.5,0.7,5-0.8,5.6-3.2c0,0,0,0,0,0
		C233.5,94.5,232.1,92,229.6,91.3z"/>
	<path class="st2" d="M237,64c-2.5-0.7-5,0.8-5.6,3.3s0.8,5,3.3,5.6s5-0.8,5.6-3.3c0,0,0,0,0,0l0,0C240.9,67.2,239.4,64.6,237,64
		C237,64,237,64,237,64z"/>
	<path class="st2" d="M205.8,93.8c2.5-0.7,3.9-3.2,3.3-5.6s-3.2-3.9-5.6-3.3l0,0l0,0c-2.5,0.7-3.9,3.2-3.3,5.6
		S203.3,94.5,205.8,93.8z"/>
	<path class="st2" d="M213.1,66.5c2.5-0.7,3.9-3.2,3.3-5.6c-0.7-2.5-3.2-3.9-5.6-3.3l0,0l0,0c-2.5,0.7-3.9,3.2-3.3,5.6
		C208.1,65.7,210.6,67.1,213.1,66.5L213.1,66.5z"/>
	<path class="st2" d="M230.9,77.8c-2.5,0.7-3.9,3.2-3.3,5.6c0.7,2.5,3.2,3.9,5.6,3.3c2.5-0.7,3.9-3.2,3.3-5.6
		C235.9,78.6,233.3,77.1,230.9,77.8C230.9,77.8,230.9,77.8,230.9,77.8z"/>
	<path class="st2" d="M211.4,96.2c-1.8,1.8-1.8,4.7,0,6.5c1.8,1.8,4.7,1.8,6.5,0c1.8-1.8,1.8-4.7,0-6.5c0,0,0,0,0,0
		C216.1,94.4,213.2,94.4,211.4,96.2z"/>
	<path class="st2" d="M225.2,75.4c1.8-1.8,1.8-4.7,0-6.5c-1.8-1.8-4.7-1.8-6.5,0c-1.8,1.8-1.8,4.7,0,6.5
		C220.5,77.2,223.4,77.2,225.2,75.4z"/>
	<path class="st2" d="M223.5,105.1h-0.1l0,0l-11.1,3l-8.1-8.1l0,0c-1.8-1.8-4.7-1.9-6.5-0.1c-1.8,1.8-1.9,4.7-0.1,6.5
		c0,0.1,0.1,0.1,0.2,0.2l8.1,8.1l-20.3,75.8c-0.6,2.5,0.9,5,3.3,5.6c2.4,0.6,4.9-0.8,5.6-3.2l20.3-75.8l11.1-3h0.1
		c2.5-0.7,3.9-3.2,3.3-5.6S226,104.4,223.5,105.1L223.5,105.1z"/>
	<path class="st2" d="M187,61.6c1.8-1.8,1.8-4.7,0-6.5c-1.8-1.8-4.7-1.8-6.5,0c-1.8,1.8-1.8,4.7,0,6.5c0,0,0,0,0,0
		C182.3,63.4,185.2,63.4,187,61.6z"/>
	<path class="st2" d="M165.1,80.3c2.5,0.7,5-0.8,5.7-3.2c0.7-2.5-0.8-5-3.2-5.7c-2.5-0.7-5,0.8-5.7,3.2c0,0,0,0,0,0.1l0,0
		C161.2,77.1,162.7,79.6,165.1,80.3z"/>
	<path class="st2" d="M187.7,91.3c-2.5-0.6-5,0.8-5.6,3.3c-0.6,2.5,0.8,5,3.3,5.6c2.4,0.6,4.9-0.8,5.6-3.3l0,0
		C191.6,94.5,190.2,92,187.7,91.3C187.7,91.3,187.7,91.3,187.7,91.3z"/>
	<path class="st2" d="M192.7,72.9c2.5,0.7,5-0.8,5.6-3.3l0,0c0.7-2.5-0.8-5-3.3-5.6s-5,0.8-5.6,3.3
		C188.7,69.7,190.2,72.3,192.7,72.9C192.7,72.9,192.7,72.9,192.7,72.9z"/>
	<path class="st2" d="M163.8,93.8c2.5-0.7,3.9-3.2,3.3-5.6s-3.2-3.9-5.6-3.3c-2.5,0.7-3.9,3.2-3.3,5.6
		C158.9,93,161.4,94.5,163.8,93.8C163.8,93.8,163.8,93.8,163.8,93.8z"/>
	<path class="st2" d="M171.2,66.5c2.4-0.7,3.9-3.2,3.2-5.7c-0.7-2.4-3.1-3.8-5.6-3.2l0,0c-2.5,0.6-4,3.1-3.3,5.6
		c0.6,2.5,3.1,4,5.6,3.3C171.1,66.5,171.1,66.5,171.2,66.5z"/>
	<path class="st2" d="M185.8,83.4c0.7,2.5,3.2,3.9,5.6,3.3l0,0c2.5-0.7,3.9-3.2,3.3-5.6c-0.7-2.5-3.2-3.9-5.6-3.3
		C186.6,78.4,185.1,80.9,185.8,83.4C185.8,83.4,185.8,83.4,185.8,83.4z"/>
	<path class="st2" d="M187.3,108.4c-0.7-2.5-3.2-3.9-5.6-3.3h-0.1l0,0l-11.1,3l-8.1-8.1l0,0c-1.8-1.8-4.7-1.8-6.5,0
		c-1.8,1.8-1.8,4.7,0,6.5l8.1,8.1l-20.3,75.8c-0.6,2.5,0.9,5,3.3,5.6c2.4,0.6,4.9-0.8,5.6-3.2l20.3-75.8l11.1-3h0.1
		C186.5,113.3,187.9,110.8,187.3,108.4C187.3,108.4,187.3,108.4,187.3,108.4z"/>
	<path class="st2" d="M171.9,84.7L171.9,84.7l-3.6,13.5c0,0,0,0,0,0.1l0,0c-0.6,2.5,0.8,5,3.3,5.6c1.6,0.4,3.3,0,4.4-1.2
		c0.6-0.6,1-1.3,1.2-2l0,0l0,0l3.6-13.5c0,0,0,0,0-0.1l3.7-13.7c0.7-2.4-0.7-5-3.2-5.7c-2.4-0.7-5,0.7-5.7,3.2c0,0,0,0.1,0,0.1l0,0
		L171.9,84.7z"/>
	<path class="st2" d="M145.4,108.4c-0.7-2.5-3.2-3.9-5.6-3.3h-0.1l0,0l-11.1,3l-8.1-8.1l0,0c-1.8-1.8-4.7-1.8-6.5,0
		c-1.8,1.8-1.8,4.7,0,6.5l0,0l8.1,8.1l-20.3,75.8c-0.6,2.5,0.9,5,3.3,5.6c2.4,0.6,4.9-0.8,5.6-3.2l20.3-75.8l11.1-3l0,0h0.1
		C144.6,113.3,146,110.8,145.4,108.4z"/>
	<path class="st2" d="M123.2,80.3c2.5,0.7,5-0.8,5.7-3.2c0.7-2.5-0.8-5-3.2-5.7c-2.5-0.7-5,0.8-5.7,3.2c0,0,0,0,0,0.1l0,0
		C119.3,77.1,120.7,79.6,123.2,80.3z"/>
	<path class="st2" d="M121.9,93.8c2.5-0.7,3.9-3.2,3.3-5.6c-0.7-2.5-3.2-3.9-5.6-3.3c-2.5,0.7-3.9,3.2-3.3,5.6
		C117,93,119.5,94.5,121.9,93.8z"/>
	<path class="st2" d="M129.3,66.5c2.4-0.7,3.9-3.2,3.2-5.7c-0.7-2.4-3.1-3.8-5.6-3.2l0,0c-2.5,0.6-4,3.1-3.3,5.6s3.1,4,5.6,3.3
		C129.2,66.5,129.2,66.5,129.3,66.5z"/>
	<path class="st2" d="M132.1,77l-2.8,10.3l-0.9,3.3c0,0-1.3,4.8-2.1,7.9c-0.4,1.5,0,3.2,1.2,4.3l0.1,0.1c1.1,1.1,2.8,1.6,4.4,1.2
		l13.7-3.7c0.3-0.1,0.5-0.1,0.7-0.2h0.1c0.2-0.1,0.4-0.2,0.5-0.3l0,0c0.1-0.1,0.3-0.2,0.4-0.3l0.1-0.1c0.1-0.1,0.2-0.2,0.3-0.3
		s0,0,0,0l0,0l0,0c0,0,0.2-0.2,0.3-0.4l0.1-0.1c0.1-0.1,0.1-0.2,0.2-0.3c0-0.1,0.1-0.1,0.1-0.2l0.1-0.3c0-0.1,0.1-0.1,0.1-0.2
		c0-0.1,0.1-0.2,0.1-0.3c0-0.1,0-0.1,0.1-0.2l0,0c0.1-0.4,0.2-0.9,0.2-1.3c0,0,0-0.1,0-0.1s0-0.2,0-0.4s0-0.2,0-0.3s0-0.3,0-0.4
		v-0.1l-0.1-0.1l-0.1-0.2c0-0.1-0.1-0.2-0.1-0.3c0,0,0-0.1-0.1-0.1c-0.1-0.2-0.2-0.4-0.3-0.6l-0.1-0.1l-0.2-0.3
		c0-0.1-0.1-0.1-0.1-0.1l-0.1-0.1l-0.1-0.1c0-0.1-0.1-0.1-0.2-0.1c-0.1-0.1-0.3-0.2-0.5-0.4l-0.1-0.1l-0.3-0.2
		c-0.1,0-0.1-0.1-0.2-0.1c-0.1-0.1-0.2-0.1-0.3-0.1l-0.2-0.1c-0.1,0-0.2-0.1-0.3-0.1l0,0c-0.3-0.1-0.6-0.1-0.9-0.1l0,0
		c-0.5,0-1,0-1.5,0.2l-6.1,1.6l0.9-3.3l11.1-3l0,0h0.1c2.3-0.6,3.7-2.9,3.3-5.2c0-0.2-0.1-0.3-0.1-0.5l0,0c0-0.2-0.1-0.3-0.2-0.5
		c0-0.1,0-0.1-0.1-0.2l-0.2-0.3l-0.1-0.2l-0.2-0.3l-0.2-0.2c-0.1-0.2-0.3-0.3-0.4-0.4l-0.2-0.2l-0.2-0.2l-0.2-0.1
		c-0.1-0.1-0.3-0.2-0.4-0.3l-0.2-0.1l-0.3-0.1l-0.2-0.1l-0.2-0.1c-0.8-0.2-1.6-0.2-2.4,0H147l0,0l-6,1.6l0.9-3.5l11.1-3l0,0h0.1l0,0
		h0.1l0.3-0.1l0.2-0.1l0.4-0.2l0.2-0.1l0.3-0.2l0.2-0.1c0.1-0.1,0.2-0.1,0.2-0.2l0.1-0.1v0c0.1-0.1,0.2-0.2,0.3-0.3l0.1-0.2l0.2-0.3
		l0.1-0.2l0.1-0.3c0-0.1,0.1-0.1,0.1-0.2l0.1-0.3l0.1-0.2l0,0c0,0,0,0,0-0.1l0,0l0,0v-0.1c0-0.1,0.1-0.2,0.1-0.3c0,0,0-0.1,0-0.1
		c0-0.1,0-0.2,0-0.3c0,0,0-0.1,0-0.1c0-0.1,0-0.2,0-0.4l0,0c0-0.3-0.1-0.7-0.1-1l0,0c0,0,0,0,0,0c0-0.2-0.1-0.3-0.2-0.5v-0.1
		c-0.1-0.4-0.3-0.7-0.6-1l0,0c-0.4-0.5-0.8-0.8-1.3-1.1l0,0c-0.2-0.1-0.3-0.2-0.5-0.3l0,0c-0.2-0.1-0.4-0.2-0.6-0.2h-0.2h-0.1
		l-0.3-0.1h-0.2h-0.4h-0.5l-0.5,0.1H151l-0.2,0.1h-0.1h-0.1l-6,1.6l1.6-6.1c0.7-2.4-0.8-5-3.2-5.6c-1.6-0.4-3.3,0-4.5,1.2
		c-0.6,0.6-1,1.3-1.2,2.1l-1.6,6.1l0,0L133,73.8L132.1,77z"/>
	<path class="st2" d="M103.5,108.4c-0.7-2.5-3.2-3.9-5.6-3.3h-0.1l0,0l-11.1,3l-8.1-8.2l0,0c-1.8-1.8-4.7-1.9-6.5-0.1
		c-1.8,1.8-1.9,4.7-0.1,6.5c0,0.1,0.1,0.1,0.2,0.2l8.1,8.1l-20.3,75.8c-0.6,2.5,0.9,5,3.3,5.6c2.4,0.6,4.9-0.8,5.6-3.2L89,117
		l11.1-3h0.1C102.7,113.3,104.1,110.8,103.5,108.4z"/>
	<path class="st2" d="M75.6,92.6C75.6,92.6,75.6,92.7,75.6,92.6l10,10l0.1,0.1c1.1,1.1,2.8,1.6,4.4,1.2l13.7-3.7h0.1h0.1
		c0.8-0.2,1.5-0.6,2.1-1.2l0,0c0.5-0.5,0.9-1.2,1.1-1.9l0,0c0.1-0.4,0.2-0.9,0.2-1.3c0-0.4-0.1-0.8-0.2-1.2
		c-0.4-1.6-1.7-2.8-3.2-3.2l0,0c-0.3-0.1-0.6-0.2-1-0.2l0,0c-0.5,0-1,0-1.5,0.2L95.4,93l0.9-3.3l11.1-3l0,0h0.1
		c2.5-0.7,3.9-3.2,3.3-5.6c-0.4-1.6-1.7-2.8-3.3-3.3c-0.8-0.2-1.6-0.2-2.4,0H105l0,0l-6,1.6l0.9-3.5l11.1-3l0,0h0.1l0,0
		c0.8-0.2,1.5-0.6,2-1.2c0.5-0.5,0.9-1.2,1.2-2l0,0c0.1-0.4,0.2-0.9,0.2-1.4c0-0.4-0.1-0.7-0.2-1.1l0,0c-0.4-1.6-1.6-2.8-3.2-3.2
		c-0.4-0.1-0.8-0.2-1.2-0.2c-0.4,0-0.9,0.1-1.3,0.2h-0.1l-6,1.6l1.6-6.1c0.6-2.5-0.9-5-3.3-5.6c-2.4-0.6-4.9,0.8-5.6,3.2l0,0
		l-1.6,6.1l-4.4-4.4l0,0c0,0,0,0-0.1-0.1c-0.6-0.6-1.3-1-2-1.2c-0.4-0.1-0.8-0.2-1.3-0.2c-0.4,0-0.8,0.1-1.2,0.2l0,0
		c-0.8,0.2-1.5,0.6-2,1.2c-0.5,0.5-0.9,1.1-1.2,1.8l0,0c-0.1,0.5-0.2,0.9-0.2,1.4c0,0.4,0.1,0.7,0.2,1.1l0,0c0.2,0.8,0.6,1.5,1.2,2
		l0.1,0.1l8.1,8.1l-0.9,3.5l-4.4-4.4l0,0c-0.6-0.6-1.3-1.1-2.1-1.3c-2.5-0.7-5,0.8-5.6,3.3c-0.4,1.6,0.1,3.3,1.3,4.5l8.1,8.1
		l-0.9,3.3l-4.4-4.4l0,0L82.1,86c-0.5-0.5-1.2-0.9-1.9-1.1c-0.5-0.1-1-0.2-1.5-0.2l0,0c-0.3,0-0.6,0.1-0.9,0.1h-0.2
		c-0.8,0.2-1.5,0.6-2.1,1.2l0,0c-0.5,0.5-0.9,1.2-1.1,1.9l0,0c-0.1,0.4-0.2,0.9-0.2,1.3c0,0.4,0.1,0.8,0.2,1.2
		C74.6,91.3,75,92,75.6,92.6z"/>
</g>
<g>
	<path class="st1" d="M59,233.9c-1.3,0-2.4-0.2-3.4-0.7s-1.8-1.2-2.4-2c-0.6-0.8-0.9-1.8-0.9-2.8c0-1.7,0.7-3,2.1-4
		c1.4-1,3.2-1.7,5.5-2l4.7-0.7V221c0-0.9-0.2-1.7-0.6-2.2c-0.4-0.5-1.2-0.8-2.3-0.8c-0.8,0-1.4,0.2-1.9,0.5
		c-0.5,0.3-0.9,0.7-1.1,1.2c-0.2,0.3-0.5,0.5-0.8,0.5h-3.4c-0.3,0-0.5-0.1-0.6-0.2s-0.2-0.3-0.2-0.6c0-0.4,0.2-0.9,0.5-1.4
		c0.3-0.6,0.8-1.1,1.4-1.6s1.5-1,2.5-1.3c1-0.4,2.2-0.5,3.7-0.5c1.5,0,2.8,0.2,3.9,0.5s1.9,0.9,2.6,1.5c0.6,0.6,1.1,1.4,1.4,2.3
		c0.3,0.9,0.5,1.8,0.5,2.8v11.1c0,0.3-0.1,0.5-0.3,0.6c-0.2,0.2-0.4,0.3-0.6,0.3h-3.5c-0.2,0-0.4-0.1-0.6-0.3
		c-0.2-0.2-0.3-0.4-0.3-0.6v-1.3c-0.3,0.5-0.7,0.9-1.3,1.3c-0.5,0.4-1.2,0.7-1.9,1C60.8,233.8,60,233.9,59,233.9z M60.4,230.2
		c0.8,0,1.5-0.2,2.1-0.5s1.1-0.9,1.5-1.5s0.5-1.6,0.5-2.6v-0.6l-3.3,0.5c-1.3,0.2-2.2,0.5-2.8,1c-0.6,0.4-0.9,1-0.9,1.6
		c0,0.5,0.1,0.9,0.4,1.2c0.3,0.3,0.6,0.6,1.1,0.8C59.4,230.1,59.9,230.2,60.4,230.2z"/>
	<path class="st1" d="M83.1,241.5c-1.8,0-3.3-0.2-4.4-0.7c-1.2-0.5-2.1-1-2.8-1.7c-0.7-0.7-1.2-1.3-1.5-2c-0.3-0.6-0.4-1.2-0.5-1.5
		c0-0.3,0.1-0.5,0.3-0.6c0.2-0.2,0.4-0.3,0.6-0.3h3.9c0.2,0,0.4,0.1,0.6,0.2c0.2,0.1,0.3,0.3,0.4,0.6c0.1,0.3,0.3,0.6,0.5,0.9
		c0.2,0.3,0.5,0.6,1,0.8c0.4,0.2,1,0.3,1.8,0.3c0.8,0,1.5-0.1,2.1-0.4c0.6-0.2,1-0.6,1.2-1.2c0.3-0.6,0.4-1.4,0.4-2.3v-2.4
		c-0.6,0.6-1.3,1.1-2.2,1.5c-0.9,0.4-2,0.6-3.2,0.6c-1.2,0-2.3-0.2-3.3-0.6c-0.9-0.4-1.7-1-2.4-1.7c-0.6-0.7-1.1-1.6-1.4-2.6
		c-0.3-1-0.5-2.2-0.6-3.5c0-0.6,0-1.3,0-1.9c0-1.2,0.2-2.4,0.6-3.4c0.3-1,0.8-1.9,1.4-2.7c0.6-0.8,1.4-1.3,2.4-1.8
		c0.9-0.4,2-0.6,3.3-0.6c1.3,0,2.4,0.3,3.4,0.8s1.7,1.1,2.3,1.9v-1.4c0-0.2,0.1-0.4,0.3-0.6c0.2-0.2,0.4-0.3,0.6-0.3h3.5
		c0.2,0,0.5,0.1,0.6,0.3c0.2,0.2,0.3,0.4,0.3,0.6l0,17.3c0,1.8-0.3,3.3-1,4.6c-0.7,1.2-1.7,2.2-3.1,2.9S85.1,241.5,83.1,241.5z
		 M83,229.1c0.9,0,1.6-0.2,2.1-0.6c0.5-0.4,0.9-0.9,1.2-1.5c0.3-0.6,0.4-1.3,0.4-1.9c0-0.3,0-0.6,0-1.1s0-0.9,0-1.1
		c0-0.7-0.2-1.3-0.4-1.9c-0.3-0.6-0.7-1.1-1.2-1.5s-1.2-0.6-2.1-0.6c-0.9,0-1.6,0.2-2.2,0.6c-0.5,0.4-0.9,0.9-1.2,1.6
		c-0.2,0.6-0.4,1.4-0.4,2.1c0,0.6,0,1.1,0,1.7c0,0.8,0.2,1.5,0.4,2.2c0.2,0.6,0.6,1.2,1.2,1.6C81.3,228.9,82,229.1,83,229.1z"/>
	<path class="st1" d="M97.7,233.6c-0.2,0-0.4-0.1-0.6-0.3c-0.2-0.2-0.3-0.4-0.3-0.6v-16.9c0-0.2,0.1-0.4,0.3-0.6
		c0.2-0.2,0.4-0.3,0.6-0.3h3.5c0.2,0,0.4,0.1,0.6,0.3c0.2,0.2,0.3,0.4,0.3,0.6v1.4c0.6-0.7,1.3-1.3,2.2-1.7c0.9-0.4,1.9-0.6,3-0.6
		h1.5c0.2,0,0.4,0.1,0.6,0.3c0.2,0.2,0.3,0.4,0.3,0.6v3.1c0,0.3-0.1,0.5-0.3,0.6c-0.2,0.2-0.4,0.3-0.6,0.3h-3.2
		c-1.1,0-1.9,0.3-2.5,0.9c-0.6,0.6-0.9,1.4-0.9,2.5v9.5c0,0.3-0.1,0.5-0.3,0.6c-0.2,0.2-0.4,0.3-0.6,0.3H97.7z"/>
	<path class="st1" d="M113.3,212c-0.2,0-0.4-0.1-0.6-0.3c-0.2-0.2-0.3-0.4-0.3-0.6v-2.9c0-0.3,0.1-0.5,0.3-0.7
		c0.2-0.2,0.4-0.3,0.6-0.3h3.8c0.3,0,0.5,0.1,0.7,0.3c0.2,0.2,0.3,0.4,0.3,0.7v2.9c0,0.3-0.1,0.5-0.3,0.6c-0.2,0.2-0.4,0.3-0.7,0.3
		H113.3z M113.4,233.6c-0.2,0-0.4-0.1-0.6-0.3c-0.2-0.2-0.3-0.4-0.3-0.6v-16.9c0-0.3,0.1-0.5,0.3-0.6c0.2-0.2,0.4-0.3,0.6-0.3h3.6
		c0.3,0,0.5,0.1,0.6,0.3s0.3,0.4,0.3,0.6v16.9c0,0.3-0.1,0.5-0.3,0.6s-0.4,0.3-0.6,0.3H113.4z"/>
	<path class="st1" d="M130.8,233.9c-1.8,0-3.3-0.3-4.6-1c-1.3-0.6-2.4-1.6-3.1-2.8c-0.8-1.2-1.2-2.7-1.3-4.4c0-0.4,0-0.9,0-1.5
		s0-1.1,0-1.5c0.1-1.8,0.5-3.2,1.2-4.5c0.8-1.2,1.8-2.2,3.1-2.8c1.3-0.6,2.9-1,4.6-1c1.6,0,3,0.2,4.1,0.7c1.1,0.4,2.1,1,2.8,1.7
		c0.7,0.7,1.3,1.4,1.6,2.1c0.3,0.7,0.5,1.4,0.6,1.9c0,0.2-0.1,0.5-0.2,0.6c-0.2,0.2-0.4,0.3-0.6,0.3h-3.9c-0.2,0-0.4-0.1-0.6-0.2
		c-0.1-0.1-0.3-0.3-0.4-0.6c-0.3-0.8-0.8-1.4-1.3-1.8c-0.5-0.4-1.2-0.5-2-0.5c-1.1,0-1.9,0.3-2.6,1c-0.6,0.7-1,1.8-1,3.2
		c0,0.9,0,1.8,0,2.6c0.1,1.5,0.4,2.6,1,3.2c0.6,0.7,1.5,1,2.5,1c0.8,0,1.5-0.2,2-0.5c0.5-0.4,0.9-1,1.3-1.8c0.1-0.2,0.2-0.4,0.4-0.6
		s0.3-0.2,0.6-0.2h3.9c0.2,0,0.5,0.1,0.6,0.3c0.2,0.2,0.3,0.4,0.2,0.6c0,0.4-0.1,0.9-0.3,1.4c-0.2,0.6-0.5,1.1-1,1.7
		c-0.4,0.6-1,1.1-1.7,1.6c-0.7,0.5-1.5,0.9-2.5,1.2C133.3,233.8,132.1,233.9,130.8,233.9z"/>
	<path class="st1" d="M150.3,233.9c-1.4,0-2.6-0.3-3.7-1c-1.1-0.6-1.9-1.6-2.5-2.8c-0.6-1.2-0.9-2.7-0.9-4.4v-10
		c0-0.3,0.1-0.5,0.3-0.6s0.4-0.3,0.6-0.3h3.8c0.3,0,0.5,0.1,0.6,0.3c0.2,0.2,0.3,0.4,0.3,0.6v9.8c0,2.7,1.2,4,3.5,4
		c1.1,0,2-0.4,2.7-1.1c0.7-0.7,1-1.7,1-3v-9.8c0-0.3,0.1-0.5,0.3-0.6s0.4-0.3,0.6-0.3h3.8c0.2,0,0.4,0.1,0.6,0.3
		c0.2,0.2,0.3,0.4,0.3,0.6v16.9c0,0.3-0.1,0.5-0.3,0.6c-0.2,0.2-0.4,0.3-0.6,0.3h-3.5c-0.3,0-0.5-0.1-0.6-0.3s-0.3-0.4-0.3-0.6v-1.4
		c-0.6,0.9-1.4,1.5-2.4,2C152.9,233.7,151.7,233.9,150.3,233.9z"/>
	<path class="st1" d="M167,233.6c-0.3,0-0.5-0.1-0.6-0.3s-0.3-0.4-0.3-0.6v-23.8c0-0.3,0.1-0.5,0.3-0.6s0.4-0.3,0.6-0.3h3.6
		c0.2,0,0.4,0.1,0.6,0.3s0.3,0.4,0.3,0.6v23.8c0,0.3-0.1,0.5-0.3,0.6s-0.4,0.3-0.6,0.3H167z"/>
	<path class="st1" d="M185,233.6c-1.5,0-2.8-0.2-3.8-0.7c-1.1-0.5-1.9-1.3-2.4-2.3c-0.5-1-0.8-2.3-0.8-3.9v-7.6h-2.8
		c-0.3,0-0.5-0.1-0.6-0.3s-0.3-0.4-0.3-0.6v-2.4c0-0.3,0.1-0.5,0.3-0.6s0.4-0.3,0.6-0.3h2.8v-5.9c0-0.3,0.1-0.5,0.3-0.6
		c0.2-0.2,0.4-0.3,0.6-0.3h3.5c0.3,0,0.5,0.1,0.6,0.3c0.2,0.2,0.3,0.4,0.3,0.6v5.9h4.5c0.2,0,0.4,0.1,0.6,0.3
		c0.2,0.2,0.3,0.4,0.3,0.6v2.4c0,0.3-0.1,0.5-0.3,0.6c-0.2,0.2-0.4,0.3-0.6,0.3h-4.5v7.1c0,0.9,0.2,1.6,0.5,2.1
		c0.3,0.5,0.9,0.8,1.7,0.8h2.6c0.2,0,0.4,0.1,0.6,0.3s0.3,0.4,0.3,0.6v2.7c0,0.3-0.1,0.5-0.3,0.6s-0.4,0.3-0.6,0.3H185z"/>
	<path class="st1" d="M199,233.9c-1.4,0-2.6-0.3-3.7-1c-1.1-0.6-1.9-1.6-2.5-2.8c-0.6-1.2-0.9-2.7-0.9-4.4v-10
		c0-0.3,0.1-0.5,0.3-0.6s0.4-0.3,0.6-0.3h3.8c0.3,0,0.5,0.1,0.6,0.3s0.3,0.4,0.3,0.6v9.8c0,2.7,1.2,4,3.5,4c1.1,0,2-0.4,2.7-1.1
		c0.7-0.7,1-1.7,1-3v-9.8c0-0.3,0.1-0.5,0.3-0.6s0.4-0.3,0.6-0.3h3.8c0.2,0,0.4,0.1,0.6,0.3c0.2,0.2,0.3,0.4,0.3,0.6v16.9
		c0,0.3-0.1,0.5-0.3,0.6c-0.2,0.2-0.4,0.3-0.6,0.3h-3.5c-0.3,0-0.5-0.1-0.6-0.3c-0.2-0.2-0.3-0.4-0.3-0.6v-1.4
		c-0.6,0.9-1.4,1.5-2.4,2C201.6,233.7,200.4,233.9,199,233.9z"/>
	<path class="st1" d="M215.7,233.6c-0.2,0-0.4-0.1-0.6-0.3s-0.3-0.4-0.3-0.6v-16.9c0-0.2,0.1-0.4,0.3-0.6c0.2-0.2,0.4-0.3,0.6-0.3
		h3.5c0.2,0,0.5,0.1,0.6,0.3c0.2,0.2,0.3,0.4,0.3,0.6v1.4c0.6-0.7,1.3-1.3,2.2-1.7c0.9-0.4,1.9-0.6,3-0.6h1.5c0.2,0,0.4,0.1,0.6,0.3
		s0.3,0.4,0.3,0.6v3.1c0,0.3-0.1,0.5-0.3,0.6c-0.2,0.2-0.4,0.3-0.6,0.3h-3.2c-1.1,0-1.9,0.3-2.5,0.9c-0.6,0.6-0.9,1.4-0.9,2.5v9.5
		c0,0.3-0.1,0.5-0.3,0.6s-0.4,0.3-0.6,0.3H215.7z"/>
	<path class="st1" d="M235.7,233.9c-1.3,0-2.4-0.2-3.4-0.7c-1-0.5-1.8-1.2-2.4-2c-0.6-0.8-0.9-1.8-0.9-2.8c0-1.7,0.7-3,2.1-4
		c1.4-1,3.2-1.7,5.5-2l4.7-0.7V221c0-0.9-0.2-1.7-0.6-2.2c-0.4-0.5-1.2-0.8-2.3-0.8c-0.8,0-1.4,0.2-1.9,0.5
		c-0.5,0.3-0.9,0.7-1.1,1.2c-0.2,0.3-0.5,0.5-0.8,0.5H231c-0.3,0-0.5-0.1-0.6-0.2c-0.1-0.2-0.2-0.3-0.2-0.6c0-0.4,0.2-0.9,0.5-1.4
		c0.3-0.6,0.8-1.1,1.4-1.6c0.6-0.5,1.5-1,2.5-1.3s2.2-0.5,3.7-0.5c1.5,0,2.8,0.2,3.9,0.5s1.9,0.9,2.6,1.5c0.6,0.6,1.1,1.4,1.4,2.3
		c0.3,0.9,0.5,1.8,0.5,2.8v11.1c0,0.3-0.1,0.5-0.3,0.6s-0.4,0.3-0.6,0.3h-3.5c-0.2,0-0.4-0.1-0.6-0.3s-0.3-0.4-0.3-0.6v-1.3
		c-0.3,0.5-0.7,0.9-1.3,1.3c-0.5,0.4-1.2,0.7-1.9,1S236.7,233.9,235.7,233.9z M237.1,230.2c0.8,0,1.5-0.2,2.1-0.5s1.1-0.9,1.5-1.5
		c0.4-0.7,0.5-1.6,0.5-2.6v-0.6l-3.3,0.5c-1.3,0.2-2.2,0.5-2.8,1c-0.6,0.4-0.9,1-0.9,1.6c0,0.5,0.1,0.9,0.4,1.2s0.6,0.6,1.1,0.8
		C236.2,230.1,236.6,230.2,237.1,230.2z"/>
	<path class="st1" d="M45.7,270.1c-0.3,0-0.5-0.1-0.6-0.3c-0.2-0.2-0.3-0.4-0.3-0.6v-23.8c0-0.3,0.1-0.5,0.3-0.6
		c0.2-0.2,0.4-0.3,0.6-0.3h3.9c0.2,0,0.4,0.1,0.6,0.3c0.2,0.2,0.3,0.4,0.3,0.6v8.1c0.6-0.8,1.4-1.4,2.4-1.8c0.9-0.5,2.1-0.7,3.4-0.7
		c1.4,0,2.7,0.3,3.8,1c1.1,0.6,1.9,1.6,2.6,2.8c0.6,1.2,0.9,2.7,0.9,4.4v10c0,0.3-0.1,0.5-0.3,0.6c-0.2,0.2-0.4,0.3-0.6,0.3h-3.9
		c-0.2,0-0.4-0.1-0.6-0.3c-0.2-0.2-0.3-0.4-0.3-0.6v-9.8c0-1.3-0.3-2.3-0.9-3c-0.6-0.7-1.5-1.1-2.7-1.1c-1.1,0-2,0.4-2.7,1.1
		c-0.7,0.7-1,1.7-1,3v9.8c0,0.3-0.1,0.5-0.3,0.6c-0.2,0.2-0.4,0.3-0.6,0.3H45.7z"/>
	<path class="st1" d="M76.3,270.5c-2,0-3.7-0.3-5-1c-1.3-0.7-2.4-1.6-3.1-2.8c-0.7-1.2-1.1-2.7-1.2-4.3c0-0.5,0-1,0-1.6s0-1.1,0-1.6
		c0.1-1.7,0.5-3.1,1.2-4.3c0.7-1.2,1.8-2.1,3.1-2.8c1.3-0.7,3-1,4.9-1c1.9,0,3.5,0.3,4.9,1s2.4,1.6,3.1,2.8c0.7,1.2,1.2,2.6,1.2,4.3
		c0,0.5,0.1,1,0.1,1.6s0,1.2-0.1,1.6c-0.1,1.6-0.5,3.1-1.2,4.3s-1.7,2.2-3.1,2.8C80,270.1,78.3,270.5,76.3,270.5z M76.3,266.5
		c1.2,0,2.1-0.4,2.7-1.1c0.6-0.7,0.9-1.8,1-3.2c0-0.4,0-0.8,0-1.4c0-0.6,0-1.1,0-1.4c0-1.4-0.4-2.5-1-3.2c-0.6-0.7-1.5-1.1-2.7-1.1
		c-1.2,0-2.1,0.4-2.7,1.1c-0.6,0.7-0.9,1.8-1,3.2c0,0.4,0,0.8,0,1.4c0,0.6,0,1.1,0,1.4c0,1.4,0.4,2.5,1,3.2
		C74.3,266.1,75.2,266.5,76.3,266.5z"/>
	<path class="st1" d="M90.3,270.1c-0.2,0-0.4-0.1-0.6-0.3c-0.2-0.2-0.3-0.4-0.3-0.6v-16.9c0-0.2,0.1-0.4,0.3-0.6
		c0.2-0.2,0.4-0.3,0.6-0.3h3.5c0.2,0,0.4,0.1,0.6,0.3c0.2,0.2,0.3,0.4,0.3,0.6v1.4c0.6-0.7,1.3-1.3,2.2-1.7c0.9-0.4,1.9-0.6,3-0.6
		h1.5c0.2,0,0.4,0.1,0.6,0.3c0.2,0.2,0.3,0.4,0.3,0.6v3.1c0,0.3-0.1,0.5-0.3,0.6c-0.2,0.2-0.4,0.3-0.6,0.3h-3.2
		c-1.1,0-1.9,0.3-2.5,0.9c-0.6,0.6-0.9,1.4-0.9,2.5v9.5c0,0.3-0.1,0.5-0.3,0.6c-0.2,0.2-0.4,0.3-0.6,0.3H90.3z"/>
	<path class="st1" d="M114.1,270.1c-1.5,0-2.8-0.2-3.8-0.7c-1.1-0.5-1.9-1.3-2.4-2.3c-0.5-1-0.8-2.3-0.8-3.9v-7.6h-2.8
		c-0.3,0-0.5-0.1-0.6-0.3c-0.2-0.2-0.3-0.4-0.3-0.6v-2.4c0-0.3,0.1-0.5,0.3-0.6c0.2-0.2,0.4-0.3,0.6-0.3h2.8v-5.9
		c0-0.3,0.1-0.5,0.3-0.6s0.4-0.3,0.6-0.3h3.5c0.3,0,0.5,0.1,0.6,0.3c0.2,0.2,0.3,0.4,0.3,0.6v5.9h4.5c0.2,0,0.4,0.1,0.6,0.3
		c0.2,0.2,0.3,0.4,0.3,0.6v2.4c0,0.3-0.1,0.5-0.3,0.6c-0.2,0.2-0.4,0.3-0.6,0.3h-4.5v7.1c0,0.9,0.2,1.6,0.5,2.1
		c0.3,0.5,0.9,0.8,1.7,0.8h2.6c0.2,0,0.4,0.1,0.6,0.3c0.2,0.2,0.3,0.4,0.3,0.6v2.7c0,0.3-0.1,0.5-0.3,0.6c-0.2,0.2-0.4,0.3-0.6,0.3
		H114.1z"/>
	<path class="st1" d="M122,248.5c-0.2,0-0.4-0.1-0.6-0.3c-0.2-0.2-0.3-0.4-0.3-0.6v-2.9c0-0.3,0.1-0.5,0.3-0.7
		c0.2-0.2,0.4-0.3,0.6-0.3h3.8c0.3,0,0.5,0.1,0.7,0.3c0.2,0.2,0.3,0.4,0.3,0.7v2.9c0,0.3-0.1,0.5-0.3,0.6c-0.2,0.2-0.4,0.3-0.7,0.3
		H122z M122.1,270.1c-0.2,0-0.4-0.1-0.6-0.3c-0.2-0.2-0.3-0.4-0.3-0.6v-16.9c0-0.3,0.1-0.5,0.3-0.6c0.2-0.2,0.4-0.3,0.6-0.3h3.6
		c0.3,0,0.5,0.1,0.6,0.3s0.3,0.4,0.3,0.6v16.9c0,0.3-0.1,0.5-0.3,0.6s-0.4,0.3-0.6,0.3H122.1z"/>
	<path class="st1" d="M139.5,270.5c-1.8,0-3.3-0.3-4.6-1c-1.3-0.6-2.4-1.6-3.1-2.8c-0.8-1.2-1.2-2.7-1.3-4.4c0-0.4,0-0.9,0-1.5
		s0-1.1,0-1.5c0.1-1.8,0.5-3.2,1.2-4.5c0.8-1.2,1.8-2.2,3.1-2.8c1.3-0.6,2.9-1,4.6-1c1.6,0,3,0.2,4.1,0.7c1.1,0.4,2.1,1,2.8,1.7
		c0.7,0.7,1.3,1.4,1.6,2.1c0.3,0.7,0.5,1.4,0.6,1.9c0,0.2-0.1,0.5-0.2,0.6c-0.2,0.2-0.4,0.3-0.6,0.3h-3.9c-0.2,0-0.4-0.1-0.6-0.2
		c-0.1-0.1-0.3-0.3-0.4-0.6c-0.3-0.8-0.8-1.4-1.3-1.8c-0.5-0.4-1.2-0.5-2-0.5c-1.1,0-1.9,0.3-2.6,1c-0.6,0.7-1,1.8-1,3.2
		c0,0.9,0,1.8,0,2.6c0.1,1.5,0.4,2.6,1,3.2c0.6,0.7,1.5,1,2.5,1c0.8,0,1.5-0.2,2-0.5c0.5-0.4,0.9-1,1.3-1.8c0.1-0.2,0.2-0.4,0.4-0.6
		s0.3-0.2,0.6-0.2h3.9c0.2,0,0.5,0.1,0.6,0.3c0.2,0.2,0.3,0.4,0.2,0.6c0,0.4-0.1,0.9-0.3,1.4c-0.2,0.6-0.5,1.1-1,1.7
		c-0.4,0.6-1,1.1-1.7,1.6c-0.7,0.5-1.5,0.9-2.5,1.2C142,270.3,140.8,270.5,139.5,270.5z"/>
	<path class="st1" d="M159,270.5c-1.4,0-2.6-0.3-3.7-1c-1.1-0.6-1.9-1.6-2.5-2.8c-0.6-1.2-0.9-2.7-0.9-4.4v-10
		c0-0.3,0.1-0.5,0.3-0.6s0.4-0.3,0.6-0.3h3.8c0.3,0,0.5,0.1,0.6,0.3s0.3,0.4,0.3,0.6v9.8c0,2.7,1.2,4,3.5,4c1.1,0,2-0.4,2.7-1.1
		c0.7-0.7,1-1.7,1-3v-9.8c0-0.3,0.1-0.5,0.3-0.6s0.4-0.3,0.6-0.3h3.8c0.2,0,0.4,0.1,0.6,0.3c0.2,0.2,0.3,0.4,0.3,0.6v16.9
		c0,0.3-0.1,0.5-0.3,0.6c-0.2,0.2-0.4,0.3-0.6,0.3h-3.5c-0.3,0-0.5-0.1-0.6-0.3c-0.2-0.2-0.3-0.4-0.3-0.6v-1.4
		c-0.6,0.9-1.4,1.5-2.4,2C161.6,270.2,160.4,270.5,159,270.5z"/>
	<path class="st1" d="M175.7,270.1c-0.3,0-0.5-0.1-0.6-0.3s-0.3-0.4-0.3-0.6v-23.8c0-0.3,0.1-0.5,0.3-0.6s0.4-0.3,0.6-0.3h3.6
		c0.2,0,0.4,0.1,0.6,0.3s0.3,0.4,0.3,0.6v23.8c0,0.3-0.1,0.5-0.3,0.6s-0.4,0.3-0.6,0.3H175.7z"/>
	<path class="st1" d="M193.7,270.1c-1.5,0-2.8-0.2-3.8-0.7c-1.1-0.5-1.9-1.3-2.4-2.3c-0.5-1-0.8-2.3-0.8-3.9v-7.6h-2.8
		c-0.3,0-0.5-0.1-0.6-0.3s-0.3-0.4-0.3-0.6v-2.4c0-0.3,0.1-0.5,0.3-0.6s0.4-0.3,0.6-0.3h2.8v-5.9c0-0.3,0.1-0.5,0.3-0.6
		c0.2-0.2,0.4-0.3,0.6-0.3h3.5c0.3,0,0.5,0.1,0.6,0.3c0.2,0.2,0.3,0.4,0.3,0.6v5.9h4.5c0.2,0,0.4,0.1,0.6,0.3
		c0.2,0.2,0.3,0.4,0.3,0.6v2.4c0,0.3-0.1,0.5-0.3,0.6c-0.2,0.2-0.4,0.3-0.6,0.3H192v7.1c0,0.9,0.2,1.6,0.5,2.1
		c0.3,0.5,0.9,0.8,1.7,0.8h2.6c0.2,0,0.4,0.1,0.6,0.3s0.3,0.4,0.3,0.6v2.7c0,0.3-0.1,0.5-0.3,0.6s-0.4,0.3-0.6,0.3H193.7z"/>
	<path class="st1" d="M207.7,270.5c-1.4,0-2.6-0.3-3.7-1c-1.1-0.6-1.9-1.6-2.5-2.8c-0.6-1.2-0.9-2.7-0.9-4.4v-10
		c0-0.3,0.1-0.5,0.3-0.6s0.4-0.3,0.6-0.3h3.8c0.3,0,0.5,0.1,0.6,0.3s0.3,0.4,0.3,0.6v9.8c0,2.7,1.2,4,3.5,4c1.1,0,2-0.4,2.7-1.1
		c0.7-0.7,1-1.7,1-3v-9.8c0-0.3,0.1-0.5,0.3-0.6s0.4-0.3,0.6-0.3h3.8c0.2,0,0.4,0.1,0.6,0.3c0.2,0.2,0.3,0.4,0.3,0.6v16.9
		c0,0.3-0.1,0.5-0.3,0.6c-0.2,0.2-0.4,0.3-0.6,0.3h-3.5c-0.3,0-0.5-0.1-0.6-0.3c-0.2-0.2-0.3-0.4-0.3-0.6v-1.4
		c-0.6,0.9-1.4,1.5-2.4,2C210.3,270.2,209.1,270.5,207.7,270.5z"/>
	<path class="st1" d="M224.4,270.1c-0.2,0-0.4-0.1-0.6-0.3s-0.3-0.4-0.3-0.6v-16.9c0-0.2,0.1-0.4,0.3-0.6c0.2-0.2,0.4-0.3,0.6-0.3
		h3.5c0.2,0,0.5,0.1,0.6,0.3c0.2,0.2,0.3,0.4,0.3,0.6v1.4c0.6-0.7,1.3-1.3,2.2-1.7c0.9-0.4,1.9-0.6,3-0.6h1.5c0.2,0,0.4,0.1,0.6,0.3
		s0.3,0.4,0.3,0.6v3.1c0,0.3-0.1,0.5-0.3,0.6c-0.2,0.2-0.4,0.3-0.6,0.3h-3.2c-1.1,0-1.9,0.3-2.5,0.9c-0.6,0.6-0.9,1.4-0.9,2.5v9.5
		c0,0.3-0.1,0.5-0.3,0.6s-0.4,0.3-0.6,0.3H224.4z"/>
	<path class="st1" d="M244.4,270.5c-1.3,0-2.4-0.2-3.4-0.7c-1-0.5-1.8-1.2-2.4-2c-0.6-0.8-0.9-1.8-0.9-2.8c0-1.7,0.7-3,2.1-4
		c1.4-1,3.2-1.7,5.5-2l4.7-0.7v-0.6c0-0.9-0.2-1.7-0.6-2.2c-0.4-0.5-1.2-0.8-2.3-0.8c-0.8,0-1.4,0.2-1.9,0.5
		c-0.5,0.3-0.9,0.7-1.1,1.2c-0.2,0.3-0.5,0.5-0.8,0.5h-3.4c-0.3,0-0.5-0.1-0.6-0.2c-0.1-0.2-0.2-0.3-0.2-0.6c0-0.4,0.2-0.9,0.5-1.4
		c0.3-0.6,0.8-1.1,1.4-1.6c0.6-0.5,1.5-1,2.5-1.3s2.2-0.5,3.7-0.5c1.5,0,2.8,0.2,3.9,0.5s1.9,0.9,2.6,1.5c0.6,0.6,1.1,1.4,1.4,2.3
		c0.3,0.9,0.5,1.8,0.5,2.8v11.1c0,0.3-0.1,0.5-0.3,0.6s-0.4,0.3-0.6,0.3H251c-0.2,0-0.4-0.1-0.6-0.3s-0.3-0.4-0.3-0.6v-1.3
		c-0.3,0.5-0.7,0.9-1.3,1.3c-0.5,0.4-1.2,0.7-1.9,1S245.4,270.5,244.4,270.5z M245.8,266.7c0.8,0,1.5-0.2,2.1-0.5s1.1-0.9,1.5-1.5
		c0.4-0.7,0.5-1.6,0.5-2.6v-0.6l-3.3,0.5c-1.3,0.2-2.2,0.5-2.8,1c-0.6,0.4-0.9,1-0.9,1.6c0,0.5,0.1,0.9,0.4,1.2s0.6,0.6,1.1,0.8
		C244.8,266.6,245.3,266.7,245.8,266.7z"/>
</g>
</svg>
