<svg id="Capa_1" data-name="Capa 1" xmlns="http://www.w3.org/2000/svg" viewBox="0 0 300 300"><defs><style>.cls-1,.cls-3{fill:#0a7359;}.cls-2{fill:#f2f2f2;}.cls-3{fill-rule:evenodd;}</style></defs><title>equipos-icons</title><rect class="cls-1" x="8" y="8" width="284" height="284" rx="10.1"/><path class="cls-2" d="M33.62,232.68a.65.65,0,0,1-.51-.22.73.73,0,0,1-.2-.49,1.39,1.39,0,0,1,0-.3L41,210a1.25,1.25,0,0,1,.4-.64,1.21,1.21,0,0,1,.84-.27h4.31a1.21,1.21,0,0,1,.84.27,1.27,1.27,0,0,1,.41.64l8,21.65a1.36,1.36,0,0,1,0,.3.7.7,0,0,1-.21.49.63.63,0,0,1-.5.22H51.6a1,1,0,0,1-.74-.24,1.15,1.15,0,0,1-.31-.44l-1.45-3.77H39.61L38.16,232a1,1,0,0,1-1,.68Zm7.24-8.79h7l-3.47-9.7Z"/><path class="cls-2" d="M67.66,233A12.55,12.55,0,0,1,62.25,232a7.82,7.82,0,0,1-3.46-3.09,10,10,0,0,1-1.33-4.94c0-1,0-2,0-3.09s0-2.15,0-3.14a9.56,9.56,0,0,1,1.33-4.81,7.86,7.86,0,0,1,3.5-3,12.67,12.67,0,0,1,5.37-1.06,13.46,13.46,0,0,1,4.37.64,10.21,10.21,0,0,1,3.17,1.67,7.66,7.66,0,0,1,2,2.24,5.08,5.08,0,0,1,.71,2.32.75.75,0,0,1-.2.52.7.7,0,0,1-.54.22H72.94a.87.87,0,0,1-.52-.13,1.15,1.15,0,0,1-.32-.41,4.62,4.62,0,0,0-.76-1.23A4.26,4.26,0,0,0,70,213.55a5.2,5.2,0,0,0-2.29-.43,4.8,4.8,0,0,0-3.35,1.11A4.93,4.93,0,0,0,63,217.86c-.07,1.93-.07,3.9,0,5.89a5.16,5.16,0,0,0,1.36,3.78,4.85,4.85,0,0,0,3.38,1.14,6,6,0,0,0,2.48-.49,3.72,3.72,0,0,0,1.73-1.53,5,5,0,0,0,.64-2.66v-.84H68.9a.79.79,0,0,1-.57-.25.84.84,0,0,1-.24-.59v-2.16a.8.8,0,0,1,.24-.6.78.78,0,0,1,.57-.24h8.25a.82.82,0,0,1,.61.24.79.79,0,0,1,.23.6v3.67a9.29,9.29,0,0,1-1.26,5,8.16,8.16,0,0,1-3.6,3.15A12.81,12.81,0,0,1,67.66,233Z"/><path class="cls-2" d="M82.94,232.68a.82.82,0,0,1-.84-.84V210a.82.82,0,0,1,.24-.61.83.83,0,0,1,.6-.23h8.93A10.36,10.36,0,0,1,98.5,211a6.72,6.72,0,0,1,2.42,5.58,6.87,6.87,0,0,1-1.17,4.1,7.14,7.14,0,0,1-3.17,2.46l4.75,8.42a.79.79,0,0,1,.1.37.73.73,0,0,1-.2.49.67.67,0,0,1-.51.22H97a1.23,1.23,0,0,1-.91-.32,2.7,2.7,0,0,1-.43-.59l-4.11-7.71H87.46v7.78a.8.8,0,0,1-.24.6.82.82,0,0,1-.61.24Zm4.52-12.9h4.31a3.89,3.89,0,0,0,2.74-.84,3.11,3.11,0,0,0,.89-2.36,3.25,3.25,0,0,0-.87-2.39,3.81,3.81,0,0,0-2.76-.87H87.46Z"/><path class="cls-2" d="M105.91,232.68a.82.82,0,0,1-.61-.24.8.8,0,0,1-.24-.6V210a.82.82,0,0,1,.24-.61.85.85,0,0,1,.61-.23h3.8a.79.79,0,0,1,.84.84v21.89a.83.83,0,0,1-.23.6.82.82,0,0,1-.61.24Z"/><path class="cls-2" d="M124.9,233a12.27,12.27,0,0,1-5.37-1.06,7.83,7.83,0,0,1-3.42-3.09,10.54,10.54,0,0,1-1.35-5c0-.92,0-1.91,0-3s0-2.07,0-3a10.37,10.37,0,0,1,1.37-4.94,8,8,0,0,1,3.45-3.11,12,12,0,0,1,5.32-1.08,13.87,13.87,0,0,1,4.1.57,9.79,9.79,0,0,1,3.2,1.65,7.64,7.64,0,0,1,2.09,2.53,7.74,7.74,0,0,1,.81,3.23.67.67,0,0,1-.22.51.77.77,0,0,1-.52.2h-3.84a1,1,0,0,1-.64-.2,1.36,1.36,0,0,1-.37-.68,4.31,4.31,0,0,0-1.68-2.72,5.38,5.38,0,0,0-2.93-.74,4.6,4.6,0,0,0-3.3,1.14,5.34,5.34,0,0,0-1.32,3.8c-.06,1.85-.06,3.73,0,5.66a5.39,5.39,0,0,0,1.32,3.81,4.6,4.6,0,0,0,3.3,1.14,5.34,5.34,0,0,0,2.94-.76,4.19,4.19,0,0,0,1.67-2.71,1.31,1.31,0,0,1,.37-.69,1,1,0,0,1,.64-.18h3.84a.72.72,0,0,1,.52.2.64.64,0,0,1,.22.51,7.82,7.82,0,0,1-.81,3.23,7.71,7.71,0,0,1-2.09,2.52,9.42,9.42,0,0,1-3.2,1.65A13.87,13.87,0,0,1,124.9,233Z"/><path class="cls-2" d="M148.5,233a12.68,12.68,0,0,1-5.19-1,7.35,7.35,0,0,1-3.43-3.06,10.3,10.3,0,0,1-1.21-5.27V210a.79.79,0,0,1,.84-.84h3.67a.79.79,0,0,1,.84.84v13.7a5.12,5.12,0,0,0,1.18,3.71,5.06,5.06,0,0,0,6.57,0,5.16,5.16,0,0,0,1.17-3.71V210a.8.8,0,0,1,.26-.61.86.86,0,0,1,.59-.23h3.7a.81.81,0,0,1,.57.23.82.82,0,0,1,.24.61v13.74a10.4,10.4,0,0,1-1.21,5.27,7.4,7.4,0,0,1-3.41,3.06A12.43,12.43,0,0,1,148.5,233Z"/><path class="cls-2" d="M163.92,232.68a.82.82,0,0,1-.61-.24.83.83,0,0,1-.23-.6V210a.79.79,0,0,1,.84-.84h3.74a.83.83,0,0,1,.6.23.82.82,0,0,1,.24.61v18.22h10.44a.79.79,0,0,1,.6.23.82.82,0,0,1,.24.61v2.83a.82.82,0,0,1-.84.84Z"/><path class="cls-2" d="M185.2,232.68a.82.82,0,0,1-.61-.24.83.83,0,0,1-.23-.6V213.79h-6.13a.76.76,0,0,1-.57-.24.75.75,0,0,1-.24-.57v-3a.82.82,0,0,1,.24-.61.79.79,0,0,1,.57-.23h17.64a.85.85,0,0,1,.61.23.82.82,0,0,1,.24.61v3a.75.75,0,0,1-.24.57.82.82,0,0,1-.61.24h-6.09v18.05a.82.82,0,0,1-.84.84Z"/><path class="cls-2" d="M209.58,233a12.68,12.68,0,0,1-5.19-1A7.35,7.35,0,0,1,201,229a10.3,10.3,0,0,1-1.21-5.27V210a.79.79,0,0,1,.84-.84h3.67a.83.83,0,0,1,.6.23.82.82,0,0,1,.24.61v13.7a5.12,5.12,0,0,0,1.18,3.71,4.36,4.36,0,0,0,3.3,1.21,4.32,4.32,0,0,0,3.26-1.21,5.12,5.12,0,0,0,1.18-3.71V210a.8.8,0,0,1,.26-.61.84.84,0,0,1,.59-.23h3.7a.81.81,0,0,1,.57.23.82.82,0,0,1,.24.61v13.74a10.4,10.4,0,0,1-1.21,5.27,7.4,7.4,0,0,1-3.41,3.06A12.47,12.47,0,0,1,209.58,233Z"/><path class="cls-2" d="M225,232.68a.82.82,0,0,1-.61-.24.83.83,0,0,1-.23-.6V210a.79.79,0,0,1,.84-.84h8.92a10.37,10.37,0,0,1,6.64,1.93,7.67,7.67,0,0,1,1.24,9.68,7.05,7.05,0,0,1-3.16,2.46l4.74,8.42a.79.79,0,0,1,.1.37.69.69,0,0,1-.2.49.63.63,0,0,1-.5.22H239a1.21,1.21,0,0,1-.91-.32,2.79,2.79,0,0,1-.44-.59l-4.1-7.71h-4.08v7.78a.83.83,0,0,1-.23.6.82.82,0,0,1-.61.24Zm4.51-12.9h4.31a3.9,3.9,0,0,0,2.75-.84,3.11,3.11,0,0,0,.89-2.36,3.22,3.22,0,0,0-.88-2.39,3.78,3.78,0,0,0-2.76-.87h-4.31Z"/><path class="cls-2" d="M245.74,232.68a.63.63,0,0,1-.5-.22A.7.7,0,0,1,245,232a1,1,0,0,1,0-.3l8-21.65a1.32,1.32,0,0,1,.4-.64,1.26,1.26,0,0,1,.85-.27h4.31a1.21,1.21,0,0,1,.84.27,1.32,1.32,0,0,1,.4.64l8,21.65a1.39,1.39,0,0,1,0,.3.73.73,0,0,1-.2.49.67.67,0,0,1-.51.22h-3.5a1,1,0,0,1-.74-.24,1,1,0,0,1-.3-.44l-1.45-3.77h-9.5L250.29,232a1.15,1.15,0,0,1-.31.44,1,1,0,0,1-.74.24Zm7.24-8.79h7l-3.47-9.7Z"/><path class="cls-2" d="M24.88,273.08a.85.85,0,0,1-.61-.23.81.81,0,0,1-.23-.61V250.36a.81.81,0,0,1,.84-.85h3.67a.78.78,0,0,1,.6.24.82.82,0,0,1,.24.61v8.41h9.13v-8.41a.81.81,0,0,1,.84-.85H43a.8.8,0,0,1,.6.24.82.82,0,0,1,.24.61v21.88a.82.82,0,0,1-.24.61.83.83,0,0,1-.6.23H39.36a.85.85,0,0,1-.61-.23.81.81,0,0,1-.23-.61v-8.69H29.39v8.69a.8.8,0,0,1-.84.84Z"/><path class="cls-2" d="M58.21,273.42a12.72,12.72,0,0,1-5.28-1,7.64,7.64,0,0,1-3.47-3.05,10.4,10.4,0,0,1-1.35-5.13q0-1.46,0-2.88t0-2.91a10.32,10.32,0,0,1,1.37-5.11,8,8,0,0,1,3.5-3.11,13.6,13.6,0,0,1,10.43,0,8.06,8.06,0,0,1,3.52,3.11,10,10,0,0,1,1.35,5.11c0,1,.07,1.95.07,2.91s0,1.91-.07,2.88a10.4,10.4,0,0,1-1.35,5.13,7.66,7.66,0,0,1-3.46,3.05A12.72,12.72,0,0,1,58.21,273.42Zm0-4.34a4.49,4.49,0,0,0,3.22-1.2,5.28,5.28,0,0,0,1.33-3.82c0-1,.07-1.91.07-2.78s0-1.78-.07-2.74a6.28,6.28,0,0,0-.64-2.87,3.93,3.93,0,0,0-1.6-1.63,4.86,4.86,0,0,0-2.31-.52,5,5,0,0,0-2.32.52,3.76,3.76,0,0,0-1.6,1.63,6.83,6.83,0,0,0-.66,2.87c0,1,0,1.88,0,2.74s0,1.79,0,2.78A5.42,5.42,0,0,0,55,267.88,4.47,4.47,0,0,0,58.21,269.08Z"/><path class="cls-2" d="M73.36,273.08a.83.83,0,0,1-.6-.23.82.82,0,0,1-.24-.61V250.36a.82.82,0,0,1,.24-.61.8.8,0,0,1,.6-.24h8.93a10.36,10.36,0,0,1,6.63,1.94A6.7,6.7,0,0,1,91.34,257a6.93,6.93,0,0,1-1.17,4.11A7.14,7.14,0,0,1,87,263.59L91.75,272a.76.76,0,0,1,.1.37.69.69,0,0,1-.2.48.67.67,0,0,1-.51.22H87.4a1.15,1.15,0,0,1-.9-.32,2.3,2.3,0,0,1-.44-.59L82,264.46H77.88v7.78a.82.82,0,0,1-.24.61.85.85,0,0,1-.61.23Zm4.52-12.89h4.31a3.89,3.89,0,0,0,2.74-.84,3.12,3.12,0,0,0,.89-2.36A3.23,3.23,0,0,0,85,254.6a3.77,3.77,0,0,0-2.76-.88H77.88Z"/><path class="cls-2" d="M101.28,273.08a.85.85,0,0,1-.61-.23.81.81,0,0,1-.23-.61V254.19H94.31a.78.78,0,0,1-.58-.23.81.81,0,0,1-.23-.57v-3a.85.85,0,0,1,.23-.61.78.78,0,0,1,.58-.24H112a.82.82,0,0,1,.61.24.85.85,0,0,1,.23.61v3a.79.79,0,0,1-.84.8h-6.09v18.05a.82.82,0,0,1-.24.61.85.85,0,0,1-.61.23Z"/><path class="cls-2" d="M116.87,273.08a.85.85,0,0,1-.61-.23.82.82,0,0,1-.24-.61V250.36a.82.82,0,0,1,.85-.85h3.8a.82.82,0,0,1,.61.24.85.85,0,0,1,.23.61v21.88a.79.79,0,0,1-.84.84Z"/><path class="cls-2" d="M135.86,273.42a12.27,12.27,0,0,1-5.37-1.06,7.85,7.85,0,0,1-3.42-3.1,10.5,10.5,0,0,1-1.35-5c0-.91,0-1.9,0-3s0-2.06,0-3a10.44,10.44,0,0,1,1.36-4.93,8,8,0,0,1,3.46-3.12,12.19,12.19,0,0,1,5.32-1.07,13.87,13.87,0,0,1,4.1.57,9.51,9.51,0,0,1,3.2,1.65,7.71,7.71,0,0,1,2.09,2.52,7.83,7.83,0,0,1,.81,3.24.63.63,0,0,1-.22.5.72.72,0,0,1-.52.2h-3.84a.93.93,0,0,1-.64-.2,1.33,1.33,0,0,1-.37-.67,4.31,4.31,0,0,0-1.68-2.73,5.47,5.47,0,0,0-2.93-.74,4.56,4.56,0,0,0-3.3,1.15,5.34,5.34,0,0,0-1.32,3.8c-.06,1.84-.06,3.73,0,5.66a5.34,5.34,0,0,0,1.32,3.8,4.6,4.6,0,0,0,3.3,1.15,5.42,5.42,0,0,0,2.94-.76,4.22,4.22,0,0,0,1.67-2.71,1.24,1.24,0,0,1,.37-.69,1,1,0,0,1,.64-.19h3.84a.77.77,0,0,1,.52.2.67.67,0,0,1,.22.51,7.74,7.74,0,0,1-.81,3.23,7.64,7.64,0,0,1-2.09,2.53,9.51,9.51,0,0,1-3.2,1.65A13.87,13.87,0,0,1,135.86,273.42Z"/><path class="cls-2" d="M159.46,273.42a12.68,12.68,0,0,1-5.19-1,7.42,7.42,0,0,1-3.43-3.07,10.28,10.28,0,0,1-1.21-5.27V250.36a.85.85,0,0,1,.23-.61.82.82,0,0,1,.61-.24h3.67a.82.82,0,0,1,.61.24.85.85,0,0,1,.23.61v13.7a5.09,5.09,0,0,0,1.18,3.7,5,5,0,0,0,6.57,0,5.13,5.13,0,0,0,1.17-3.7v-13.7a.8.8,0,0,1,.26-.61.82.82,0,0,1,.59-.24h3.7a.78.78,0,0,1,.57.24.82.82,0,0,1,.24.61v13.73a10.38,10.38,0,0,1-1.21,5.27,7.47,7.47,0,0,1-3.41,3.07A12.43,12.43,0,0,1,159.46,273.42Z"/><path class="cls-2" d="M174.88,273.08a.79.79,0,0,1-.84-.84V250.36a.85.85,0,0,1,.23-.61.82.82,0,0,1,.61-.24h3.74a.8.8,0,0,1,.6.24.82.82,0,0,1,.24.61v18.21H189.9a.82.82,0,0,1,.84.84v2.83a.82.82,0,0,1-.24.61.83.83,0,0,1-.6.23Z"/><path class="cls-2" d="M196.16,273.08a.79.79,0,0,1-.84-.84V254.19h-6.13a.75.75,0,0,1-.57-.23.78.78,0,0,1-.24-.57v-3a.82.82,0,0,1,.24-.61.76.76,0,0,1,.57-.24h17.64a.82.82,0,0,1,.85.85v3a.78.78,0,0,1-.24.57.81.81,0,0,1-.61.23h-6.09v18.05a.82.82,0,0,1-.24.61.83.83,0,0,1-.6.23Z"/><path class="cls-2" d="M220.54,273.42a12.65,12.65,0,0,1-5.19-1,7.42,7.42,0,0,1-3.43-3.07,10.28,10.28,0,0,1-1.21-5.27V250.36a.81.81,0,0,1,.84-.85h3.67a.8.8,0,0,1,.6.24.82.82,0,0,1,.24.61v13.7a5.09,5.09,0,0,0,1.18,3.7,4.37,4.37,0,0,0,3.3,1.22,4.32,4.32,0,0,0,3.26-1.22,5.09,5.09,0,0,0,1.18-3.7v-13.7a.83.83,0,0,1,.25-.61.84.84,0,0,1,.59-.24h3.71a.78.78,0,0,1,.57.24.82.82,0,0,1,.24.61v13.73a10.28,10.28,0,0,1-1.22,5.27,7.4,7.4,0,0,1-3.4,3.07A12.47,12.47,0,0,1,220.54,273.42Z"/><path class="cls-2" d="M236,273.08a.79.79,0,0,1-.84-.84V250.36a.85.85,0,0,1,.23-.61.82.82,0,0,1,.61-.24h8.92a10.32,10.32,0,0,1,6.63,1.94,6.71,6.71,0,0,1,2.43,5.57,6.86,6.86,0,0,1-1.18,4.11,7.08,7.08,0,0,1-3.17,2.46l4.75,8.42a.76.76,0,0,1,.1.37.65.65,0,0,1-.2.48.63.63,0,0,1-.5.22H250a1.16,1.16,0,0,1-.91-.32,2.56,2.56,0,0,1-.44-.59l-4.11-7.71h-4.07v7.78a.8.8,0,0,1-.84.84Zm4.51-12.89h4.31a3.87,3.87,0,0,0,2.74-.84,3.09,3.09,0,0,0,.9-2.36,3.2,3.2,0,0,0-.88-2.39,3.73,3.73,0,0,0-2.76-.88h-4.31Z"/><path class="cls-2" d="M256.7,273.08a.63.63,0,0,1-.5-.22.66.66,0,0,1-.21-.48,1,1,0,0,1,0-.31l8-21.65a1.36,1.36,0,0,1,.4-.64,1.26,1.26,0,0,1,.85-.27h4.31a1.21,1.21,0,0,1,.84.27,1.36,1.36,0,0,1,.4.64l8,21.65a1.42,1.42,0,0,1,0,.31.69.69,0,0,1-.2.48.67.67,0,0,1-.51.22h-3.5a1,1,0,0,1-.74-.23,1.15,1.15,0,0,1-.3-.44l-1.45-3.77h-9.5l-1.44,3.77a1.32,1.32,0,0,1-.31.44,1,1,0,0,1-.74.23Zm7.24-8.79h7l-3.47-9.69Z"/><rect class="cls-2" x="17.5" y="18" width="265" height="176" rx="5"/><path class="cls-3" d="M232,70.16a5.28,5.28,0,1,0,0,7.46A5.29,5.29,0,0,0,232,70.16Z"/><path class="cls-3" d="M240.49,46A5.28,5.28,0,1,0,233,46,5.29,5.29,0,0,0,240.49,46Z"/><path class="cls-3" d="M215.35,67.42A5.28,5.28,0,1,0,211.62,61,5.28,5.28,0,0,0,215.35,67.42Z"/><path class="cls-3" d="M241.29,80.11A5.27,5.27,0,1,0,245,86.57,5.28,5.28,0,0,0,241.29,80.11Z"/><path class="cls-3" d="M249.69,48.75a5.28,5.28,0,1,0,3.73,6.46h0A5.27,5.27,0,0,0,249.69,48.75Z"/><path class="cls-3" d="M213.92,83a5.28,5.28,0,0,0-2.74-10.2h0A5.28,5.28,0,1,0,213.92,83Z"/><path class="cls-3" d="M222.32,51.61a5.28,5.28,0,0,0-2.74-10.2h0a5.28,5.28,0,1,0,2.74,10.2Z"/><path class="cls-3" d="M242.72,64.56a5.28,5.28,0,1,0,6.47,3.73A5.28,5.28,0,0,0,242.72,64.56Z"/><path class="cls-3" d="M220.39,85.71a5.28,5.28,0,1,0,7.46,0A5.28,5.28,0,0,0,220.39,85.71Z"/><path class="cls-3" d="M236.26,61.82a5.28,5.28,0,1,0-7.47,0A5.29,5.29,0,0,0,236.26,61.82Z"/><path class="cls-3" d="M234.32,95.91l-.12,0h0l-12.74,3.42L212.14,90h0a5.28,5.28,0,1,0-7.46,7.47l9.32,9.32-23.29,86.9a5.28,5.28,0,0,0,10.2,2.73l23.28-86.89,12.74-3.42.13,0a5.28,5.28,0,0,0-2.74-10.2Z"/><path class="cls-3" d="M192.44,46A5.28,5.28,0,1,0,185,46,5.29,5.29,0,0,0,192.44,46Z"/><path class="cls-3" d="M167.3,67.42A5.28,5.28,0,1,0,163.57,61h0A5.29,5.29,0,0,0,167.3,67.42Z"/><path class="cls-3" d="M193.24,80.11A5.27,5.27,0,1,0,197,86.57h0A5.28,5.28,0,0,0,193.24,80.11Z"/><path class="cls-3" d="M198.92,59a5.28,5.28,0,0,0,6.46-3.74h0A5.28,5.28,0,1,0,198.92,59Z"/><path class="cls-3" d="M165.87,83a5.28,5.28,0,1,0-6.47-3.73A5.28,5.28,0,0,0,165.87,83Z"/><path class="cls-3" d="M174.27,51.61a5.28,5.28,0,0,0-2.73-10.2h0a5.28,5.28,0,1,0,2.73,10.2Z"/><path class="cls-3" d="M191,71a5.28,5.28,0,0,0,6.46,3.74h0A5.28,5.28,0,1,0,191,71Z"/><path class="cls-3" d="M192.74,99.64a5.28,5.28,0,0,0-6.46-3.73l-.13,0h0l-12.74,3.42L164.09,90h0a5.28,5.28,0,1,0-7.47,7.47l9.33,9.32-23.29,86.9a5.28,5.28,0,0,0,10.2,2.73l23.29-86.89,12.73-3.42.13,0A5.28,5.28,0,0,0,192.74,99.64Z"/><path class="cls-3" d="M175.16,72.49l0,.06L171,88a.14.14,0,0,1,0,.07h0a5.28,5.28,0,0,0,8.84,5.06,5.34,5.34,0,0,0,1.36-2.33h0a.06.06,0,0,1,0,0l4.15-15.49a.64.64,0,0,1,0-.07l4.22-15.75a5.28,5.28,0,1,0-10.2-2.73h0Z"/><path class="cls-3" d="M144.7,99.64a5.29,5.29,0,0,0-6.47-3.73l-.12,0h0l-12.73,3.42L116.05,90h0a5.28,5.28,0,1,0-7.47,7.47l9.33,9.32-23.29,86.9a5.28,5.28,0,0,0,10.2,2.73l23.28-86.89,12.74-3.42h0l.13,0A5.29,5.29,0,0,0,144.7,99.64Z"/><path class="cls-3" d="M119.25,67.42A5.28,5.28,0,1,0,115.52,61h0A5.29,5.29,0,0,0,119.25,67.42Z"/><path class="cls-3" d="M117.83,83a5.28,5.28,0,1,0-6.47-3.73A5.29,5.29,0,0,0,117.83,83Z"/><path class="cls-3" d="M126.23,51.61a5.28,5.28,0,0,0-2.73-10.2h0a5.28,5.28,0,1,0,2.73,10.2Z"/><path class="cls-3" d="M129.47,63.68l-3.16,11.78-1,3.77s-1.47,5.47-2.4,9a5.05,5.05,0,0,0,1.32,4.9l.08.09a5.26,5.26,0,0,0,5,1.37L145,90.35a5.24,5.24,0,0,0,.85-.27l.06,0a3.36,3.36,0,0,0,.6-.3l0,0a5.11,5.11,0,0,0,.48-.33l.12-.1c.14-.11.27-.23.4-.35s0,0,0,0h0s0,0,0,0,.26-.28.38-.43l.09-.14a4,4,0,0,0,.23-.34,2.53,2.53,0,0,0,.13-.22l.15-.3a2,2,0,0,0,.11-.26c0-.09.07-.19.11-.29a1.8,1.8,0,0,1,.08-.21h0a5.52,5.52,0,0,0,.21-1.52s0-.07,0-.11,0-.27,0-.41,0-.26,0-.38S149,84,149,83.91l0-.13-.06-.17-.09-.27c0-.1-.08-.21-.13-.31a.83.83,0,0,0-.07-.13,5.32,5.32,0,0,0-.37-.66l-.09-.13-.24-.29c0-.06-.09-.11-.13-.16l-.15-.17-.1-.08c-.05-.06-.12-.11-.18-.17s-.34-.28-.53-.41l-.15-.1-.34-.19a1.11,1.11,0,0,0-.19-.09,2,2,0,0,0-.36-.16l-.19-.07a3.59,3.59,0,0,0-.35-.12h0a4.86,4.86,0,0,0-1.07-.16h0a5,5,0,0,0-1.73.21L135.49,82l1-3.77,12.73-3.42h0l.13,0a5.28,5.28,0,0,0,3.84-5.94,5.17,5.17,0,0,0-.11-.54s0,0,0,0a3.24,3.24,0,0,0-.19-.55,1.45,1.45,0,0,0-.09-.22l-.18-.36-.12-.21-.27-.4-.21-.25a2.68,2.68,0,0,0-.46-.48l-.22-.2-.25-.19-.23-.15a4.4,4.4,0,0,0-.51-.29l-.21-.11-.33-.13-.21-.07-.25-.08a5.3,5.3,0,0,0-2.71,0l-.13,0h0l-6.85,1.83,1.08-4L153.48,59h0l.15,0h0l.14,0,.36-.13.24-.09.49-.25.21-.14.29-.2.21-.17a2.09,2.09,0,0,0,.28-.24l.12-.11,0-.05c.11-.11.22-.24.32-.36l.15-.19.23-.34.13-.23.15-.3a2.72,2.72,0,0,0,.11-.25l.12-.33.07-.18h0s0,0,0-.07v0h0l0-.06c0-.12.06-.25.08-.38a.77.77,0,0,0,0-.15c0-.13,0-.25.05-.38a.34.34,0,0,1,0-.1c0-.14,0-.27,0-.41v0a5.17,5.17,0,0,0-.17-1.18v0a.08.08,0,0,1,0-.05,5.31,5.31,0,0,0-.2-.56l0-.08a5.14,5.14,0,0,0-.66-1.13l0,0a5.22,5.22,0,0,0-1.47-1.29h0a6.54,6.54,0,0,0-.59-.3h0a5.78,5.78,0,0,0-.7-.24l-.23,0-.1,0-.3-.06-.19,0-.41,0h-.57l-.52.07-.16,0-.24.06-.08,0h-.06l-6.85,1.84,1.87-7a5.27,5.27,0,0,0-8.83-5.09,5.19,5.19,0,0,0-1.36,2.36l-1.87,7h0l-3.15,11.77Z"/><path class="cls-3" d="M96.65,99.64a5.28,5.28,0,0,0-6.46-3.73l-.13,0h0L77.32,99.36,68,90h0a5.28,5.28,0,1,0-7.46,7.47l9.32,9.32-23.29,86.9a5.28,5.28,0,0,0,10.2,2.73l23.29-86.89,12.73-3.42.13,0A5.29,5.29,0,0,0,96.65,99.64Z"/><path class="cls-3" d="M64.66,81.58a1.14,1.14,0,0,1,.11.11l11.4,11.39.08.09a5.29,5.29,0,0,0,5,1.37L97,90.33l.06,0h.07a5.24,5.24,0,0,0,2.39-1.4h0a5.44,5.44,0,0,0,1.3-2.22h0a5.52,5.52,0,0,0,.21-1.52,5.59,5.59,0,0,0-.2-1.36,5.29,5.29,0,0,0-3.72-3.68h0A4.77,4.77,0,0,0,96,79.93h0a5,5,0,0,0-1.73.21L87.45,82l1-3.77,12.73-3.42h0l.13,0a5.28,5.28,0,0,0,0-10.2,5.19,5.19,0,0,0-2.71,0l-.13,0h0l-6.85,1.84,1.08-4L105.43,59h0l.15,0h0a5.16,5.16,0,0,0,2.34-1.37,5.26,5.26,0,0,0,1.32-2.24h0a5.24,5.24,0,0,0,.21-1.58,5.09,5.09,0,0,0-.18-1.24v0a5.23,5.23,0,0,0-3.67-3.69,4.92,4.92,0,0,0-1.39-.2,5.47,5.47,0,0,0-1.46.2h-.06l-6.85,1.84,1.87-7a5.28,5.28,0,0,0-10.2-2.73h0l-1.87,7-5-5h0a.6.6,0,0,1-.08-.08,5.22,5.22,0,0,0-2.32-1.36,5.47,5.47,0,0,0-1.46-.2,5.19,5.19,0,0,0-1.36.19h0a5.27,5.27,0,0,0-2.34,1.38A5.17,5.17,0,0,0,71.74,45h0a5.26,5.26,0,0,0-.2,1.59,5.08,5.08,0,0,0,.18,1.23h0a5.38,5.38,0,0,0,1.37,2.35l.09.08,9.32,9.32-1.08,4-5-5h0a5.22,5.22,0,0,0-2.46-1.46,5.28,5.28,0,0,0-5,8.92l9.33,9.32-1,3.78-5-5h0l-.11-.12a5.22,5.22,0,0,0-2.23-1.31,5,5,0,0,0-1.73-.21h0a5.23,5.23,0,0,0-1,.16H67a5.36,5.36,0,0,0-2.4,1.4h0a5.21,5.21,0,0,0-1.3,2.22h0a5.17,5.17,0,0,0-.21,1.52,5.59,5.59,0,0,0,.2,1.36A5.29,5.29,0,0,0,64.66,81.58Z"/></svg>