<?xml version="1.0" encoding="utf-8"?>
<!-- Generator: Adobe Illustrator 24.0.0, SVG Export Plug-In . SVG Version: 6.00 Build 0)  -->
<svg version="1.1" id="Capa_1" xmlns="http://www.w3.org/2000/svg" xmlns:xlink="http://www.w3.org/1999/xlink" x="0px" y="0px"
	 viewBox="0 0 300 300" style="enable-background:new 0 0 300 300;" xml:space="preserve">
<style type="text/css">
	.st0{fill:#0A7359;}
	.st1{fill:#F2F2F2;}
	.st2{fill-rule:evenodd;clip-rule:evenodd;fill:#0A7359;}
</style>
<title>equipos-icons</title>
<path class="st0" d="M28.4,8h243.2c11.3,0,20.4,9.1,20.4,20.4v243.2c0,11.3-9.1,20.4-20.4,20.4H28.4C17.1,292,8,282.9,8,271.6V28.4
	C8,17.1,17.1,8,28.4,8z"/>
<path class="st1" d="M36.5,26.1h226.9c5.6,0,10.1,4.5,10.1,10.1v143.9c0,5.6-4.5,10.1-10.1,10.1H36.5c-5.6,0-10.1-4.5-10.1-10.1
	V36.3C26.4,30.7,31,26.1,36.5,26.1z"/>
<g>
	<path class="st2" d="M221.5,82.6c-1.8-1.8-4.7-1.8-6.5,0s-1.8,4.7,0,6.5s4.7,1.8,6.5,0l0,0C223.3,87.4,223.3,84.4,221.5,82.6z"/>
	<path class="st2" d="M228.9,61.6c1.8-1.8,1.8-4.7,0-6.5s-4.7-1.8-6.5,0s-1.8,4.7,0,6.5C224.2,63.4,227.1,63.4,228.9,61.6
		L228.9,61.6z"/>
	<path class="st2" d="M207,80.3c2.5,0.7,5-0.8,5.7-3.2c0.7-2.5-0.8-5-3.2-5.7c-2.5-0.7-5,0.8-5.7,3.2c0,0,0,0,0,0.1
		C203.1,77.1,204.6,79.6,207,80.3z"/>
	<path class="st2" d="M229.6,91.3c-2.5-0.7-5,0.8-5.6,3.2c-0.7,2.5,0.8,5,3.2,5.6c2.5,0.7,5-0.8,5.6-3.2l0,0
		C233.5,94.5,232.1,92,229.6,91.3z"/>
	<path class="st2" d="M237,64c-2.5-0.7-5,0.8-5.6,3.3s0.8,5,3.3,5.6s5-0.8,5.6-3.3l0,0l0,0C240.9,67.2,239.4,64.6,237,64L237,64z"/>
	<path class="st2" d="M205.8,93.8c2.5-0.7,3.9-3.2,3.3-5.6s-3.2-3.9-5.6-3.3l0,0l0,0c-2.5,0.7-3.9,3.2-3.3,5.6
		S203.3,94.5,205.8,93.8z"/>
	<path class="st2" d="M213.1,66.5c2.5-0.7,3.9-3.2,3.3-5.6c-0.7-2.5-3.2-3.9-5.6-3.3l0,0l0,0c-2.5,0.7-3.9,3.2-3.3,5.6
		C208.1,65.7,210.6,67.1,213.1,66.5L213.1,66.5z"/>
	<path class="st2" d="M230.9,77.8c-2.5,0.7-3.9,3.2-3.3,5.6c0.7,2.5,3.2,3.9,5.6,3.3c2.5-0.7,3.9-3.2,3.3-5.6
		C235.9,78.6,233.3,77.1,230.9,77.8L230.9,77.8z"/>
	<path class="st2" d="M211.4,96.2c-1.8,1.8-1.8,4.7,0,6.5s4.7,1.8,6.5,0s1.8-4.7,0-6.5l0,0C216.1,94.4,213.2,94.4,211.4,96.2z"/>
	<path class="st2" d="M225.2,75.4c1.8-1.8,1.8-4.7,0-6.5s-4.7-1.8-6.5,0s-1.8,4.7,0,6.5C220.5,77.2,223.4,77.2,225.2,75.4z"/>
	<path class="st2" d="M223.5,105.1h-0.1l0,0l-11.1,3l-8.1-8.1l0,0c-1.8-1.8-4.7-1.9-6.5-0.1s-1.9,4.7-0.1,6.5c0,0.1,0.1,0.1,0.2,0.2
		l8.1,8.1l-20.3,75.8c-0.6,2.5,0.9,5,3.3,5.6c2.4,0.6,4.9-0.8,5.6-3.2l20.3-75.8l11.1-3h0.1c2.5-0.7,3.9-3.2,3.3-5.6
		S226,104.4,223.5,105.1L223.5,105.1z"/>
	<path class="st2" d="M187,61.6c1.8-1.8,1.8-4.7,0-6.5s-4.7-1.8-6.5,0s-1.8,4.7,0,6.5l0,0C182.3,63.4,185.2,63.4,187,61.6z"/>
	<path class="st2" d="M165.1,80.3c2.5,0.7,5-0.8,5.7-3.2c0.7-2.5-0.8-5-3.2-5.7c-2.5-0.7-5,0.8-5.7,3.2c0,0,0,0,0,0.1l0,0
		C161.2,77.1,162.7,79.6,165.1,80.3z"/>
	<path class="st2" d="M187.7,91.3c-2.5-0.6-5,0.8-5.6,3.3s0.8,5,3.3,5.6c2.4,0.6,4.9-0.8,5.6-3.3l0,0
		C191.6,94.5,190.2,92,187.7,91.3L187.7,91.3z"/>
	<path class="st2" d="M192.7,72.9c2.5,0.7,5-0.8,5.6-3.3l0,0c0.7-2.5-0.8-5-3.3-5.6s-5,0.8-5.6,3.3
		C188.7,69.7,190.2,72.3,192.7,72.9L192.7,72.9z"/>
	<path class="st2" d="M163.8,93.8c2.5-0.7,3.9-3.2,3.3-5.6s-3.2-3.9-5.6-3.3c-2.5,0.7-3.9,3.2-3.3,5.6
		C158.9,93,161.4,94.5,163.8,93.8L163.8,93.8z"/>
	<path class="st2" d="M171.2,66.5c2.4-0.7,3.9-3.2,3.2-5.7c-0.7-2.4-3.1-3.8-5.6-3.2l0,0c-2.5,0.6-4,3.1-3.3,5.6
		c0.6,2.5,3.1,4,5.6,3.3C171.1,66.5,171.1,66.5,171.2,66.5z"/>
	<path class="st2" d="M185.8,83.4c0.7,2.5,3.2,3.9,5.6,3.3l0,0c2.5-0.7,3.9-3.2,3.3-5.6c-0.7-2.5-3.2-3.9-5.6-3.3
		C186.6,78.4,185.1,80.9,185.8,83.4L185.8,83.4z"/>
	<path class="st2" d="M187.3,108.4c-0.7-2.5-3.2-3.9-5.6-3.3h-0.1l0,0l-11.1,3l-8.1-8.1l0,0c-1.8-1.8-4.7-1.8-6.5,0s-1.8,4.7,0,6.5
		l8.1,8.1l-20.3,75.8c-0.6,2.5,0.9,5,3.3,5.6c2.4,0.6,4.9-0.8,5.6-3.2l20.3-75.8l11.1-3h0.1C186.5,113.3,187.9,110.8,187.3,108.4
		L187.3,108.4z"/>
	<path class="st2" d="M171.9,84.7L171.9,84.7l-3.6,13.5c0,0,0,0,0,0.1l0,0c-0.6,2.5,0.8,5,3.3,5.6c1.6,0.4,3.3,0,4.4-1.2
		c0.6-0.6,1-1.3,1.2-2l0,0l0,0l3.6-13.5c0,0,0,0,0-0.1l3.7-13.7c0.7-2.4-0.7-5-3.2-5.7c-2.4-0.7-5,0.7-5.7,3.2V71l0,0L171.9,84.7z"
		/>
	<path class="st2" d="M145.4,108.4c-0.7-2.5-3.2-3.9-5.6-3.3h-0.1l0,0l-11.1,3l-8.1-8.1l0,0c-1.8-1.8-4.7-1.8-6.5,0s-1.8,4.7,0,6.5
		l0,0l8.1,8.1l-20.3,75.8c-0.6,2.5,0.9,5,3.3,5.6s4.9-0.8,5.6-3.2L131,117l11.1-3l0,0h0.1C144.6,113.3,146,110.8,145.4,108.4z"/>
	<path class="st2" d="M123.2,80.3c2.5,0.7,5-0.8,5.7-3.2c0.7-2.5-0.8-5-3.2-5.7c-2.5-0.7-5,0.8-5.7,3.2c0,0,0,0,0,0.1l0,0
		C119.3,77.1,120.7,79.6,123.2,80.3z"/>
	<path class="st2" d="M121.9,93.8c2.5-0.7,3.9-3.2,3.3-5.6c-0.7-2.5-3.2-3.9-5.6-3.3c-2.5,0.7-3.9,3.2-3.3,5.6
		C117,93,119.5,94.5,121.9,93.8z"/>
	<path class="st2" d="M129.3,66.5c2.4-0.7,3.9-3.2,3.2-5.7c-0.7-2.4-3.1-3.8-5.6-3.2l0,0c-2.5,0.6-4,3.1-3.3,5.6s3.1,4,5.6,3.3
		C129.2,66.5,129.2,66.5,129.3,66.5z"/>
	<path class="st2" d="M132.1,77l-2.8,10.3l-0.9,3.3c0,0-1.3,4.8-2.1,7.9c-0.4,1.5,0,3.2,1.2,4.3l0.1,0.1c1.1,1.1,2.8,1.6,4.4,1.2
		l13.7-3.7c0.3-0.1,0.5-0.1,0.7-0.2h0.1c0.2-0.1,0.4-0.2,0.5-0.3l0,0c0.1-0.1,0.3-0.2,0.4-0.3l0.1-0.1c0.1-0.1,0.2-0.2,0.3-0.3
		s0,0,0,0l0,0l0,0c0,0,0.2-0.2,0.3-0.4l0.1-0.1c0.1-0.1,0.1-0.2,0.2-0.3c0-0.1,0.1-0.1,0.1-0.2l0.1-0.3c0-0.1,0.1-0.1,0.1-0.2
		s0.1-0.2,0.1-0.3c0-0.1,0-0.1,0.1-0.2l0,0c0.1-0.4,0.2-0.9,0.2-1.3v-0.1c0,0,0-0.2,0-0.4s0-0.2,0-0.3s0-0.3,0-0.4v-0.1l-0.1-0.1
		l-0.1-0.2c0-0.1-0.1-0.2-0.1-0.3c0,0,0-0.1-0.1-0.1c-0.1-0.2-0.2-0.4-0.3-0.6l-0.1-0.1l-0.2-0.3c0-0.1-0.1-0.1-0.1-0.1l-0.1-0.1
		l-0.1-0.1c0-0.1-0.1-0.1-0.2-0.1c-0.1-0.1-0.3-0.2-0.5-0.4L147,92l-0.3-0.2c-0.1,0-0.1-0.1-0.2-0.1c-0.1-0.1-0.2-0.1-0.3-0.1
		l-0.2-0.1c-0.1,0-0.2-0.1-0.3-0.1l0,0c-0.3-0.1-0.6-0.1-0.9-0.1l0,0c-0.5,0-1,0-1.5,0.2l-6.1,1.6l0.9-3.3l11.1-3l0,0h0.1
		c2.3-0.6,3.7-2.9,3.3-5.2c0-0.2-0.1-0.3-0.1-0.5l0,0c0-0.2-0.1-0.3-0.2-0.5c0-0.1,0-0.1-0.1-0.2l-0.2-0.3l-0.1-0.2l-0.2-0.3
		l-0.2-0.2c-0.1-0.2-0.3-0.3-0.4-0.4l-0.2-0.2l-0.2-0.2l-0.2-0.1c-0.1-0.1-0.3-0.2-0.4-0.3l-0.2-0.1l-0.3-0.1l-0.2-0.1l-0.2-0.1
		c-0.8-0.2-1.6-0.2-2.4,0h0.2l0,0l-6,1.6l0.9-3.5l11.1-3l0,0h0.1l0,0h0.1l0.3-0.1l0.2-0.1l0.4-0.2l0.2-0.1l0.3-0.2l0.2-0.1
		c0.1-0.1,0.2-0.1,0.2-0.2l0.1-0.1l0,0c0.1-0.1,0.2-0.2,0.3-0.3l0.1-0.2l0.2-0.3l0.1-0.2l0.1-0.3c0-0.1,0.1-0.1,0.1-0.2l0.1-0.3
		l0.1-0.2l0,0c0,0,0,0,0-0.1l0,0l0,0v-0.1c0-0.1,0.1-0.2,0.1-0.3v-0.1c0-0.1,0-0.2,0-0.3v-0.1c0-0.1,0-0.2,0-0.4l0,0
		c0-0.3-0.1-0.7-0.1-1l0,0l0,0c0-0.2-0.1-0.3-0.2-0.5v-0.1c-0.1-0.4-0.3-0.7-0.6-1l0,0c-0.4-0.5-0.8-0.8-1.3-1.1l0,0
		c-0.2-0.1-0.3-0.2-0.5-0.3l0,0c-0.2-0.1-0.4-0.2-0.6-0.2h-0.2h-0.1l-0.3-0.1h-0.2h-0.4h-0.5l-0.5,0.1h0.2l-0.2,0.1h-0.1h-0.1
		l-6,1.6l1.6-6.1c0.7-2.4-0.8-5-3.2-5.6c-1.6-0.4-3.3,0-4.5,1.2c-0.6,0.6-1,1.3-1.2,2.1l-1.6,6.1l0,0L133,73.8L132.1,77z"/>
	<path class="st2" d="M103.5,108.4c-0.7-2.5-3.2-3.9-5.6-3.3h-0.1l0,0l-11.1,3l-8.1-8.2l0,0c-1.8-1.8-4.7-1.9-6.5-0.1
		s-1.9,4.7-0.1,6.5c0,0.1,0.1,0.1,0.2,0.2l8.1,8.1L60,190.4c-0.6,2.5,0.9,5,3.3,5.6c2.4,0.6,4.9-0.8,5.6-3.2L89,117l11.1-3h0.1
		C102.7,113.3,104.1,110.8,103.5,108.4z"/>
	<path class="st2" d="M75.6,92.6C75.6,92.6,75.6,92.7,75.6,92.6l10,10l0.1,0.1c1.1,1.1,2.8,1.6,4.4,1.2l13.7-3.7h0.1h0.1
		c0.8-0.2,1.5-0.6,2.1-1.2l0,0c0.5-0.5,0.9-1.2,1.1-1.9l0,0c0.1-0.4,0.2-0.9,0.2-1.3s-0.1-0.8-0.2-1.2c-0.4-1.6-1.7-2.8-3.2-3.2l0,0
		c-0.3-0.1-0.6-0.2-1-0.2l0,0c-0.5,0-1,0-1.5,0.2L95.4,93l0.9-3.3l11.1-3l0,0h0.1c2.5-0.7,3.9-3.2,3.3-5.6c-0.4-1.6-1.7-2.8-3.3-3.3
		c-0.8-0.2-1.6-0.2-2.4,0H105l0,0l-6,1.6l0.9-3.5l11.1-3l0,0h0.1l0,0c0.8-0.2,1.5-0.6,2-1.2c0.5-0.5,0.9-1.2,1.2-2l0,0
		c0.1-0.4,0.2-0.9,0.2-1.4c0-0.4-0.1-0.7-0.2-1.1l0,0c-0.4-1.6-1.6-2.8-3.2-3.2c-0.4-0.1-0.8-0.2-1.2-0.2c-0.4,0-0.9,0.1-1.3,0.2
		h-0.1l-6,1.6l1.6-6.1c0.6-2.5-0.9-5-3.3-5.6s-4.9,0.8-5.6,3.2l0,0l-1.6,6.1l-4.4-4.4l0,0c0,0,0,0-0.1-0.1c-0.6-0.6-1.3-1-2-1.2
		c-0.4-0.1-0.8-0.2-1.3-0.2c-0.4,0-0.8,0.1-1.2,0.2l0,0c-0.8,0.2-1.5,0.6-2,1.2c-0.5,0.5-0.9,1.1-1.2,1.8l0,0
		c-0.1,0.5-0.2,0.9-0.2,1.4c0,0.4,0.1,0.7,0.2,1.1l0,0c0.2,0.8,0.6,1.5,1.2,2l0.1,0.1l8.1,8.1l-0.9,3.5l-4.4-4.4l0,0
		c-0.6-0.6-1.3-1.1-2.1-1.3c-2.5-0.7-5,0.8-5.6,3.3c-0.4,1.6,0.1,3.3,1.3,4.5l8.1,8.1l-0.9,3.3l-4.4-4.4l0,0l0.2,0.2
		c-0.5-0.5-1.2-0.9-1.9-1.1c-0.5-0.1-1-0.2-1.5-0.2l0,0c-0.3,0-0.6,0.1-0.9,0.1h-0.2c-0.8,0.2-1.5,0.6-2.1,1.2l0,0
		c-0.5,0.5-0.9,1.2-1.1,1.9l0,0c-0.1,0.4-0.2,0.9-0.2,1.3s0.1,0.8,0.2,1.2C74.6,91.3,75,92,75.6,92.6z"/>
</g>
<g>
	<path class="st1" d="M62.8,233.7c-1.2,0-2.3-0.2-3.3-0.7c-1-0.5-1.8-1.1-2.4-1.9c-0.6-0.8-0.9-1.7-0.9-2.7c0-1.6,0.7-3,2-3.9
		c1.3-1,3.1-1.6,5.3-2l4.8-0.7v-0.7c0-1-0.2-1.8-0.7-2.3c-0.5-0.5-1.3-0.8-2.5-0.8c-0.8,0-1.5,0.2-2.1,0.5c-0.5,0.3-0.9,0.8-1.2,1.4
		c-0.2,0.3-0.5,0.5-0.8,0.5h-2.8c-0.3,0-0.5-0.1-0.6-0.2c-0.1-0.1-0.2-0.3-0.2-0.6c0-0.4,0.2-0.8,0.5-1.4c0.3-0.5,0.7-1.1,1.3-1.6
		c0.6-0.5,1.4-0.9,2.4-1.3s2.1-0.5,3.5-0.5c1.5,0,2.7,0.2,3.8,0.5c1,0.4,1.8,0.9,2.5,1.5c0.6,0.6,1.1,1.3,1.3,2.2
		c0.3,0.8,0.4,1.7,0.4,2.6v11.1c0,0.2-0.1,0.4-0.2,0.6c-0.2,0.2-0.4,0.2-0.6,0.2h-2.9c-0.3,0-0.5-0.1-0.6-0.2
		c-0.2-0.2-0.2-0.4-0.2-0.6v-1.4c-0.3,0.4-0.7,0.8-1.2,1.2s-1.1,0.7-1.9,1C64.7,233.6,63.8,233.7,62.8,233.7z M64,230.3
		c0.8,0,1.6-0.2,2.2-0.5c0.7-0.4,1.2-0.9,1.6-1.6c0.4-0.7,0.6-1.7,0.6-2.8v-0.7l-3.5,0.6c-1.4,0.2-2.4,0.6-3.1,1s-1,1-1,1.7
		c0,0.5,0.2,1,0.5,1.3c0.3,0.4,0.7,0.6,1.2,0.8C63,230.2,63.5,230.3,64,230.3z"/>
	<path class="st1" d="M86,241.1c-1.7,0-3.1-0.2-4.2-0.7c-1.1-0.4-2-1-2.6-1.6c-0.6-0.6-1.1-1.3-1.4-1.9c-0.3-0.6-0.4-1.1-0.4-1.5
		c0-0.2,0.1-0.4,0.2-0.6c0.2-0.2,0.4-0.3,0.6-0.3h3.1c0.2,0,0.4,0.1,0.6,0.2c0.1,0.1,0.3,0.3,0.4,0.6c0.1,0.3,0.3,0.6,0.6,1
		s0.6,0.7,1.1,0.9s1.1,0.4,2,0.4c0.9,0,1.7-0.1,2.3-0.4c0.6-0.3,1.1-0.7,1.4-1.3c0.3-0.6,0.5-1.5,0.5-2.5v-2.4
		c-0.6,0.7-1.3,1.2-2.2,1.7c-0.9,0.4-2,0.6-3.3,0.6c-1.3,0-2.3-0.2-3.3-0.6c-0.9-0.4-1.7-1-2.3-1.7c-0.6-0.7-1.1-1.6-1.4-2.6
		c-0.3-1-0.5-2.1-0.5-3.4c0-0.6,0-1.3,0-1.9c0-1.2,0.2-2.3,0.5-3.3c0.3-1,0.8-1.9,1.4-2.7c0.6-0.8,1.4-1.4,2.3-1.8
		c0.9-0.4,2-0.6,3.3-0.6c1.3,0,2.5,0.3,3.4,0.8c0.9,0.5,1.7,1.1,2.3,1.9v-1.4c0-0.3,0.1-0.5,0.2-0.6c0.2-0.2,0.4-0.2,0.6-0.2h2.9
		c0.2,0,0.4,0.1,0.6,0.2c0.2,0.2,0.2,0.4,0.2,0.6l0,17c0,1.7-0.3,3.2-1,4.4c-0.6,1.2-1.6,2.2-2.9,2.8C89.6,240.8,88,241.1,86,241.1z
		 M85.8,229.5c1,0,1.7-0.2,2.3-0.6c0.6-0.4,1-1,1.3-1.7c0.3-0.7,0.4-1.4,0.5-2.1c0-0.3,0-0.7,0-1.2c0-0.5,0-0.8,0-1.1
		c0-0.7-0.2-1.4-0.5-2.1c-0.3-0.7-0.7-1.2-1.3-1.7c-0.6-0.4-1.4-0.7-2.3-0.7c-1,0-1.7,0.2-2.3,0.7c-0.6,0.4-1,1-1.3,1.7
		c-0.2,0.7-0.4,1.5-0.4,2.3c0,0.6,0,1.1,0,1.7c0,0.8,0.2,1.6,0.4,2.3c0.2,0.7,0.7,1.3,1.3,1.7C84.1,229.3,84.9,229.5,85.8,229.5z"/>
	<path class="st1" d="M100.3,233.3c-0.2,0-0.4-0.1-0.6-0.2c-0.2-0.2-0.2-0.4-0.2-0.6v-16.7c0-0.3,0.1-0.5,0.2-0.6
		c0.2-0.2,0.4-0.2,0.6-0.2h2.9c0.2,0,0.4,0.1,0.6,0.2c0.2,0.2,0.3,0.4,0.3,0.6v1.5c0.5-0.8,1.2-1.3,2.1-1.7c0.9-0.4,1.9-0.6,3-0.6
		h1.5c0.3,0,0.5,0.1,0.6,0.2c0.2,0.2,0.2,0.4,0.2,0.6v2.5c0,0.2-0.1,0.4-0.2,0.6c-0.2,0.2-0.4,0.2-0.6,0.2h-2.8
		c-1.1,0-2,0.3-2.6,0.9c-0.6,0.6-0.9,1.5-0.9,2.6v9.7c0,0.2-0.1,0.4-0.2,0.6c-0.2,0.2-0.4,0.2-0.6,0.2H100.3z"/>
	<path class="st1" d="M114.9,211.9c-0.2,0-0.4-0.1-0.6-0.2c-0.2-0.2-0.2-0.4-0.2-0.6v-2.5c0-0.2,0.1-0.4,0.2-0.6
		c0.2-0.2,0.4-0.2,0.6-0.2h3.2c0.3,0,0.5,0.1,0.6,0.2c0.2,0.2,0.2,0.4,0.2,0.6v2.5c0,0.2-0.1,0.4-0.2,0.6c-0.2,0.2-0.4,0.2-0.6,0.2
		H114.9z M115.1,233.3c-0.2,0-0.4-0.1-0.6-0.2c-0.2-0.2-0.2-0.4-0.2-0.6v-16.7c0-0.2,0.1-0.4,0.2-0.6c0.2-0.2,0.4-0.2,0.6-0.2h2.9
		c0.3,0,0.5,0.1,0.6,0.2c0.2,0.2,0.2,0.4,0.2,0.6v16.7c0,0.2-0.1,0.4-0.2,0.6c-0.2,0.2-0.4,0.2-0.6,0.2H115.1z"/>
	<path class="st1" d="M131.6,233.7c-1.7,0-3.2-0.3-4.5-1c-1.3-0.6-2.3-1.6-3-2.8c-0.7-1.2-1.1-2.7-1.2-4.4c0-0.4,0-0.8,0-1.4
		c0-0.6,0-1.1,0-1.4c0.1-1.7,0.5-3.2,1.2-4.4c0.7-1.2,1.7-2.1,3-2.8c1.3-0.6,2.8-1,4.5-1c1.5,0,2.8,0.2,3.9,0.6
		c1.1,0.4,1.9,0.9,2.6,1.6c0.7,0.7,1.2,1.3,1.5,2s0.5,1.3,0.5,1.9c0,0.3-0.1,0.5-0.2,0.6c-0.2,0.2-0.4,0.2-0.6,0.2h-3.1
		c-0.2,0-0.4-0.1-0.5-0.2c-0.1-0.1-0.3-0.3-0.4-0.5c-0.4-0.9-0.8-1.6-1.4-2c-0.6-0.4-1.3-0.6-2.2-0.6c-1.2,0-2.1,0.4-2.8,1.1
		c-0.7,0.7-1.1,1.9-1.1,3.5c0,0.9,0,1.7,0,2.5c0,1.6,0.4,2.8,1.1,3.5c0.7,0.7,1.6,1.1,2.8,1.1c0.9,0,1.7-0.2,2.2-0.6
		c0.6-0.4,1-1.1,1.4-2c0.1-0.2,0.2-0.4,0.4-0.5c0.1-0.1,0.3-0.2,0.5-0.2h3.1c0.2,0,0.4,0.1,0.6,0.2c0.2,0.2,0.3,0.4,0.2,0.6
		c0,0.4-0.1,0.9-0.3,1.4c-0.2,0.5-0.5,1.1-1,1.6c-0.4,0.6-1,1.1-1.6,1.5c-0.7,0.5-1.5,0.8-2.4,1.1
		C133.9,233.6,132.9,233.7,131.6,233.7z"/>
	<path class="st1" d="M150.7,233.7c-1.4,0-2.7-0.3-3.7-1c-1-0.6-1.9-1.6-2.4-2.8c-0.6-1.2-0.8-2.6-0.8-4.2v-9.9
		c0-0.2,0.1-0.4,0.2-0.6c0.2-0.2,0.4-0.2,0.6-0.2h3.1c0.3,0,0.5,0.1,0.6,0.2c0.2,0.2,0.2,0.4,0.2,0.6v9.7c0,2.9,1.3,4.4,3.9,4.4
		c1.2,0,2.2-0.4,2.9-1.2c0.7-0.8,1.1-1.9,1.1-3.2v-9.7c0-0.2,0.1-0.4,0.2-0.6c0.2-0.2,0.4-0.2,0.6-0.2h3.1c0.2,0,0.4,0.1,0.6,0.2
		c0.2,0.2,0.2,0.4,0.2,0.6v16.7c0,0.2-0.1,0.4-0.2,0.6c-0.2,0.2-0.4,0.2-0.6,0.2h-2.9c-0.3,0-0.5-0.1-0.6-0.2
		c-0.2-0.2-0.2-0.4-0.2-0.6V231c-0.6,0.8-1.4,1.5-2.4,1.9C153.3,233.5,152.1,233.7,150.7,233.7z"/>
	<path class="st1" d="M166.7,233.3c-0.2,0-0.4-0.1-0.6-0.2c-0.2-0.2-0.2-0.4-0.2-0.6v-23.4c0-0.2,0.1-0.4,0.2-0.6
		c0.2-0.2,0.4-0.2,0.6-0.2h2.9c0.2,0,0.4,0.1,0.6,0.2c0.2,0.2,0.2,0.4,0.2,0.6v23.4c0,0.2-0.1,0.4-0.2,0.6c-0.2,0.2-0.4,0.2-0.6,0.2
		H166.7z"/>
	<path class="st1" d="M183.5,233.3c-1.4,0-2.6-0.2-3.6-0.7c-1-0.5-1.7-1.2-2.2-2.2c-0.5-1-0.7-2.2-0.7-3.7v-8h-2.8
		c-0.2,0-0.4-0.1-0.6-0.2c-0.2-0.2-0.2-0.4-0.2-0.6v-2c0-0.2,0.1-0.4,0.2-0.6c0.2-0.2,0.4-0.2,0.6-0.2h2.8v-5.9
		c0-0.2,0.1-0.4,0.2-0.6c0.2-0.2,0.4-0.2,0.6-0.2h2.9c0.2,0,0.4,0.1,0.6,0.2c0.2,0.2,0.2,0.4,0.2,0.6v5.9h4.4c0.2,0,0.4,0.1,0.6,0.2
		c0.2,0.2,0.2,0.4,0.2,0.6v2c0,0.3-0.1,0.5-0.2,0.6c-0.2,0.2-0.4,0.2-0.6,0.2h-4.4v7.7c0,1,0.2,1.7,0.5,2.3c0.3,0.5,0.9,0.8,1.8,0.8
		h2.4c0.2,0,0.4,0.1,0.6,0.2c0.2,0.2,0.2,0.4,0.2,0.6v2.2c0,0.2-0.1,0.4-0.2,0.6c-0.2,0.2-0.4,0.2-0.6,0.2H183.5z"/>
	<path class="st1" d="M197.2,233.7c-1.4,0-2.7-0.3-3.7-1c-1-0.6-1.9-1.6-2.4-2.8c-0.6-1.2-0.8-2.6-0.8-4.2v-9.9
		c0-0.2,0.1-0.4,0.2-0.6c0.2-0.2,0.4-0.2,0.6-0.2h3.1c0.3,0,0.5,0.1,0.6,0.2c0.2,0.2,0.2,0.4,0.2,0.6v9.7c0,2.9,1.3,4.4,3.9,4.4
		c1.2,0,2.2-0.4,2.9-1.2c0.7-0.8,1.1-1.9,1.1-3.2v-9.7c0-0.2,0.1-0.4,0.2-0.6c0.2-0.2,0.4-0.2,0.6-0.2h3.1c0.2,0,0.4,0.1,0.6,0.2
		c0.2,0.2,0.2,0.4,0.2,0.6v16.7c0,0.2-0.1,0.4-0.2,0.6c-0.2,0.2-0.4,0.2-0.6,0.2H204c-0.3,0-0.5-0.1-0.6-0.2
		c-0.2-0.2-0.2-0.4-0.2-0.6V231c-0.6,0.8-1.4,1.5-2.4,1.9C199.8,233.5,198.6,233.7,197.2,233.7z"/>
	<path class="st1" d="M213.2,233.3c-0.2,0-0.4-0.1-0.6-0.2c-0.2-0.2-0.2-0.4-0.2-0.6v-16.7c0-0.3,0.1-0.5,0.2-0.6
		c0.2-0.2,0.4-0.2,0.6-0.2h2.9c0.2,0,0.4,0.1,0.6,0.2c0.2,0.2,0.3,0.4,0.3,0.6v1.5c0.5-0.8,1.2-1.3,2.1-1.7c0.9-0.4,1.9-0.6,3-0.6
		h1.5c0.3,0,0.5,0.1,0.6,0.2c0.2,0.2,0.2,0.4,0.2,0.6v2.5c0,0.2-0.1,0.4-0.2,0.6c-0.2,0.2-0.4,0.2-0.6,0.2h-2.8
		c-1.1,0-2,0.3-2.6,0.9c-0.6,0.6-0.9,1.5-0.9,2.6v9.7c0,0.2-0.1,0.4-0.2,0.6c-0.2,0.2-0.4,0.2-0.6,0.2H213.2z"/>
	<path class="st1" d="M232.1,233.7c-1.2,0-2.3-0.2-3.3-0.7c-1-0.5-1.8-1.1-2.4-1.9c-0.6-0.8-0.9-1.7-0.9-2.7c0-1.6,0.7-3,2-3.9
		c1.3-1,3.1-1.6,5.3-2l4.8-0.7v-0.7c0-1-0.2-1.8-0.7-2.3c-0.5-0.5-1.3-0.8-2.5-0.8c-0.8,0-1.5,0.2-2.1,0.5c-0.5,0.3-0.9,0.8-1.2,1.4
		c-0.2,0.3-0.5,0.5-0.8,0.5h-2.8c-0.3,0-0.5-0.1-0.6-0.2c-0.1-0.1-0.2-0.3-0.2-0.6c0-0.4,0.2-0.8,0.5-1.4c0.3-0.5,0.7-1.1,1.3-1.6
		c0.6-0.5,1.4-0.9,2.4-1.3s2.1-0.5,3.5-0.5c1.5,0,2.7,0.2,3.8,0.5c1,0.4,1.8,0.9,2.5,1.5c0.6,0.6,1.1,1.3,1.3,2.2
		c0.3,0.8,0.4,1.7,0.4,2.6v11.1c0,0.2-0.1,0.4-0.2,0.6c-0.2,0.2-0.4,0.2-0.6,0.2h-2.9c-0.3,0-0.5-0.1-0.6-0.2
		c-0.2-0.2-0.2-0.4-0.2-0.6v-1.4c-0.3,0.4-0.7,0.8-1.2,1.2s-1.1,0.7-1.9,1S233.2,233.7,232.1,233.7z M233.3,230.3
		c0.8,0,1.6-0.2,2.2-0.5c0.7-0.4,1.2-0.9,1.6-1.6c0.4-0.7,0.6-1.7,0.6-2.8v-0.7l-3.5,0.6c-1.4,0.2-2.4,0.6-3.1,1c-0.7,0.5-1,1-1,1.7
		c0,0.5,0.2,1,0.5,1.3c0.3,0.4,0.7,0.6,1.2,0.8C232.3,230.2,232.8,230.3,233.3,230.3z"/>
	<path class="st1" d="M50.2,270.1c-0.2,0-0.4-0.1-0.6-0.2c-0.2-0.2-0.2-0.4-0.2-0.6v-23.4c0-0.2,0.1-0.4,0.2-0.6
		c0.2-0.2,0.4-0.2,0.6-0.2h3.1c0.3,0,0.5,0.1,0.6,0.2c0.2,0.2,0.2,0.4,0.2,0.6v8.1c0.6-0.8,1.4-1.4,2.3-1.8c0.9-0.5,2-0.7,3.4-0.7
		c1.4,0,2.7,0.3,3.8,1c1.1,0.7,1.9,1.6,2.5,2.7c0.6,1.2,0.9,2.6,0.9,4.2v9.9c0,0.2-0.1,0.4-0.2,0.6c-0.2,0.2-0.4,0.2-0.6,0.2H63
		c-0.2,0-0.4-0.1-0.6-0.2c-0.2-0.2-0.2-0.4-0.2-0.6v-9.7c0-1.4-0.3-2.4-1-3.2c-0.7-0.8-1.6-1.2-2.9-1.2c-1.2,0-2.2,0.4-3,1.2
		c-0.7,0.8-1.1,1.9-1.1,3.2v9.7c0,0.2-0.1,0.4-0.2,0.6c-0.2,0.2-0.4,0.2-0.6,0.2H50.2z"/>
	<path class="st1" d="M79.7,270.4c-1.9,0-3.5-0.3-4.8-1c-1.3-0.7-2.3-1.6-2.9-2.8c-0.7-1.2-1.1-2.6-1.2-4.2c0-0.4,0-0.9,0-1.6
		c0-0.6,0-1.1,0-1.6c0.1-1.6,0.5-3,1.2-4.2c0.7-1.2,1.7-2.1,3-2.8c1.3-0.7,2.8-1,4.7-1c1.8,0,3.4,0.3,4.7,1c1.3,0.7,2.3,1.6,3,2.8
		c0.7,1.2,1.1,2.6,1.2,4.2c0,0.4,0,0.9,0,1.6c0,0.6,0,1.1,0,1.6c-0.1,1.6-0.5,3-1.1,4.2c-0.7,1.2-1.7,2.1-2.9,2.8
		C83.2,270.1,81.6,270.4,79.7,270.4z M79.7,266.9c1.2,0,2.2-0.4,2.9-1.2c0.7-0.8,1.1-2,1.1-3.5c0-0.4,0-0.8,0-1.4c0-0.6,0-1,0-1.4
		c-0.1-1.5-0.4-2.7-1.1-3.5c-0.7-0.8-1.7-1.2-2.9-1.2s-2.2,0.4-2.9,1.2c-0.7,0.8-1.1,1.9-1.1,3.5c0,0.4,0,0.8,0,1.4c0,0.6,0,1,0,1.4
		c0.1,1.5,0.4,2.7,1.1,3.5C77.5,266.5,78.4,266.9,79.7,266.9z"/>
	<path class="st1" d="M93.3,270.1c-0.2,0-0.4-0.1-0.6-0.2c-0.2-0.2-0.2-0.4-0.2-0.6v-16.7c0-0.3,0.1-0.5,0.2-0.6
		c0.2-0.2,0.4-0.2,0.6-0.2h2.9c0.2,0,0.4,0.1,0.6,0.2c0.2,0.2,0.3,0.4,0.3,0.6v1.5c0.5-0.8,1.2-1.3,2.1-1.7c0.9-0.4,1.9-0.6,3-0.6
		h1.5c0.3,0,0.5,0.1,0.6,0.2c0.2,0.2,0.2,0.4,0.2,0.6v2.5c0,0.2-0.1,0.4-0.2,0.6c-0.2,0.2-0.4,0.2-0.6,0.2h-2.8
		c-1.1,0-2,0.3-2.6,0.9c-0.6,0.6-0.9,1.5-0.9,2.6v9.7c0,0.2-0.1,0.4-0.2,0.6c-0.2,0.2-0.4,0.2-0.6,0.2H93.3z"/>
	<path class="st1" d="M115.6,270.1c-1.4,0-2.6-0.2-3.6-0.7c-1-0.5-1.7-1.2-2.2-2.2s-0.7-2.2-0.7-3.7v-8h-2.8c-0.2,0-0.4-0.1-0.6-0.2
		c-0.2-0.2-0.2-0.4-0.2-0.6v-2c0-0.2,0.1-0.4,0.2-0.6c0.2-0.2,0.4-0.2,0.6-0.2h2.8v-5.9c0-0.2,0.1-0.4,0.2-0.6
		c0.2-0.2,0.4-0.2,0.6-0.2h2.9c0.2,0,0.4,0.1,0.6,0.2c0.2,0.2,0.2,0.4,0.2,0.6v5.9h4.4c0.2,0,0.4,0.1,0.6,0.2
		c0.2,0.2,0.2,0.4,0.2,0.6v2c0,0.3-0.1,0.5-0.2,0.6c-0.2,0.2-0.4,0.2-0.6,0.2h-4.4v7.7c0,1,0.2,1.7,0.5,2.3c0.3,0.5,0.9,0.8,1.8,0.8
		h2.4c0.2,0,0.4,0.1,0.6,0.2c0.2,0.2,0.2,0.4,0.2,0.6v2.2c0,0.2-0.1,0.4-0.2,0.6c-0.2,0.2-0.4,0.2-0.6,0.2H115.6z"/>
	<path class="st1" d="M123.1,248.6c-0.2,0-0.4-0.1-0.6-0.2c-0.2-0.2-0.2-0.4-0.2-0.6v-2.5c0-0.2,0.1-0.4,0.2-0.6
		c0.2-0.2,0.4-0.2,0.6-0.2h3.2c0.3,0,0.5,0.1,0.6,0.2c0.2,0.2,0.2,0.4,0.2,0.6v2.5c0,0.2-0.1,0.4-0.2,0.6c-0.2,0.2-0.4,0.2-0.6,0.2
		H123.1z M123.3,270.1c-0.2,0-0.4-0.1-0.6-0.2c-0.2-0.2-0.2-0.4-0.2-0.6v-16.7c0-0.2,0.1-0.4,0.2-0.6c0.2-0.2,0.4-0.2,0.6-0.2h2.9
		c0.3,0,0.5,0.1,0.6,0.2c0.2,0.2,0.2,0.4,0.2,0.6v16.7c0,0.2-0.1,0.4-0.2,0.6c-0.2,0.2-0.4,0.2-0.6,0.2H123.3z"/>
	<path class="st1" d="M139.8,270.4c-1.7,0-3.2-0.3-4.5-1c-1.3-0.6-2.3-1.6-3-2.8c-0.7-1.2-1.1-2.7-1.2-4.4c0-0.4,0-0.8,0-1.4
		c0-0.6,0-1.1,0-1.4c0.1-1.7,0.5-3.2,1.2-4.4s1.7-2.1,3-2.8c1.3-0.6,2.8-1,4.5-1c1.5,0,2.8,0.2,3.9,0.6c1.1,0.4,1.9,0.9,2.6,1.6
		c0.7,0.7,1.2,1.3,1.5,2c0.3,0.7,0.5,1.3,0.5,1.9c0,0.3-0.1,0.5-0.2,0.6c-0.2,0.2-0.4,0.2-0.6,0.2h-3.1c-0.2,0-0.4-0.1-0.5-0.2
		c-0.1-0.1-0.3-0.3-0.4-0.5c-0.4-0.9-0.8-1.6-1.4-2c-0.6-0.4-1.3-0.6-2.2-0.6c-1.2,0-2.1,0.4-2.8,1.1c-0.7,0.7-1.1,1.9-1.1,3.5
		c0,0.9,0,1.7,0,2.5c0,1.6,0.4,2.8,1.1,3.5c0.7,0.7,1.6,1.1,2.8,1.1c0.9,0,1.7-0.2,2.2-0.6c0.6-0.4,1-1.1,1.4-2
		c0.1-0.2,0.2-0.4,0.4-0.5c0.1-0.1,0.3-0.2,0.5-0.2h3.1c0.2,0,0.4,0.1,0.6,0.2c0.2,0.2,0.3,0.4,0.2,0.6c0,0.4-0.1,0.9-0.3,1.4
		c-0.2,0.5-0.5,1.1-1,1.6c-0.4,0.6-1,1.1-1.6,1.5c-0.7,0.5-1.5,0.8-2.4,1.1C142.1,270.3,141,270.4,139.8,270.4z"/>
	<path class="st1" d="M158.9,270.4c-1.4,0-2.7-0.3-3.7-1c-1-0.6-1.9-1.6-2.4-2.8c-0.6-1.2-0.8-2.6-0.8-4.2v-9.9
		c0-0.2,0.1-0.4,0.2-0.6c0.2-0.2,0.4-0.2,0.6-0.2h3.1c0.3,0,0.5,0.1,0.6,0.2c0.2,0.2,0.2,0.4,0.2,0.6v9.7c0,2.9,1.3,4.4,3.9,4.4
		c1.2,0,2.2-0.4,2.9-1.2c0.7-0.8,1.1-1.9,1.1-3.2v-9.7c0-0.2,0.1-0.4,0.2-0.6c0.2-0.2,0.4-0.2,0.6-0.2h3.1c0.2,0,0.4,0.1,0.6,0.2
		c0.2,0.2,0.2,0.4,0.2,0.6v16.7c0,0.2-0.1,0.4-0.2,0.6c-0.2,0.2-0.4,0.2-0.6,0.2h-2.9c-0.3,0-0.5-0.1-0.6-0.2
		c-0.2-0.2-0.2-0.4-0.2-0.6v-1.5c-0.6,0.8-1.4,1.5-2.4,1.9C161.5,270.2,160.3,270.4,158.9,270.4z"/>
	<path class="st1" d="M174.9,270.1c-0.2,0-0.4-0.1-0.6-0.2c-0.2-0.2-0.2-0.4-0.2-0.6v-23.4c0-0.2,0.1-0.4,0.2-0.6
		c0.2-0.2,0.4-0.2,0.6-0.2h2.9c0.2,0,0.4,0.1,0.6,0.2c0.2,0.2,0.2,0.4,0.2,0.6v23.4c0,0.2-0.1,0.4-0.2,0.6c-0.2,0.2-0.4,0.2-0.6,0.2
		H174.9z"/>
	<path class="st1" d="M191.7,270.1c-1.4,0-2.6-0.2-3.6-0.7c-1-0.5-1.7-1.2-2.2-2.2s-0.7-2.2-0.7-3.7v-8h-2.8c-0.2,0-0.4-0.1-0.6-0.2
		c-0.2-0.2-0.2-0.4-0.2-0.6v-2c0-0.2,0.1-0.4,0.2-0.6c0.2-0.2,0.4-0.2,0.6-0.2h2.8v-5.9c0-0.2,0.1-0.4,0.2-0.6
		c0.2-0.2,0.4-0.2,0.6-0.2h2.9c0.2,0,0.4,0.1,0.6,0.2c0.2,0.2,0.2,0.4,0.2,0.6v5.9h4.4c0.2,0,0.4,0.1,0.6,0.2
		c0.2,0.2,0.2,0.4,0.2,0.6v2c0,0.3-0.1,0.5-0.2,0.6c-0.2,0.2-0.4,0.2-0.6,0.2h-4.4v7.7c0,1,0.2,1.7,0.5,2.3c0.3,0.5,0.9,0.8,1.8,0.8
		h2.4c0.2,0,0.4,0.1,0.6,0.2c0.2,0.2,0.2,0.4,0.2,0.6v2.2c0,0.2-0.1,0.4-0.2,0.6c-0.2,0.2-0.4,0.2-0.6,0.2H191.7z"/>
	<path class="st1" d="M205.4,270.4c-1.4,0-2.7-0.3-3.7-1c-1-0.6-1.9-1.6-2.4-2.8c-0.6-1.2-0.8-2.6-0.8-4.2v-9.9
		c0-0.2,0.1-0.4,0.2-0.6c0.2-0.2,0.4-0.2,0.6-0.2h3.1c0.3,0,0.5,0.1,0.6,0.2c0.2,0.2,0.2,0.4,0.2,0.6v9.7c0,2.9,1.3,4.4,3.9,4.4
		c1.2,0,2.2-0.4,2.9-1.2c0.7-0.8,1.1-1.9,1.1-3.2v-9.7c0-0.2,0.1-0.4,0.2-0.6c0.2-0.2,0.4-0.2,0.6-0.2h3.1c0.2,0,0.4,0.1,0.6,0.2
		c0.2,0.2,0.2,0.4,0.2,0.6v16.7c0,0.2-0.1,0.4-0.2,0.6c-0.2,0.2-0.4,0.2-0.6,0.2h-2.9c-0.3,0-0.5-0.1-0.6-0.2
		c-0.2-0.2-0.2-0.4-0.2-0.6v-1.5c-0.6,0.8-1.4,1.5-2.4,1.9C208,270.2,206.8,270.4,205.4,270.4z"/>
	<path class="st1" d="M221.4,270.1c-0.2,0-0.4-0.1-0.6-0.2c-0.2-0.2-0.2-0.4-0.2-0.6v-16.7c0-0.3,0.1-0.5,0.2-0.6
		c0.2-0.2,0.4-0.2,0.6-0.2h2.9c0.2,0,0.4,0.1,0.6,0.2c0.2,0.2,0.3,0.4,0.3,0.6v1.5c0.5-0.8,1.2-1.3,2.1-1.7c0.9-0.4,1.9-0.6,3-0.6
		h1.5c0.3,0,0.5,0.1,0.6,0.2c0.2,0.2,0.2,0.4,0.2,0.6v2.5c0,0.2-0.1,0.4-0.2,0.6c-0.2,0.2-0.4,0.2-0.6,0.2h-2.8
		c-1.1,0-2,0.3-2.6,0.9c-0.6,0.6-0.9,1.5-0.9,2.6v9.7c0,0.2-0.1,0.4-0.2,0.6c-0.2,0.2-0.4,0.2-0.6,0.2H221.4z"/>
	<path class="st1" d="M240.3,270.4c-1.2,0-2.3-0.2-3.3-0.7c-1-0.5-1.8-1.1-2.4-1.9c-0.6-0.8-0.9-1.7-0.9-2.7c0-1.6,0.7-3,2-3.9
		s3.1-1.6,5.3-2l4.8-0.7v-0.7c0-1-0.2-1.8-0.7-2.3c-0.5-0.5-1.3-0.8-2.5-0.8c-0.8,0-1.5,0.2-2.1,0.5c-0.5,0.3-0.9,0.8-1.2,1.4
		c-0.2,0.3-0.5,0.5-0.8,0.5h-2.8c-0.3,0-0.5-0.1-0.6-0.2c-0.1-0.1-0.2-0.3-0.2-0.6c0-0.4,0.2-0.8,0.5-1.4c0.3-0.5,0.7-1.1,1.3-1.6
		c0.6-0.5,1.4-0.9,2.4-1.3c1-0.4,2.1-0.5,3.5-0.5c1.5,0,2.7,0.2,3.8,0.5c1,0.4,1.8,0.9,2.5,1.5c0.6,0.6,1.1,1.3,1.3,2.2
		c0.3,0.8,0.4,1.7,0.4,2.6v11.1c0,0.2-0.1,0.4-0.2,0.6c-0.2,0.2-0.4,0.2-0.6,0.2h-2.9c-0.3,0-0.5-0.1-0.6-0.2
		c-0.2-0.2-0.2-0.4-0.2-0.6v-1.4c-0.3,0.4-0.7,0.8-1.2,1.2c-0.5,0.4-1.1,0.7-1.9,1C242.2,270.3,241.3,270.4,240.3,270.4z
		 M241.5,267.1c0.8,0,1.6-0.2,2.2-0.5c0.7-0.4,1.2-0.9,1.6-1.6c0.4-0.7,0.6-1.7,0.6-2.8v-0.7l-3.5,0.6c-1.4,0.2-2.4,0.6-3.1,1
		c-0.7,0.5-1,1-1,1.7c0,0.5,0.2,1,0.5,1.3c0.3,0.4,0.7,0.6,1.2,0.8C240.5,267,241,267.1,241.5,267.1z"/>
</g>
</svg>
