<?xml version="1.0" encoding="utf-8"?>
<!-- Generator: Adobe Illustrator 24.0.0, SVG Export Plug-In . SVG Version: 6.00 Build 0)  -->
<svg version="1.1" id="Capa_1" xmlns="http://www.w3.org/2000/svg" xmlns:xlink="http://www.w3.org/1999/xlink" x="0px" y="0px"
	 viewBox="0 0 300 300" style="enable-background:new 0 0 300 300;" xml:space="preserve">
<style type="text/css">
	.st0{fill:#66B032;}
	.st1{fill:#F2F2F2;}
</style>
<title>equipos-icons</title>
<g>
	<path class="st0" d="M28.4,8h243.2c11.3,0,20.4,9.1,20.4,20.4v243.2c0,11.3-9.1,20.4-20.4,20.4H28.4C17.1,292,8,282.9,8,271.6V28.4
		C8,17.1,17.1,8,28.4,8z"/>
	<path class="st1" d="M36.5,26.1h226.9c5.6,0,10.1,4.5,10.1,10.1v143.9c0,5.6-4.5,10.1-10.1,10.1H36.5c-5.6,0-10.1-4.5-10.1-10.1
		V36.3C26.4,30.7,31,26.1,36.5,26.1z"/>
</g>
<g>
	<path class="st1" d="M62.4,262.4c-0.2,0-0.4-0.1-0.6-0.4c-0.2-0.2-0.3-0.5-0.3-0.7v-2.5c0-0.2,0.1-0.5,0.3-0.7s0.4-0.4,0.6-0.4h1
		c0.7,0,1.4-0.1,1.8-0.5s0.6-0.7,0.7-1.3c0.1-0.6,0.2-1.2,0.2-1.9v-20.9c0-0.2,0.1-0.5,0.3-0.7c0.2-0.2,0.4-0.4,0.6-0.4h3.3
		c0.2,0,0.4,0.1,0.6,0.4c0.2,0.2,0.3,0.5,0.3,0.7v21c0,1.6-0.3,3.1-0.8,4.2S69,260.4,68,261c-1.1,0.7-2.4,0.9-4.1,0.9h-1.5V262.4z
		 M66.8,228.8c-0.3,0-0.5-0.1-0.6-0.4c-0.2-0.2-0.2-0.5-0.2-0.7v-3.1c0-0.2,0.1-0.5,0.2-0.7c0.2-0.2,0.4-0.4,0.6-0.4h3.6
		c0.3,0,0.5,0.1,0.6,0.4c0.2,0.2,0.3,0.5,0.3,0.7v3.1c0,0.2-0.1,0.5-0.3,0.7c-0.2,0.2-0.4,0.4-0.6,0.4H66.8z"/>
	<path class="st1" d="M82,254.9c-1.3,0-2.5-0.2-3.6-0.8s-1.9-1.4-2.5-2.4c-0.6-0.9-1-2.1-1-3.3c0-2,0.7-3.5,2.2-4.7s3.4-2,5.7-2.4
		l5.2-0.8v-0.9c0-1.2-0.3-2.1-0.8-2.7c-0.5-0.6-1.5-0.9-2.8-0.9c-1,0-1.7,0.2-2.2,0.6c-0.5,0.4-1,0.9-1.3,1.6
		c-0.2,0.4-0.5,0.6-0.8,0.6H77c-0.3,0-0.5-0.1-0.6-0.2c-0.1-0.1-0.2-0.4-0.2-0.7c0-0.5,0.2-1.1,0.5-1.6c0.3-0.7,0.8-1.3,1.5-1.9
		c0.6-0.6,1.5-1.2,2.5-1.5c1.1-0.5,2.3-0.6,3.8-0.6c1.6,0,3,0.2,4,0.7c1.1,0.5,2,1.1,2.6,1.8s1.2,1.6,1.5,2.6c0.3,0.9,0.4,2,0.4,3.2
		v13.3c0,0.2-0.1,0.5-0.3,0.7c-0.2,0.2-0.4,0.4-0.6,0.4H89c-0.3,0-0.5-0.1-0.6-0.4c-0.2-0.2-0.2-0.5-0.2-0.7v-1.6
		c-0.3,0.5-0.7,1.1-1.4,1.5c-0.5,0.5-1.3,0.8-2,1.2C84,254.7,83.1,254.9,82,254.9z M83.3,250.8c0.8,0,1.7-0.2,2.4-0.6
		c0.7-0.5,1.3-1.1,1.7-2c0.4-0.9,0.6-2,0.6-3.4v-0.9l-3.8,0.7c-1.5,0.2-2.6,0.7-3.4,1.2c-0.7,0.6-1.1,1.3-1.1,2.1
		c0,0.6,0.2,1.2,0.5,1.5c0.3,0.5,0.7,0.7,1.3,0.9C82.1,250.6,82.8,250.8,83.3,250.8z"/>
	<path class="st1" d="M99,254.4c-0.2,0-0.4-0.1-0.6-0.4c-0.2-0.2-0.3-0.5-0.3-0.7v-20c0-0.4,0.1-0.6,0.3-0.7
		c0.2-0.2,0.4-0.4,0.6-0.4h3.1c0.2,0,0.5,0.1,0.6,0.4c0.2,0.2,0.3,0.5,0.3,0.7v1.8c0.6-0.9,1.4-1.6,2.2-2.1c1-0.5,2-0.7,3.2-0.7h1.6
		c0.3,0,0.5,0.1,0.6,0.4c0.2,0.2,0.2,0.5,0.2,0.7v3.1c0,0.2-0.1,0.5-0.2,0.7c-0.2,0.2-0.4,0.4-0.6,0.4h-3c-1.3,0-2.1,0.4-2.9,1.2
		c-0.6,0.7-1.1,1.8-1.1,3.2v11.6c0,0.2-0.1,0.5-0.3,0.7c-0.2,0.2-0.4,0.4-0.6,0.4H99V254.4z"/>
	<path class="st1" d="M121,254.9c-1.3,0-2.4-0.2-3.5-0.7c-1-0.5-1.8-1.2-2.5-2.1c-0.6-0.9-1.2-2-1.5-3.2s-0.5-2.6-0.6-4
		c0-0.5,0-0.9,0-1.4s0-0.8,0-1.4c0-1.4,0.2-2.7,0.6-3.9c0.3-1.2,0.8-2.2,1.5-3.2c0.6-0.9,1.5-1.6,2.5-2.1s2.1-0.7,3.5-0.7
		s2.5,0.2,3.5,0.8c1,0.5,1.8,1.2,2.4,2v-9.4c0-0.2,0.1-0.5,0.2-0.7s0.4-0.4,0.6-0.4h3.3c0.2,0,0.4,0.1,0.6,0.4
		c0.2,0.2,0.3,0.5,0.3,0.7v28c0,0.2-0.1,0.5-0.3,0.7s-0.4,0.4-0.6,0.4h-3c-0.3,0-0.5-0.1-0.6-0.4c-0.2-0.2-0.2-0.5-0.2-0.7v-1.5
		c-0.6,0.8-1.5,1.6-2.4,2.1C123.6,254.6,122.4,254.9,121,254.9z M122.3,250.3c1.1,0,1.9-0.2,2.5-0.8s1.1-1.2,1.4-2s0.4-1.6,0.5-2.6
		c0-0.5,0-1.1,0-1.6c0-0.6,0-1.2,0-1.6c0-0.8-0.2-1.6-0.5-2.5c-0.3-0.8-0.8-1.4-1.5-1.9c-0.6-0.5-1.5-0.7-2.4-0.7
		c-1.1,0-1.9,0.2-2.5,0.8s-1.1,1.2-1.4,2s-0.4,1.8-0.5,2.8c0,0.8,0,1.6,0,2.6c0,1.1,0.2,2,0.5,2.8s0.7,1.5,1.4,2
		C120.4,250.1,121.3,250.3,122.3,250.3z"/>
	<path class="st1" d="M137.7,228.8c-0.2,0-0.4-0.1-0.6-0.4c-0.2-0.2-0.3-0.5-0.3-0.7v-3.1c0-0.2,0.1-0.5,0.3-0.7s0.4-0.4,0.6-0.4
		h3.5c0.3,0,0.5,0.1,0.6,0.4c0.1,0.2,0.3,0.5,0.3,0.7v3.1c0,0.2-0.1,0.5-0.3,0.7s-0.4,0.4-0.6,0.4H137.7z M137.9,254.4
		c-0.2,0-0.4-0.1-0.6-0.4s-0.3-0.5-0.3-0.7v-20c0-0.2,0.1-0.5,0.3-0.7s0.4-0.4,0.6-0.4h3.2c0.3,0,0.5,0.1,0.6,0.4
		c0.2,0.2,0.2,0.5,0.2,0.7v20c0,0.2-0.1,0.5-0.2,0.7c-0.2,0.2-0.4,0.4-0.6,0.4H137.9z"/>
	<path class="st1" d="M148.7,254.4c-0.2,0-0.4-0.1-0.6-0.4s-0.3-0.5-0.3-0.7v-20c0-0.2,0.1-0.5,0.3-0.7s0.4-0.4,0.6-0.4h3.2
		c0.2,0,0.4,0.1,0.6,0.4c0.2,0.2,0.3,0.5,0.3,0.7v1.8c0.6-0.9,1.5-1.6,2.5-2.2s2.3-0.9,3.8-0.9c1.6,0,2.9,0.4,4,1.2
		c1.2,0.8,2,1.9,2.6,3.3c0.6,1.4,1,3.1,1,5.1v11.9c0,0.2-0.1,0.5-0.3,0.7s-0.4,0.4-0.6,0.4h-3.4c-0.2,0-0.4-0.1-0.6-0.4
		c-0.2-0.2-0.3-0.5-0.3-0.7v-11.6c0-1.6-0.3-2.9-1.1-3.9c-0.7-0.9-1.8-1.4-3.2-1.4c-1.3,0-2.3,0.5-3.2,1.4c-0.8,0.9-1.2,2.2-1.2,3.9
		v11.6c0,0.2-0.1,0.5-0.3,0.7s-0.4,0.4-0.6,0.4L148.7,254.4L148.7,254.4z"/>
	<path class="st1" d="M180,254.9c-2.9,0-5.1-0.9-6.7-2.7c-1.7-1.8-2.5-4.3-2.6-7.8c0-0.2,0-0.6,0-1.1s0-0.8,0-1.1
		c0.1-2.1,0.5-4,1.3-5.5s1.8-2.7,3.2-3.5s3-1.3,4.9-1.3c2,0,3.8,0.5,5.2,1.4s2.4,2.2,3.2,3.9c0.7,1.6,1.1,3.6,1.1,5.9v0.9
		c0,0.2-0.1,0.5-0.3,0.7s-0.4,0.4-0.6,0.4H176c0,0.1,0,0.2,0,0.4c0,0.9,0.2,1.9,0.5,2.7s0.7,1.5,1.4,2c0.6,0.5,1.4,0.7,2.2,0.7
		c0.7,0,1.3-0.1,1.8-0.4c0.5-0.2,0.8-0.5,1.2-0.8s0.5-0.6,0.6-0.7c0.2-0.4,0.4-0.6,0.5-0.6c0.1-0.1,0.3-0.1,0.6-0.1h3.3
		c0.2,0,0.4,0.1,0.6,0.2c0.2,0.1,0.2,0.4,0.2,0.6c0,0.5-0.2,1.1-0.6,1.6c-0.4,0.7-1,1.3-1.7,1.9c-0.7,0.6-1.7,1.2-2.8,1.5
		C182.8,254.7,181.5,254.9,180,254.9z M175.9,241.5h8.5v-0.1c0-1.1-0.2-2.1-0.5-2.9c-0.3-0.8-0.8-1.5-1.5-2
		c-0.6-0.5-1.4-0.7-2.3-0.7c-0.8,0-1.7,0.2-2.3,0.7s-1.2,1.1-1.5,2s-0.4,1.8-0.4,2.9V241.5L175.9,241.5z"/>
	<path class="st1" d="M194.4,254.4c-0.2,0-0.4-0.1-0.6-0.4s-0.3-0.5-0.3-0.7v-20c0-0.4,0.1-0.6,0.3-0.7c0.2-0.1,0.4-0.4,0.6-0.4h3.1
		c0.2,0,0.5,0.1,0.6,0.4c0.1,0.2,0.3,0.5,0.3,0.7v1.8c0.6-0.9,1.4-1.6,2.2-2.1c1-0.5,2-0.7,3.2-0.7h1.6c0.3,0,0.5,0.1,0.6,0.4
		c0.1,0.2,0.2,0.5,0.2,0.7v3.1c0,0.2-0.1,0.5-0.2,0.7c-0.2,0.2-0.4,0.4-0.6,0.4h-3c-1.3,0-2.1,0.4-2.9,1.2c-0.6,0.7-1.1,1.8-1.1,3.2
		v11.6c0,0.2-0.1,0.5-0.3,0.7s-0.4,0.4-0.6,0.4h-3.2L194.4,254.4L194.4,254.4z"/>
	<path class="st1" d="M210.3,254.4c-0.2,0-0.4-0.1-0.6-0.4s-0.3-0.5-0.3-0.7v-20c0-0.2,0.1-0.5,0.3-0.7s0.4-0.4,0.6-0.4h3.2
		c0.3,0,0.5,0.1,0.6,0.4c0.2,0.2,0.2,0.5,0.2,0.7v20c0,0.2-0.1,0.5-0.2,0.7c-0.2,0.2-0.4,0.4-0.6,0.4H210.3z M210.3,229.3
		c-0.4,0-0.6-0.2-0.6-0.7c0-0.2,0.1-0.4,0.2-0.6l3.1-4.2c0.2-0.4,0.4-0.5,0.6-0.6c0.2-0.1,0.4-0.1,0.7-0.1h3.8
		c0.5,0,0.7,0.2,0.7,0.8c0,0.2-0.1,0.4-0.2,0.5l-4.8,4.3c-0.2,0.2-0.4,0.4-0.6,0.5c-0.2,0.1-0.4,0.1-0.7,0.1H210.3L210.3,229.3z"/>
	<path class="st1" d="M225.2,254.9c-1.3,0-2.5-0.2-3.6-0.8s-1.9-1.4-2.5-2.4c-0.6-0.9-1-2.1-1-3.3c0-2,0.7-3.5,2.2-4.7
		s3.4-2,5.7-2.4l5.2-0.8v-0.9c0-1.2-0.3-2.1-0.8-2.7c-0.5-0.6-1.5-0.9-2.8-0.9c-1,0-1.7,0.2-2.2,0.6c-0.5,0.4-1,0.9-1.3,1.6
		c-0.2,0.4-0.5,0.6-0.8,0.6h-3c-0.3,0-0.5-0.1-0.6-0.2c-0.1-0.1-0.2-0.4-0.2-0.7c0-0.5,0.2-1.1,0.5-1.6c0.3-0.7,0.8-1.3,1.5-1.9
		c0.6-0.6,1.5-1.2,2.5-1.5c1.1-0.5,2.3-0.6,3.8-0.6c1.6,0,3,0.2,4,0.7c1.1,0.5,2,1.1,2.6,1.8s1.2,1.6,1.5,2.6c0.3,0.9,0.4,2,0.4,3.2
		v13.3c0,0.2-0.1,0.5-0.3,0.7s-0.4,0.4-0.6,0.4h-3.1c-0.3,0-0.5-0.1-0.6-0.4c-0.2-0.2-0.2-0.5-0.2-0.7v-1.6
		c-0.3,0.5-0.7,1.1-1.4,1.5c-0.5,0.5-1.3,0.8-2,1.2C227.4,255.1,226.2,254.9,225.2,254.9z M226.5,250.8c0.8,0,1.7-0.2,2.4-0.6
		c0.7-0.5,1.3-1.1,1.7-2s0.6-2,0.6-3.4v-0.9l-3.8,0.7c-1.5,0.2-2.6,0.7-3.4,1.2c-0.7,0.6-1.1,1.3-1.1,2.1c0,0.6,0.2,1.2,0.5,1.5
		c0.3,0.5,0.7,0.7,1.3,0.9C225.3,250.6,225.9,250.8,226.5,250.8z"/>
</g>
<g>
	<path class="st0" d="M192.8,83.5c0.4,0.7,1.2,1.2,2.1,1.2l0,0c1.3,0,2.4-1.1,2.4-2.5c0-0.4-0.1-0.8-0.3-1.1l-8.6-14.7
		c-0.7-1.2-2.2-1.6-3.3-0.9l0,0c-1.2,0.7-1.6,2.1-0.9,3.3l0,0L192.8,83.5z"/>
	<path class="st0" d="M125,99.8c-0.9-0.9-2.5-0.9-3.4,0l-2.4,2.4c-0.5,0.5-0.7,1.1-0.7,1.7c0,0.7,0.3,1.3,0.7,1.7
		c0.5,0.5,1.1,0.7,1.7,0.7c0.7,0,1.3-0.3,1.7-0.7l2.4-2.4C125.9,102.3,125.9,100.8,125,99.8z"/>
	<path class="st0" d="M120.9,111.3c-1.3,0-2.4,1.1-2.4,2.4l0,0v2.4c0.1,1.3,1.2,2.4,2.6,2.3c1.2-0.1,2.2-1.1,2.3-2.3v-2.4
		C123.3,112.3,122.2,111.3,120.9,111.3z"/>
	<path class="st0" d="M123.2,89.4h-2.4c-1.3,0-2.4,1.1-2.4,2.4s1.1,2.4,2.4,2.4h2.4c1.3,0,2.4-1.1,2.4-2.4S124.6,89.4,123.2,89.4
		L123.2,89.4z"/>
	<path class="st0" d="M109.4,100.9L109.4,100.9c0.9,0.9,2.5,0.9,3.4,0l0,0l2.4-2.4c0.9-1,0.9-2.5,0-3.4c-1-0.9-2.5-0.9-3.4,0
		l-2.4,2.4C108.5,98.4,108.5,100,109.4,100.9z"/>
	<path class="st0" d="M108.8,104c-1.3,0-2.4,1.1-2.4,2.4v2.4c0,1.3,1.1,2.4,2.4,2.4s2.4-1.1,2.4-2.4l0,0v-2.4
		C111.2,105.1,110.1,104,108.8,104z"/>
	<path class="st0" d="M118.4,84.6h4.8c1.3,0,2.4-1.1,2.4-2.4s-1.1-2.4-2.4-2.4l0,0h-4.8c-1.3,0-2.4,1.1-2.4,2.4
		C115.9,83.5,117,84.6,118.4,84.6L118.4,84.6z"/>
	<path class="st0" d="M106.3,91.9L106.3,91.9c0.6,0,1.3-0.3,1.7-0.7l2.4-2.4c0.9-1,0.9-2.5,0-3.4c-1-0.9-2.5-0.9-3.4,0l0,0l-2.4,2.4
		c-0.9,0.9-0.9,2.5,0,3.4C105,91.7,105.6,91.9,106.3,91.9z"/>
	<path class="st0" d="M99,101.7L99,101.7c0.6,0,1.3-0.3,1.7-0.7l2.4-2.4c0.9-0.9,0.9-2.5,0-3.4s-2.5-0.9-3.4,0l-2.4,2.4
		c-1,0.9-1,2.5,0,3.4C97.8,101.4,98.4,101.7,99,101.7z"/>
	<path class="st0" d="M222.5,111.3L222.5,111.3c-0.5-1.9-1.7-3.5-3.4-4.4l-4.2-2.4c-3.5-2-7.9-0.8-9.9,2.7l-14.4,25.2
		c-1,1.8-1.2,3.9-0.6,5.9l-3.4,5.9l-8.4-4.8l0,0c-1.2-0.7-2.6-0.3-3.3,0.9l-8.3,14.6l0,0c-2.6,4.5-3.9,9.7-3.8,14.9
		c-0.1-0.1-0.3-0.2-0.4-0.4v-0.1c-0.1-9.4-7.7-16.9-17.1-16.9c-1.2,0-2.5,0.2-3.7,0.4l0,0c-4.2,1-7.8,3.5-10.2,7
		c-0.1,0.1-0.3,0.3-0.4,0.4c-0.3,0.5-0.6,1-0.9,1.6l-0.1,0.1l0,0c-0.4,0.9-0.8,1.9-1.1,2.9c-1.7-0.3-3.4-0.3-5.1-0.1
		c-1-4-1.7-8.1-2.2-12.2h6.6c14.7-0.1,26.6-12.1,26.5-26.8c0-1.3-1.1-2.4-2.4-2.4c-0.4,0-0.8,0.1-1.1,0.3l-0.5,0.2l0,0
		c-4.7,2.2-9.8,3.3-15,3.3c-6.1,0-11.9,3-15.3,8.1c-1.9-12.7-10.4-21.5-21.5-21.7V109c0-1.3-1.1-2.4-2.4-2.4s-2.4,1.1-2.4,2.4l0,0
		v4.2c-4.5-0.3-8.8-1.5-12.9-3.5l-0.5-0.3c-1.2-0.7-2.6-0.2-3.3,0.9c-0.2,0.4-0.3,0.8-0.3,1.2c0,7.5,2.6,14.8,7.4,20.6l0,0l0.1,0.2
		c0.2,0.3,0.4,0.5,0.6,0.8c0.1,0.1,0.2,0.2,0.3,0.2c2.7,2.9,5.9,5.2,9.4,6.9l0,0c2.9,1.4,5.9,2.2,9.1,2.5c2.6,0.2,4.6,2.5,4.5,5.1
		c-1.6,6.9-2,14-1,21c-1.3,0.8-2.5,1.9-3.4,3.2H104c-5.5,0-10.7,2.8-13.9,7.4c-6.7-0.3-12.4,4.8-12.7,11.5c0,0.2,0,0.4,0,0.6
		c0,1.3,1.1,2.4,2.4,2.4s2.4-1.1,2.4-2.4c-0.1-4,3.1-7.3,7.1-7.3c0.5,0,1.1,0,1.6,0.1c1,0.2,2.1-0.3,2.6-1.2
		c2.3-4.2,6.8-6.6,11.6-6.2c1,0.1,1.9-0.4,2.4-1.2c1.3-2.3,3.7-3.7,6.3-3.7c0.8,0,1.7,0.2,2.5,0.5s1.6,0.1,2.3-0.4
		c3.3-2.5,7.5-3.2,11.4-1.8c1.3,0.5,2.6-0.2,3.1-1.4c0.1-0.2,0.1-0.4,0.1-0.6c0.2-1.9,0.8-3.6,1.8-5.2l0.1-0.2
		c1.9-2.6,4.7-4.5,7.8-5.2c0.7-0.2,1.5-0.2,2.3-0.2c6.7,0,12.1,5.3,12.2,12c0,0.3,0,0.7-0.1,1c-0.1,1,0.4,1.9,1.2,2.4
		c2.3,1.3,3.8,3.8,3.7,6.4c0,0.2,0,0.3-0.1,0.5c-0.1,1.3,0.9,2.5,2.2,2.6c0.3,0,0.7,0,1-0.1c4.7-1.7,10-0.3,13.3,3.4
		c0.9,1,2.4,1.1,3.4,0.2c0.2-0.2,0.4-0.4,0.5-0.7c1.9-3.5,6.2-4.8,9.8-2.9c1.7,0.9,3,2.5,3.5,4.5c0.4,1.3,1.7,2,3,1.7
		c0.4-0.1,0.8-0.4,1.1-0.7c1.8-2,4.9-2.1,6.8-0.3c1,0.9,1.6,2.2,1.6,3.6c0,1.3,1.1,2.4,2.4,2.4s2.4-1.1,2.4-2.4
		c0-5.3-4.4-9.7-9.7-9.7c-1.5,0-2.9,0.3-4.3,1c-0.7-1.2-1.7-2.2-2.8-3.1c1.3-1.5,2.5-3.1,3.4-4.8l8.4-14.8c0.7-1.2,0.3-2.6-0.9-3.3
		l-8.4-4.8l3.4-5.9c2-0.4,3.8-1.7,4.8-3.4l1.6-2.7l0,0l2-3.5l0,0l4.8-8.4l0,0l0,0l0.9-1.6l0,0l5.2-9
		C222.8,115.2,223,113.2,222.5,111.3z M127.5,134.8c2.4-1.9,5.4-2.9,8.4-2.9l0,0c4.7,0,9.3-0.8,13.8-2.3
		c-1.8,10.4-10.8,18-21.4,18.1h-4.5l0.1-0.1l0,0c2-2.4,4.8-4,7.8-4.5c2.8-0.5,5.4-1.6,7.7-3.2c1.1-0.7,1.4-2.2,0.7-3.4
		c-0.7-1.1-2.2-1.4-3.4-0.7c-0.1,0.1-0.2,0.1-0.3,0.2c-1.7,1.2-3.6,2-5.6,2.4c-3.1,0.5-6,1.8-8.5,3.9
		C123.3,139.2,125.1,136.6,127.5,134.8z M116.7,167.4c-1.4-0.3-2.8-0.4-4.3-0.3c-0.7-6.2-0.4-12.4,1.1-18.5c0-0.2,0.1-0.3,0.1-0.5
		c0.1-2.4-0.6-4.8-2.1-6.7c-1.7-2.1-4.1-3.4-6.7-3.7s-5.1-1-7.4-2.1l-0.5-0.3l-0.3-0.1c-2.9-1.6-5.6-3.7-7.9-6.2
		c-3.4-3.9-5.5-8.7-6.2-13.8c5.2,1.9,10.7,2.9,16.2,2.8c8.5,0,14.1,6.2,16.4,13.9c-3.6-4-8.4-6.6-13.7-7.5c-3-0.5-5.8-1.7-8.2-3.5
		c-0.5-0.4-1.2-0.6-1.8-0.5c-0.6,0.1-1.2,0.4-1.6,0.9s-0.5,1.2-0.5,1.8c0.1,0.6,0.5,1.2,1,1.6c3,2.3,6.5,3.8,10.3,4.4
		c4.5,0.7,8.6,3.1,11.5,6.6l4.2,5.2c0.1,8.3,1.1,16.6,3.1,24.7C118.4,166.4,117.5,166.9,116.7,167.4z M184.8,157.2l8.4-14.7l4.2,2.4
		l-8.4,14.7c-0.7,1.2-2.1,1.6-3.3,0.9C184.5,159.8,184.1,158.3,184.8,157.2L184.8,157.2z M203.2,159.2l-7.2,12.6
		c-1,1.8-2.3,3.4-3.8,4.9c-4.3-1.1-8.8,0.2-11.8,3.4c-0.7-0.6-1.5-1.1-2.3-1.5l3.7-6.5c0.7-1.2,0.3-2.6-0.9-3.3l0,0
		c-1.2-0.7-2.7-0.3-3.3,0.9l0,0l-4.1,7.2c-1.5-0.4-3.1-0.5-4.7-0.4c-2.1-6.4-1.3-13.5,2-19.3l7.1-12.4l6.3,3.6l-3.6,6.3
		c-2.2,3.3-1.3,7.9,2,10.1c3.3,2.2,7.9,1.3,10.1-2c0.2-0.3,0.3-0.5,0.5-0.8l3.6-6.3L203.2,159.2z M217.6,114.4l-6.1,10.7l0,0
		l-4.8,8.4l0,0l-0.4,0.6v0.1l0,0l-3.1,5.5l0,0c-0.7,1.2-2.1,1.6-3.3,0.9l-4.2-2.4l0,0c-1.2-0.7-1.6-2.1-0.9-3.3l14.4-25.3
		c0.7-1.2,2.1-1.6,3.3-0.9l4.2,2.4l0,0C217.9,111.8,218.3,113.3,217.6,114.4z"/>
	<path class="st0" d="M131.3,103.1c0.5,0.4,1.1,0.7,1.7,0.7l0,0h9.7c1.5,0,2.9-0.5,4.1-1.3c1.2-0.8,2.1-2,2.6-3.4l20.3,1.6l5.1,10
		l0,0c0.3,0.6,0.8,1,1.5,1.2c0.2,0.1,0.5,0.1,0.7,0.1c0.4,0,0.8-0.1,1.2-0.3l35.6-20.8c1.2-0.7,1.5-2.1,0.9-3.3l-0.1-0.1l-2.6-3.9
		l4.4-2.6c5.8-3.4,7.7-10.8,4.3-16.6l-6.1-10.5c-3.4-5.8-10.8-7.8-16.6-4.4l-6,3.5l-1.4-2.1c-0.7-1.1-2.1-1.4-3.3-0.8l-10.8,6.3
		L164,63.7l-8.1,4.7l0,0c-1.1,0.7-1.5,2.1-0.9,3.2l5.8,11.4l-11.4,1c-1.1-2.8-3.8-4.7-6.8-4.6h-9.7c-1.3,0-2.4,1.1-2.4,2.4l0,0
		l0.1,19.4C130.6,102,130.9,102.6,131.3,103.1z M200.7,53.7c3.5-2,7.9-0.8,9.9,2.6l6.1,10.5c2,3.5,0.8,7.9-2.6,9.9l-4.6,2.7
		l-2.7-4.1l4.9-2.8c1.2-0.7,1.6-2.1,0.9-3.3l0,0l-6.1-10.5c-0.7-1.2-2.1-1.6-3.3-0.9l0,0l-5.7,3.3l-2.7-4.1L200.7,53.7z M204.1,71.3
		l-4-6.1l3.4-2l3.7,6.3L204.1,71.3z M160.4,71.6l6.8-4l9.6-5.6l0,0l1.9-1.1h0.1l9-5.3L209.2,88l-31.1,18.2L160.4,71.6z M163.3,87.8
		l4,7.8L150,94.2V89L163.3,87.8z M142.7,84.3c0.6,0,1.3,0.3,1.7,0.7c0.5,0.5,0.7,1.1,0.7,1.7v9.7c0,1.3-1.1,2.4-2.4,2.4l0,0h-7.3
		l-0.1-14.5L142.7,84.3z"/>
</g>
</svg>
