<svg id="Capa_1" data-name="Capa 1" xmlns="http://www.w3.org/2000/svg" viewBox="0 0 300 300"><defs><style>.cls-1{fill:#685851;}.cls-2{fill:#f2f2f2;}</style></defs><title>equipos-icons</title><rect class="cls-1" x="8" y="8" width="284" height="284" rx="10.1"/><rect class="cls-2" x="17.5" y="18" width="265" height="176" rx="5"/><path class="cls-1" d="M197.44,76.83a2.7,2.7,0,0,0,2.34,1.34h0a2.7,2.7,0,0,0,2.31-4l-9.5-16.27a2.7,2.7,0,0,0-3.69-1,2.69,2.69,0,0,0-1,3.7Z"/><path class="cls-1" d="M122.17,94.94a2.7,2.7,0,0,0-3.81,0l-2.68,2.7a2.69,2.69,0,0,0-.81,1.92,2.62,2.62,0,0,0,.8,1.92,2.66,2.66,0,0,0,1.93.78,2.71,2.71,0,0,0,1.91-.83l2.67-2.7A2.7,2.7,0,0,0,122.17,94.94Z"/><path class="cls-1" d="M117.63,107.63a2.69,2.69,0,0,0-2.68,2.71V113a2.7,2.7,0,0,0,5.39,0v-2.7A2.71,2.71,0,0,0,117.63,107.63Z"/><path class="cls-1" d="M120.21,83.4h-2.7a2.69,2.69,0,0,0,0,5.38h2.69a2.69,2.69,0,0,0,0-5.38Z"/><path class="cls-1" d="M104.9,96.14h0a2.69,2.69,0,0,0,3.81,0l2.68-2.7a2.69,2.69,0,0,0-3.83-3.79l-2.67,2.7A2.7,2.7,0,0,0,104.9,96.14Z"/><path class="cls-1" d="M104.13,99.62a2.71,2.71,0,0,0-2.68,2.71l0,2.69a2.69,2.69,0,1,0,5.38,0V102.3A2.71,2.71,0,0,0,104.13,99.62Z"/><path class="cls-1" d="M114.8,78l5.38,0a2.69,2.69,0,1,0,0-5.38l-5.38,0a2.69,2.69,0,1,0,0,5.38Z"/><path class="cls-1" d="M101.38,86.18h0a2.73,2.73,0,0,0,1.9-.8l2.68-2.7a2.69,2.69,0,0,0-3.83-3.79l-2.68,2.7a2.69,2.69,0,0,0,1.93,4.59Z"/><path class="cls-1" d="M93.35,97h0a2.69,2.69,0,0,0,1.9-.79l2.68-2.71a2.69,2.69,0,0,0-3.82-3.79L91.43,92.4A2.69,2.69,0,0,0,93.35,97Z"/><path class="cls-1" d="M230.42,107.7h0a8,8,0,0,0-3.8-4.9L222,100.14a8.07,8.07,0,0,0-11,3l-16,28a8,8,0,0,0-.62,6.52l-3.72,6.5-9.34-5.34h0a2.7,2.7,0,0,0-3.68,1L168.38,156h0a32.23,32.23,0,0,0-4.23,16.53,5.66,5.66,0,0,0-.44-.4V172a18.88,18.88,0,0,0-18.94-18.76,17.43,17.43,0,0,0-4.07.49h0a19.15,19.15,0,0,0-11.37,7.81,2.38,2.38,0,0,0-.4.49,16.42,16.42,0,0,0-1,1.74l-.09.15h0a18.87,18.87,0,0,0-1.21,3.19,18.51,18.51,0,0,0-5.61-.14,122.5,122.5,0,0,1-2.42-13.6l7.29,0a29.65,29.65,0,0,0,29.46-29.75,2.69,2.69,0,0,0-3.9-2.41l-.52.27h0a37.11,37.11,0,0,1-16.64,3.62,20.55,20.55,0,0,0-17,9c-2.1-14.1-11.5-23.85-23.91-24.09l0-4.92a2.69,2.69,0,1,0-5.38,0l0,4.64a37.84,37.84,0,0,1-14.28-3.92l-.6-.32a2.68,2.68,0,0,0-4,2.38,35.75,35.75,0,0,0,8.27,22.86h0l.16.18q.35.42.72.84a2.33,2.33,0,0,0,.28.26,34.18,34.18,0,0,0,10.45,7.68h0a31.39,31.39,0,0,0,10.09,2.83,5.53,5.53,0,0,1,5,5.63A63.07,63.07,0,0,0,103,171.49,13.83,13.83,0,0,0,99.17,175h-.06a18.9,18.9,0,0,0-15.4,8.17,13.45,13.45,0,0,0-14.1,13.5,2.69,2.69,0,0,0,5.38,0,8,8,0,0,1,9.58-8,2.68,2.68,0,0,0,2.87-1.33,13.32,13.32,0,0,1,12.86-6.92,2.68,2.68,0,0,0,2.62-1.36,7.95,7.95,0,0,1,7-4.13,8.07,8.07,0,0,1,2.75.51,2.71,2.71,0,0,0,2.53-.43A13.42,13.42,0,0,1,127.87,173a2.68,2.68,0,0,0,3.59-2.26,13.19,13.19,0,0,1,2-5.8l.1-.2a14.73,14.73,0,0,1,8.71-5.82,11.85,11.85,0,0,1,2.52-.26A13.49,13.49,0,0,1,158.32,172a11.27,11.27,0,0,1-.06,1.16,2.7,2.7,0,0,0,1.36,2.63,8,8,0,0,1,4.11,7.14c0,.19,0,.37-.07.54a2.7,2.7,0,0,0,3.61,2.76A13.57,13.57,0,0,1,182,190a2.68,2.68,0,0,0,4.37-.48,8,8,0,0,1,14.77,1.68,2.69,2.69,0,0,0,4.55,1.11A5.37,5.37,0,0,1,215,196a2.69,2.69,0,1,0,5.38,0,10.75,10.75,0,0,0-15.5-9.62,13.54,13.54,0,0,0-3.06-3.43,32.12,32.12,0,0,0,3.82-5.3l9.34-16.39a2.69,2.69,0,0,0-1-3.67l-9.35-5.34,3.72-6.51a8,8,0,0,0,5.31-3.83l1.73-3h0l2.19-3.84h0l5.34-9.35h0v0l1-1.76h0l5.74-10A8,8,0,0,0,230.42,107.7ZM125,133.74a15.85,15.85,0,0,1,9.36-3.26h0a45.22,45.22,0,0,0,15.29-2.57A24.27,24.27,0,0,1,125.9,148l-5,0,.09-.12h0a14.25,14.25,0,0,1,8.71-5,19.93,19.93,0,0,0,8.54-3.6A2.69,2.69,0,1,0,135,135a14.6,14.6,0,0,1-6.23,2.62,19.74,19.74,0,0,0-9.42,4.28A16,16,0,0,1,125,133.74ZM113,170a13.32,13.32,0,0,0-4.75-.28,57.62,57.62,0,0,1,1.24-20.52,3,3,0,0,0,.07-.51,10.86,10.86,0,0,0-2.36-7.43,11,11,0,0,0-7.48-4.07,26.53,26.53,0,0,1-8.25-2.29l-.61-.3-.31-.15a35.28,35.28,0,0,1-8.72-6.87,30,30,0,0,1-6.94-15.33,49.21,49.21,0,0,0,18,3.13c9.49,0,15.63,6.85,18.17,15.43a25.88,25.88,0,0,0-15.17-8.32,20.64,20.64,0,0,1-9.08-3.86,2.69,2.69,0,0,0-2-.56A2.67,2.67,0,0,0,83,119.1a2.72,2.72,0,0,0-.5,2,2.68,2.68,0,0,0,1.1,1.78A26.15,26.15,0,0,0,95,127.78a20.52,20.52,0,0,1,12.73,7.38l4.67,5.78a124.77,124.77,0,0,0,3.43,27.48A18.47,18.47,0,0,0,113,170Zm75.58-11.39,9.34-16.36,4.68,2.67-9.34,16.36a2.69,2.69,0,0,1-4.68-2.67ZM209,160.91l-8,14a26.89,26.89,0,0,1-4.19,5.42,13.45,13.45,0,0,0-13.09,3.82,19.59,19.59,0,0,0-2.54-1.68l4.13-7.23a2.68,2.68,0,0,0-1-3.68,2.7,2.7,0,0,0-3.69,1l-4.53,8a18.75,18.75,0,0,0-5.23-.46,26.84,26.84,0,0,1,2.25-21.47l7.84-13.73,7,4-4,7a8.08,8.08,0,1,0,14,8l4-7Zm16-49.75L218.2,123h0l-5.33,9.35h0l-.4.7-.05.08h0L209,139.21h0a2.7,2.7,0,0,1-3.68,1l-4.67-2.67h0a2.69,2.69,0,0,1-1-3.67l16-28.05a2.69,2.69,0,0,1,3.67-1l4.68,2.66h0A2.7,2.7,0,0,1,225,111.16Z"/><path class="cls-1" d="M129.19,98.55a2.74,2.74,0,0,0,1.91.78h0l10.77,0a8.1,8.1,0,0,0,4.56-1.46,8,8,0,0,0,2.93-3.77l22.57,1.77,5.69,11.11h0a2.68,2.68,0,0,0,1.64,1.36,2.87,2.87,0,0,0,.77.11,2.65,2.65,0,0,0,1.34-.37L220.89,85a2.67,2.67,0,0,0,.89-3.8l-2.89-4.38,4.91-2.87a13.47,13.47,0,0,0,4.83-18.41l-6.78-11.62A13.49,13.49,0,0,0,203.44,39l-6.84,4L195,40.66a2.7,2.7,0,0,0-3.61-.84l-12,7-13.84,8.07-9,5.24h0a2.69,2.69,0,0,0-1,3.55L162,76.39l-12.71,1.12a8.07,8.07,0,0,0-7.55-5.16L131,72.4a2.69,2.69,0,0,0-2.68,2.71l.1,21.53A2.73,2.73,0,0,0,129.19,98.55Zm77-54.87a8.09,8.09,0,0,1,11,2.91L224,58.22a8.06,8.06,0,0,1-2.91,11l-5.16,3-3-4.5,5.44-3.16a2.69,2.69,0,0,0,1-3.68l-6.78-11.63a2.69,2.69,0,0,0-3.68-1l-6.33,3.71-3-4.5ZM210,63.27l-4.46-6.74,3.74-2.17,4.08,7Zm-48.5.28L169,59.13l10.7-6.24h0l2.12-1.24.08,0,10-5.83,23.78,36L181.12,102Zm3.17,18,4.41,8.62-19.16-1.5,0-5.82Zm-22.87-3.83a2.71,2.71,0,0,1,1.9.78,2.67,2.67,0,0,1,.8,1.9l.05,10.77a2.68,2.68,0,0,1-2.68,2.7l-8.07,0-.08-16.15Z"/><path class="cls-2" d="M51.21,256.46a14.33,14.33,0,0,1-3.82-.5,10,10,0,0,1-3.2-1.53A7.37,7.37,0,0,1,42,251.89a7.87,7.87,0,0,1-.89-3.53.84.84,0,0,1,.22-.56.75.75,0,0,1,.57-.23H46a1,1,0,0,1,.74.25,1.67,1.67,0,0,1,.41.72,3.92,3.92,0,0,0,.75,1.87,3.37,3.37,0,0,0,1.46,1.06,5.48,5.48,0,0,0,2,.35,3.87,3.87,0,0,0,3.15-1.33,5.81,5.81,0,0,0,1.1-3.78v-11h-12a.85.85,0,0,1-.86-.86v-3a.87.87,0,0,1,.25-.65.82.82,0,0,1,.61-.25h17a.86.86,0,0,1,.9.9v15a10,10,0,0,1-1.29,5.24,8.46,8.46,0,0,1-3.6,3.25A12.08,12.08,0,0,1,51.21,256.46Z"/><path class="cls-2" d="M64.52,256.1a.74.74,0,0,1-.54-.23.77.77,0,0,1-.21-.53,1.58,1.58,0,0,1,0-.32l8.57-23.14a1.44,1.44,0,0,1,.43-.69,1.33,1.33,0,0,1,.9-.28h4.61a1.33,1.33,0,0,1,.9.28,1.44,1.44,0,0,1,.43.69L88.21,255a1.58,1.58,0,0,1,0,.32.77.77,0,0,1-.21.53.75.75,0,0,1-.55.23H83.74a1.07,1.07,0,0,1-.79-.25,1.19,1.19,0,0,1-.32-.47l-1.55-4H70.93l-1.55,4a1.31,1.31,0,0,1-.32.47,1.07,1.07,0,0,1-.79.25Zm7.74-9.39h7.45L76,236.34Z"/><path class="cls-2" d="M92.24,256.1a.87.87,0,0,1-.65-.25.88.88,0,0,1-.25-.65V231.81a.86.86,0,0,1,.9-.9h9.53a11,11,0,0,1,7.09,2.07,7.16,7.16,0,0,1,2.59,6,7.28,7.28,0,0,1-1.26,4.39,7.47,7.47,0,0,1-3.38,2.63l5.08,9a.87.87,0,0,1,.1.39.77.77,0,0,1-.21.53.73.73,0,0,1-.54.23h-4a1.27,1.27,0,0,1-1-.34,3.19,3.19,0,0,1-.47-.63l-4.39-8.24H97.06v8.31a.92.92,0,0,1-.25.65.88.88,0,0,1-.65.25Zm4.82-13.78h4.61a4.14,4.14,0,0,0,2.93-.9,3.32,3.32,0,0,0,1-2.52,3.49,3.49,0,0,0-.93-2.56,4.06,4.06,0,0,0-3-.93H97.06Z"/><path class="cls-2" d="M116.78,256.1a.88.88,0,0,1-.65-.25.92.92,0,0,1-.25-.65V231.81a.91.91,0,0,1,.25-.65.88.88,0,0,1,.65-.25h9a14.08,14.08,0,0,1,6,1.13,8.24,8.24,0,0,1,3.68,3.31,10.81,10.81,0,0,1,1.35,5.38c0,1.06,0,2,0,2.77s0,1.71,0,2.74a12,12,0,0,1-1.33,5.54,7.49,7.49,0,0,1-3.6,3.26A14.52,14.52,0,0,1,126,256.1Zm4.82-4.64h4.22a7,7,0,0,0,3-.54,3.55,3.55,0,0,0,1.71-1.71,7.6,7.6,0,0,0,.59-3c0-.7,0-1.32.05-1.87s0-1.11,0-1.66,0-1.16-.05-1.84a5.52,5.52,0,0,0-1.39-4,5.61,5.61,0,0,0-4.05-1.28h-4Z"/><path class="cls-2" d="M142.3,256.1a.87.87,0,0,1-.65-.25.88.88,0,0,1-.25-.65V231.81a.86.86,0,0,1,.9-.9h4.07a.84.84,0,0,1,.64.25.87.87,0,0,1,.26.65V255.2a.89.89,0,0,1-.26.65.84.84,0,0,1-.64.25Z"/><path class="cls-2" d="M153.49,256.1a.88.88,0,0,1-.65-.25.92.92,0,0,1-.25-.65V231.81a.91.91,0,0,1,.25-.65.88.88,0,0,1,.65-.25h3.28a1.07,1.07,0,0,1,.79.25,1.94,1.94,0,0,1,.32.39l9.61,15V231.81a.91.91,0,0,1,.25-.65.83.83,0,0,1,.62-.25H172a.84.84,0,0,1,.64.25.87.87,0,0,1,.26.65V255.2a.89.89,0,0,1-.26.63.82.82,0,0,1-.64.27h-3.31a1,1,0,0,1-.78-.27c-.15-.18-.27-.31-.34-.38L158,240.91V255.2a.89.89,0,0,1-.26.65.84.84,0,0,1-.64.25Z"/><path class="cls-2" d="M179.15,256.1a.84.84,0,0,1-.64-.25.89.89,0,0,1-.26-.65V231.81a.87.87,0,0,1,.26-.65.84.84,0,0,1,.64-.25h16.31a.84.84,0,0,1,.64.25.87.87,0,0,1,.26.65v2.88a.83.83,0,0,1-.26.61.84.84,0,0,1-.64.25H183.8v5.65h10.87a.86.86,0,0,1,.64.25.89.89,0,0,1,.26.65v2.66a.82.82,0,0,1-.26.61.87.87,0,0,1-.64.26H183.8v5.83h11.94a.86.86,0,0,1,.9.9v2.84a.88.88,0,0,1-.25.65.87.87,0,0,1-.65.25Z"/><path class="cls-2" d="M201.83,256.1a.87.87,0,0,1-.65-.25.88.88,0,0,1-.25-.65V231.81a.86.86,0,0,1,.9-.9h9.53a11,11,0,0,1,7.09,2.07,7.16,7.16,0,0,1,2.6,6,7.35,7.35,0,0,1-1.26,4.39A7.55,7.55,0,0,1,216.4,246l5.08,9a.89.89,0,0,1,.11.39.79.79,0,0,1-.22.53.71.71,0,0,1-.54.23h-4a1.27,1.27,0,0,1-1-.34,3.19,3.19,0,0,1-.47-.63L211,246.89h-4.35v8.31a.86.86,0,0,1-.9.9Zm4.82-13.78h4.61a4.14,4.14,0,0,0,2.93-.9,3.28,3.28,0,0,0,.95-2.52,3.49,3.49,0,0,0-.93-2.56,4.06,4.06,0,0,0-3-.93h-4.61Z"/><path class="cls-2" d="M226.37,256.1a.88.88,0,0,1-.65-.25.92.92,0,0,1-.25-.65V231.81a.91.91,0,0,1,.25-.65.88.88,0,0,1,.65-.25h4.07a.88.88,0,0,1,.65.25.91.91,0,0,1,.25.65V255.2a.92.92,0,0,1-.25.65.88.88,0,0,1-.65.25Zm.11-27a.52.52,0,0,1-.58-.58.64.64,0,0,1,.18-.47l3.06-3.7a1.76,1.76,0,0,1,.6-.56,1.65,1.65,0,0,1,.73-.13h4.43q.69,0,.69.72a.62.62,0,0,1-.18.43l-4.65,3.78a2.1,2.1,0,0,1-.57.38,1.85,1.85,0,0,1-.76.13Z"/><path class="cls-2" d="M235.19,256.1a.71.71,0,0,1-.54-.23.79.79,0,0,1-.22-.53,1.55,1.55,0,0,1,0-.32L243,231.88a1.37,1.37,0,0,1,.43-.69,1.29,1.29,0,0,1,.9-.28H249a1.29,1.29,0,0,1,.9.28,1.46,1.46,0,0,1,.44.69L258.87,255a1.08,1.08,0,0,1,0,.32.79.79,0,0,1-.22.53.71.71,0,0,1-.54.23h-3.74a1.06,1.06,0,0,1-.79-.25,1.35,1.35,0,0,1-.33-.47l-1.55-4H241.6l-1.55,4a1.35,1.35,0,0,1-.33.47,1.06,1.06,0,0,1-.79.25Zm7.74-9.39h7.45l-3.71-10.37Z"/></svg>