<?xml version="1.0" encoding="utf-8"?>
<!-- Generator: Adobe Illustrator 24.0.0, SVG Export Plug-In . SVG Version: 6.00 Build 0)  -->
<svg version="1.1" id="Capa_1" xmlns="http://www.w3.org/2000/svg" xmlns:xlink="http://www.w3.org/1999/xlink" x="0px" y="0px"
	 viewBox="0 0 300 300" style="enable-background:new 0 0 300 300;" xml:space="preserve">
<style type="text/css">
	.st0{fill:#FF3333;}
	.st1{fill:#F2F2F2;}
</style>
<title>equipos-icons</title>
<g>
	<path class="st0" d="M28.4,8h243.2c11.3,0,20.4,9.1,20.4,20.4v243.2c0,11.3-9.1,20.4-20.4,20.4H28.4C17.1,292,8,282.9,8,271.6V28.4
		C8,17.1,17.1,8,28.4,8z"/>
	<path class="st1" d="M36.5,26.1h226.9c5.6,0,10.1,4.5,10.1,10.1v143.9c0,5.6-4.5,10.1-10.1,10.1H36.5c-5.6,0-10.1-4.5-10.1-10.1
		V36.3C26.4,30.7,31,26.1,36.5,26.1z"/>
	<g>
		<path class="st1" d="M123.8,233.6c-1.3,0-2.4-0.2-3.4-0.7s-1.8-1.2-2.4-2s-0.9-1.8-0.9-2.8c0-1.7,0.7-3,2.1-4s3.2-1.7,5.4-2
			l4.9-0.7v-0.8c0-1-0.3-1.8-0.8-2.3c-0.5-0.6-1.4-0.8-2.6-0.8c-0.9,0-1.6,0.2-2.1,0.5s-0.9,0.8-1.2,1.4c-0.2,0.3-0.5,0.5-0.8,0.5
			h-2.9c-0.3,0-0.5-0.1-0.6-0.2c-0.1-0.1-0.2-0.3-0.2-0.6c0-0.4,0.2-0.9,0.5-1.4c0.3-0.6,0.8-1.1,1.4-1.6s1.4-1,2.4-1.3
			c1-0.4,2.2-0.5,3.6-0.5c1.5,0,2.8,0.2,3.8,0.6c1,0.4,1.9,0.9,2.5,1.5s1.1,1.4,1.4,2.2c0.3,0.8,0.4,1.7,0.4,2.7v11.3
			c0,0.2-0.1,0.4-0.3,0.6c-0.2,0.2-0.4,0.3-0.6,0.3h-2.9c-0.3,0-0.5-0.1-0.6-0.3c-0.2-0.2-0.2-0.4-0.2-0.6v-1.4
			c-0.3,0.4-0.7,0.9-1.3,1.3c-0.5,0.4-1.2,0.7-1.9,1C125.8,233.4,124.9,233.6,123.8,233.6z M125.1,230.1c0.8,0,1.6-0.2,2.3-0.5
			c0.7-0.4,1.2-0.9,1.6-1.7s0.6-1.7,0.6-2.9v-0.8l-3.6,0.6c-1.4,0.2-2.5,0.6-3.2,1c-0.7,0.5-1,1.1-1,1.8c0,0.5,0.2,1,0.5,1.4
			s0.7,0.6,1.2,0.8C124,230,124.5,230.1,125.1,230.1z"/>
		<path class="st1" d="M139.9,233.2c-0.2,0-0.4-0.1-0.6-0.3c-0.2-0.2-0.3-0.4-0.3-0.6v-17c0-0.2,0.1-0.4,0.3-0.6
			c0.2-0.2,0.4-0.3,0.6-0.3h3c0.2,0,0.4,0.1,0.6,0.3c0.2,0.2,0.3,0.4,0.3,0.6v1.5c0.6-0.8,1.4-1.4,2.4-1.9s2.2-0.8,3.6-0.8
			c1.5,0,2.7,0.3,3.8,1s1.9,1.6,2.5,2.8s0.9,2.6,0.9,4.3v10.1c0,0.2-0.1,0.4-0.3,0.6c-0.2,0.2-0.4,0.3-0.6,0.3h-3.2
			c-0.2,0-0.4-0.1-0.6-0.3c-0.2-0.2-0.3-0.4-0.3-0.6v-9.9c0-1.4-0.3-2.5-1-3.3s-1.7-1.2-3-1.2s-2.3,0.4-3,1.2s-1.1,1.9-1.1,3.3v9.9
			c0,0.2-0.1,0.4-0.3,0.6c-0.2,0.2-0.4,0.3-0.6,0.3L139.9,233.2L139.9,233.2z"/>
		<path class="st1" d="M169.8,233.2c-1.4,0-2.7-0.3-3.6-0.8c-1-0.5-1.7-1.3-2.2-2.3s-0.7-2.2-0.7-3.7v-8.2h-2.9
			c-0.2,0-0.4-0.1-0.6-0.3c-0.2-0.2-0.3-0.4-0.3-0.6v-2.1c0-0.2,0.1-0.4,0.3-0.6c0.2-0.2,0.4-0.3,0.6-0.3h2.9v-6
			c0-0.2,0.1-0.4,0.2-0.6c0.2-0.2,0.4-0.3,0.6-0.3h2.9c0.2,0,0.4,0.1,0.6,0.3c0.2,0.2,0.3,0.4,0.3,0.6v6h4.5c0.2,0,0.4,0.1,0.6,0.3
			c0.2,0.2,0.3,0.4,0.3,0.6v2.1c0,0.3-0.1,0.5-0.3,0.6c-0.2,0.2-0.4,0.3-0.6,0.3h-4.5v7.8c0,1,0.2,1.8,0.5,2.3
			c0.3,0.6,1,0.8,1.8,0.8h2.5c0.2,0,0.4,0.1,0.6,0.3c0.2,0.2,0.3,0.4,0.3,0.6v2.2c0,0.2-0.1,0.4-0.3,0.6c-0.2,0.2-0.4,0.3-0.6,0.3
			L169.8,233.2L169.8,233.2z"/>
		<path class="st1" d="M177.5,211.3c-0.2,0-0.4-0.1-0.6-0.3c-0.2-0.2-0.3-0.4-0.3-0.6v-2.6c0-0.2,0.1-0.4,0.3-0.6
			c0.2-0.2,0.4-0.3,0.6-0.3h3.3c0.3,0,0.5,0.1,0.6,0.3c0.2,0.2,0.3,0.4,0.3,0.6v2.6c0,0.2-0.1,0.4-0.3,0.6c-0.2,0.2-0.4,0.3-0.6,0.3
			H177.5z M177.7,233.2c-0.2,0-0.4-0.1-0.6-0.3c-0.2-0.2-0.3-0.4-0.3-0.6v-17c0-0.2,0.1-0.4,0.3-0.6c0.2-0.2,0.4-0.3,0.6-0.3h3
			c0.3,0,0.5,0.1,0.6,0.3c0.2,0.2,0.2,0.4,0.2,0.6v17c0,0.2-0.1,0.4-0.2,0.6c-0.2,0.2-0.4,0.3-0.6,0.3H177.7z"/>
		<path class="st1" d="M68.5,248.4c-0.2,0-0.4-0.1-0.6-0.3s-0.3-0.4-0.3-0.6V245c0-0.2,0.1-0.4,0.3-0.6c0.2-0.2,0.4-0.3,0.6-0.3h3.3
			c0.3,0,0.5,0.1,0.7,0.3s0.3,0.4,0.3,0.6v2.6c0,0.2-0.1,0.4-0.3,0.6c-0.2,0.2-0.4,0.3-0.7,0.3h-3.3V248.4z M68.7,270.3
			c-0.2,0-0.4-0.1-0.6-0.3c-0.2-0.2-0.3-0.4-0.3-0.6v-17c0-0.2,0.1-0.4,0.3-0.6c0.2-0.2,0.4-0.3,0.6-0.3h3c0.3,0,0.5,0.1,0.6,0.3
			c0.2,0.2,0.2,0.4,0.2,0.6v17c0,0.2-0.1,0.4-0.2,0.6c-0.2,0.2-0.4,0.3-0.6,0.3H68.7z"/>
		<path class="st1" d="M78.9,270.3c-0.2,0-0.4-0.1-0.6-0.3c-0.2-0.2-0.3-0.4-0.3-0.6v-17c0-0.2,0.1-0.4,0.3-0.6
			c0.2-0.2,0.4-0.3,0.6-0.3h3c0.2,0,0.4,0.1,0.6,0.3s0.3,0.4,0.3,0.6v1.5c0.6-0.8,1.4-1.4,2.4-1.9s2.2-0.8,3.6-0.8
			c1.5,0,2.7,0.3,3.8,1c1.1,0.7,1.9,1.6,2.5,2.8c0.6,1.2,0.9,2.6,0.9,4.3v10.1c0,0.2-0.1,0.4-0.3,0.6c-0.2,0.2-0.4,0.3-0.6,0.3H92
			c-0.2,0-0.4-0.1-0.6-0.3c-0.2-0.2-0.3-0.4-0.3-0.6v-9.9c0-1.4-0.3-2.5-1-3.3c-0.7-0.8-1.7-1.2-3-1.2s-2.3,0.4-3,1.2
			c-0.7,0.8-1.1,1.9-1.1,3.3v9.9c0,0.2-0.1,0.4-0.3,0.6c-0.2,0.2-0.4,0.3-0.6,0.3H78.9z"/>
		<path class="st1" d="M108.7,270.7c-1.7,0-3.3-0.3-4.6-1c-1.3-0.6-2.3-1.6-3.1-2.8c-0.7-1.2-1.1-2.7-1.2-4.5c0-0.4,0-0.8,0-1.4
			s0-1.1,0-1.5c0.1-1.8,0.5-3.3,1.2-4.5c0.7-1.2,1.8-2.2,3.1-2.8c1.3-0.6,2.8-1,4.6-1c1.5,0,2.9,0.2,3.9,0.6c1.1,0.4,2,1,2.7,1.6
			c0.7,0.7,1.2,1.3,1.6,2.1c0.3,0.7,0.5,1.4,0.6,1.9c0,0.3-0.1,0.5-0.2,0.6c-0.2,0.2-0.4,0.2-0.6,0.2h-3.2c-0.2,0-0.4-0.1-0.6-0.2
			c-0.1-0.1-0.3-0.3-0.4-0.5c-0.4-1-0.8-1.6-1.4-2s-1.3-0.6-2.3-0.6c-1.2,0-2.2,0.4-2.9,1.1c-0.7,0.8-1.1,2-1.1,3.6
			c0,0.9,0,1.8,0,2.5c0,1.7,0.4,2.9,1.1,3.6s1.7,1.1,2.9,1.1c0.9,0,1.7-0.2,2.3-0.6c0.6-0.4,1-1.1,1.4-2c0.1-0.2,0.2-0.4,0.4-0.5
			c0.1-0.1,0.3-0.2,0.6-0.2h3.2c0.2,0,0.5,0.1,0.6,0.2c0.2,0.2,0.3,0.4,0.2,0.6c0,0.4-0.1,0.9-0.3,1.5c-0.2,0.5-0.5,1.1-1,1.7
			s-1,1.1-1.7,1.6s-1.5,0.8-2.4,1.1C111.1,270.5,110,270.7,108.7,270.7z"/>
		<path class="st1" d="M129.3,270.7c-2.7,0-4.8-0.8-6.4-2.3s-2.4-3.7-2.5-6.6c0-0.2,0-0.5,0-0.9s0-0.7,0-0.9
			c0.1-1.8,0.5-3.4,1.2-4.7s1.8-2.3,3-3c1.3-0.7,2.8-1.1,4.6-1.1c1.9,0,3.6,0.4,4.9,1.2c1.3,0.8,2.3,1.9,3,3.4c0.7,1.4,1,3.1,1,5
			v0.8c0,0.2-0.1,0.4-0.3,0.6s-0.4,0.3-0.7,0.3h-12c0,0.1,0,0.2,0,0.3c0,0.8,0.2,1.6,0.5,2.3c0.3,0.7,0.7,1.3,1.3,1.7
			c0.6,0.4,1.3,0.7,2.1,0.7c0.7,0,1.2-0.1,1.7-0.3c0.5-0.2,0.8-0.4,1.1-0.7c0.3-0.3,0.5-0.5,0.6-0.7c0.2-0.3,0.4-0.5,0.5-0.5
			c0.1-0.1,0.3-0.1,0.6-0.1h3.1c0.2,0,0.4,0.1,0.6,0.2c0.2,0.1,0.2,0.3,0.2,0.5c0,0.4-0.2,0.9-0.6,1.4s-0.9,1.1-1.6,1.6
			c-0.7,0.5-1.6,1-2.6,1.3C131.8,270.5,130.6,270.7,129.3,270.7z M125.3,259.3h8v-0.1c0-0.9-0.2-1.8-0.5-2.5
			c-0.3-0.7-0.8-1.3-1.4-1.7c-0.6-0.4-1.3-0.6-2.2-0.6c-0.8,0-1.6,0.2-2.2,0.6c-0.6,0.4-1.1,1-1.4,1.7c-0.3,0.7-0.5,1.5-0.5,2.5v0.1
			H125.3z"/>
		<path class="st1" d="M142.9,270.3c-0.2,0-0.4-0.1-0.6-0.3c-0.2-0.2-0.3-0.4-0.3-0.6v-17c0-0.2,0.1-0.4,0.3-0.6
			c0.2-0.2,0.4-0.3,0.6-0.3h3c0.2,0,0.4,0.1,0.6,0.3c0.2,0.2,0.3,0.4,0.3,0.6v1.5c0.6-0.8,1.4-1.4,2.4-1.9s2.2-0.8,3.6-0.8
			c1.5,0,2.7,0.3,3.8,1s1.9,1.6,2.5,2.8c0.6,1.2,0.9,2.6,0.9,4.3v10.1c0,0.2-0.1,0.4-0.3,0.6s-0.4,0.3-0.6,0.3h-3.2
			c-0.2,0-0.4-0.1-0.6-0.3c-0.2-0.2-0.3-0.4-0.3-0.6v-9.9c0-1.4-0.3-2.5-1-3.3c-0.7-0.8-1.7-1.2-3-1.2s-2.3,0.4-3,1.2
			c-0.7,0.8-1.1,1.9-1.1,3.3v9.9c0,0.2-0.1,0.4-0.3,0.6s-0.4,0.3-0.6,0.3H142.9z"/>
		<path class="st1" d="M171.5,270.7c-1.3,0-2.4-0.2-3.3-0.6c-1-0.4-1.7-1-2.4-1.8c-0.6-0.8-1.1-1.7-1.4-2.7c-0.3-1-0.5-2.2-0.6-3.4
			c0-0.4,0-0.8,0-1.2c0-0.3,0-0.7,0-1.2c0-1.2,0.2-2.3,0.6-3.4c0.3-1,0.8-1.9,1.4-2.7s1.4-1.4,2.4-1.8c1-0.4,2.1-0.6,3.3-0.6
			c1.3,0,2.4,0.2,3.3,0.7c0.9,0.4,1.7,1,2.3,1.7v-8c0-0.2,0.1-0.4,0.2-0.6c0.2-0.2,0.4-0.3,0.6-0.3h3.1c0.2,0,0.4,0.1,0.6,0.3
			c0.2,0.2,0.3,0.4,0.3,0.6v23.9c0,0.2-0.1,0.4-0.3,0.6s-0.4,0.3-0.6,0.3h-2.9c-0.3,0-0.5-0.1-0.6-0.3c-0.2-0.2-0.2-0.4-0.2-0.6
			v-1.3c-0.6,0.7-1.4,1.4-2.3,1.8C174.1,270.4,172.9,270.7,171.5,270.7z M172.9,266.8c1,0,1.8-0.2,2.4-0.7c0.6-0.5,1-1,1.3-1.8
			c0.3-0.7,0.4-1.4,0.5-2.2c0-0.4,0-0.9,0-1.4s0-1,0-1.4c0-0.7-0.2-1.4-0.5-2.1s-0.8-1.2-1.4-1.6c-0.6-0.4-1.4-0.6-2.3-0.6
			c-1,0-1.8,0.2-2.4,0.7c-0.6,0.4-1,1-1.3,1.8c-0.3,0.7-0.4,1.5-0.5,2.4c0,0.7,0,1.4,0,2.2c0,0.9,0.2,1.7,0.5,2.4
			c0.3,0.7,0.7,1.3,1.3,1.8C171.1,266.6,171.9,266.8,172.9,266.8z"/>
		<path class="st1" d="M187.4,248.4c-0.2,0-0.4-0.1-0.6-0.3c-0.2-0.2-0.3-0.4-0.3-0.6V245c0-0.2,0.1-0.4,0.3-0.6
			c0.2-0.2,0.4-0.3,0.6-0.3h3.3c0.3,0,0.5,0.1,0.6,0.3c0.2,0.2,0.3,0.4,0.3,0.6v2.6c0,0.2-0.1,0.4-0.3,0.6c-0.2,0.2-0.4,0.3-0.6,0.3
			h-3.3V248.4z M187.6,270.3c-0.2,0-0.4-0.1-0.6-0.3c-0.2-0.2-0.3-0.4-0.3-0.6v-17c0-0.2,0.1-0.4,0.3-0.6c0.2-0.2,0.4-0.3,0.6-0.3h3
			c0.3,0,0.5,0.1,0.6,0.3c0.2,0.2,0.2,0.4,0.2,0.6v17c0,0.2-0.1,0.4-0.2,0.6c-0.2,0.2-0.4,0.3-0.6,0.3H187.6z"/>
		<path class="st1" d="M204.6,270.7c-1.9,0-3.5-0.3-4.9-1c-1.3-0.7-2.3-1.6-3-2.9c-0.7-1.2-1.1-2.7-1.2-4.3c0-0.4,0-1,0-1.6
			s0-1.2,0-1.6c0.1-1.7,0.5-3.1,1.2-4.3s1.7-2.2,3-2.8c1.3-0.7,2.9-1,4.8-1c1.9,0,3.5,0.3,4.8,1s2.3,1.6,3,2.8s1.1,2.7,1.2,4.3
			c0,0.4,0,1,0,1.6s0,1.2,0,1.6c-0.1,1.6-0.5,3.1-1.2,4.3c-0.7,1.2-1.7,2.2-3,2.9C208.2,270.3,206.6,270.7,204.6,270.7z
			 M204.6,267.1c1.3,0,2.3-0.4,3-1.2c0.7-0.8,1.1-2,1.2-3.6c0-0.4,0-0.8,0-1.4s0-1,0-1.4c-0.1-1.6-0.5-2.7-1.2-3.6
			c-0.7-0.8-1.7-1.2-3-1.2s-2.3,0.4-3,1.2c-0.7,0.8-1.1,2-1.2,3.6c0,0.4,0,0.8,0,1.4s0,1,0,1.4c0.1,1.6,0.5,2.8,1.2,3.6
			C202.4,266.7,203.4,267.1,204.6,267.1z"/>
		<path class="st1" d="M224.8,270.7c-1.4,0-2.7-0.2-3.7-0.5s-1.9-0.8-2.5-1.3s-1.1-1-1.4-1.5c-0.3-0.5-0.5-0.9-0.5-1.3
			c0-0.3,0.1-0.5,0.2-0.6c0.2-0.2,0.4-0.2,0.6-0.2h2.9c0.1,0,0.2,0,0.3,0s0.2,0.1,0.3,0.2c0.3,0.3,0.6,0.5,1,0.8
			c0.3,0.3,0.8,0.5,1.2,0.7c0.5,0.2,1.1,0.3,1.8,0.3c0.9,0,1.7-0.2,2.4-0.6c0.6-0.4,1-0.9,1-1.6c0-0.5-0.1-0.9-0.4-1.2
			c-0.3-0.3-0.8-0.6-1.5-0.8c-0.7-0.3-1.8-0.5-3.2-0.8c-1.3-0.3-2.5-0.7-3.4-1.2s-1.6-1.1-2-1.8c-0.4-0.7-0.6-1.6-0.6-2.5
			s0.3-1.8,0.8-2.7c0.6-0.9,1.4-1.6,2.5-2.1c1.1-0.6,2.5-0.8,4.2-0.8c1.3,0,2.4,0.2,3.4,0.5s1.8,0.7,2.4,1.2c0.6,0.5,1.1,1,1.5,1.5
			c0.3,0.5,0.5,0.9,0.5,1.3c0,0.3,0,0.5-0.2,0.6c-0.2,0.2-0.4,0.2-0.6,0.2H229c-0.1,0-0.2,0-0.3-0.1c-0.1,0-0.2-0.1-0.3-0.2
			c-0.3-0.2-0.6-0.5-0.9-0.8c-0.3-0.3-0.7-0.5-1.1-0.7c-0.4-0.2-1-0.3-1.8-0.3c-0.9,0-1.6,0.2-2.1,0.6c-0.5,0.4-0.7,0.9-0.7,1.5
			c0,0.4,0.1,0.8,0.3,1.1c0.2,0.3,0.7,0.6,1.4,0.8c0.7,0.3,1.8,0.5,3.2,0.8c1.6,0.3,2.9,0.7,3.8,1.3c1,0.6,1.6,1.2,2,1.9
			c0.4,0.7,0.6,1.5,0.6,2.4c0,1.1-0.3,2.1-1,2.9c-0.6,0.9-1.6,1.5-2.8,2C228.2,270.4,226.7,270.7,224.8,270.7z"/>
	</g>
</g>
<g>
	<path class="st0" d="M134.1,50.7c-2.5-2.1-6.2-1.8-8.3,0.6c-1.1,1.2-1.6,2.9-1.4,4.6c2.5,22.2-3.3,31.5-9.5,41.4
		c-4.1,6.7-8.4,13.5-9.9,23.8c-4.4,29.9,20,40.8,31.6,45.9l1.8,0.8c1.8,0.9,3.9,0.7,5.6-0.4c1.7-1.1,2.7-3,2.7-5
		c0-7.7,4.6-15.2,9.3-23c4.1-6.7,8.3-13.7,10.2-21.5C169,105.7,168.7,80.7,134.1,50.7L134.1,50.7z M154.7,115.2
		c-1.4,6-4.9,11.8-8.8,18c-3.9,6.5-8,13.1-9.9,20.4c-12.3-6.1-21.9-13.9-19.5-30.9c1.1-7.9,4.5-13.1,8.2-19.3
		c5.2-8.3,10.9-17.6,11.7-33.9C156.3,90.7,156.6,106.9,154.7,115.2L154.7,115.2z"/>
	<path class="st0" d="M172.9,146.2c6.7-9.9,10.3-20.5,11.4-27.1c3-17.5-2.8-37.2-15.9-53.8c-2-2.5-5.8-3-8.3-0.9c-2.5,2-3,5.6-1,8.2
		c11,14.1,16,30.3,13.5,44.5c-0.9,5.2-3.9,14.1-9.6,22.4c-1.8,2.7-1.1,6.4,1.6,8.2S171,148.9,172.9,146.2L172.9,146.2z"/>
	<path class="st0" d="M191.5,131.3c-3.1-1-6.4,0.7-7.4,3.9l0,0c-3.5,10.9-10.6,17.8-17.1,23.1c-2.5,2.1-2.9,5.8-0.8,8.3
		c2.1,2.5,5.8,2.9,8.3,0.8c7.4-6,16.4-14.8,20.9-28.7C196.3,135.6,194.6,132.3,191.5,131.3L191.5,131.3z"/>
</g>
</svg>
