<svg id="Capa_1" data-name="Capa 1" xmlns="http://www.w3.org/2000/svg" viewBox="0 0 300 300"><defs><style>.cls-1{fill:#f14950;}.cls-2{fill:#f2f2f2;}</style></defs><title>equipos-icons</title><rect class="cls-1" x="8" y="8" width="284" height="284" rx="10.1"/><rect class="cls-2" x="17.5" y="18" width="265" height="176" rx="5"/><path class="cls-1" d="M131.76,38.39a6.75,6.75,0,0,0-11.13,5.85c2.78,25.31-3.8,35.94-10.77,47.19-4.69,7.59-9.55,15.44-11.27,27.16-5,34.06,22.75,46.47,36.08,52.43l2.11.95a6.72,6.72,0,0,0,6.45-.47,6.74,6.74,0,0,0,3.09-5.67c0-8.84,5.16-17.31,10.62-26.27,4.66-7.65,9.48-15.57,11.56-24.51,3.25-14,2.79-42.46-36.74-76.66Zm23.6,73.6c-1.59,6.83-5.65,13.5-10,20.55-4.49,7.37-9.09,14.92-11.27,23.33-14-7-25-15.92-22.2-35.32,1.32-9,5.07-15,9.4-22,5.9-9.53,12.42-20.07,13.33-38.72,22.58,24.1,22.91,42.62,20.69,52.17Z"/><path class="cls-1" d="M176.1,147.25c7.64-11.31,11.73-23.38,13-30.91,3.41-20-3.17-42.36-18.07-61.4a6.75,6.75,0,0,0-10.63,8.32C173,79.31,178.58,97.82,175.8,114.07c-1,5.86-4.45,16.08-10.89,25.62a6.75,6.75,0,0,0,11.19,7.56Z"/><path class="cls-1" d="M197.31,130.29a6.74,6.74,0,0,0-8.48,4.38c-4,12.36-12.09,20.27-19.51,26.36a6.75,6.75,0,0,0,8.57,10.44c8.42-6.92,18.74-16.89,23.8-32.69a6.77,6.77,0,0,0-4.38-8.49Z"/><path class="cls-2" d="M18.68,253.28a.64.64,0,0,1-.49-.21.67.67,0,0,1-.19-.47,1.29,1.29,0,0,1,0-.29l7.66-20.69a1.24,1.24,0,0,1,.38-.61,1.21,1.21,0,0,1,.81-.25H31a1.16,1.16,0,0,1,.8.25,1.33,1.33,0,0,1,.39.61l7.65,20.69a.88.88,0,0,1,0,.29.69.69,0,0,1-.2.47.61.61,0,0,1-.48.21H35.86a1,1,0,0,1-.71-.23,1.1,1.1,0,0,1-.29-.42L33.47,249H24.4L23,252.63a1.1,1.1,0,0,1-.29.42,1,1,0,0,1-.71.23Zm6.91-8.4h6.66l-3.31-9.27Z"/><path class="cls-2" d="M43.45,253.28a.79.79,0,0,1-.81-.81V231.56a.77.77,0,0,1,.81-.8h2.93a1,1,0,0,1,.7.22,1.66,1.66,0,0,1,.29.35L56,244.75V231.56a.78.78,0,0,1,.23-.58.73.73,0,0,1,.54-.22H60a.79.79,0,0,1,.58.22.82.82,0,0,1,.22.58v20.91a.82.82,0,0,1-.22.56.78.78,0,0,1-.58.25h-3a.85.85,0,0,1-.69-.25c-.14-.16-.25-.27-.31-.33l-8.56-13v12.77a.78.78,0,0,1-.22.58.8.8,0,0,1-.58.23Z"/><path class="cls-2" d="M71.34,253.28a.77.77,0,0,1-.8-.81V235.23H64.68a.76.76,0,0,1-.55-.23.74.74,0,0,1-.22-.55v-2.89a.78.78,0,0,1,.22-.58.75.75,0,0,1,.55-.22H81.54a.76.76,0,0,1,.8.8v2.89a.74.74,0,0,1-.22.55.78.78,0,0,1-.58.23H75.72v17.24a.79.79,0,0,1-.81.81Z"/><path class="cls-2" d="M86.24,253.28a.79.79,0,0,1-.81-.81V231.56a.77.77,0,0,1,.81-.8h3.63a.76.76,0,0,1,.8.8v20.91a.77.77,0,0,1-.8.81Z"/><path class="cls-2" d="M95.63,245.68a.75.75,0,0,1-.77-.77v-2.57a.74.74,0,0,1,.22-.55.75.75,0,0,1,.55-.23h10a.79.79,0,0,1,.77.78v2.57a.75.75,0,0,1-.23.55.73.73,0,0,1-.54.22Z"/><path class="cls-2" d="M111.39,253.28a.8.8,0,0,1-.58-.23.78.78,0,0,1-.22-.58V231.56a.78.78,0,0,1,.22-.58.79.79,0,0,1,.58-.22H115a.79.79,0,0,1,.58.22.78.78,0,0,1,.22.58v20.91a.78.78,0,0,1-.22.58.8.8,0,0,1-.58.23Z"/><path class="cls-2" d="M121.4,253.28a.79.79,0,0,1-.81-.81V231.56a.77.77,0,0,1,.81-.8h2.93a1,1,0,0,1,.71.22,1.88,1.88,0,0,1,.28.35l8.59,13.42V231.56a.78.78,0,0,1,.23-.58.74.74,0,0,1,.55-.22H138a.79.79,0,0,1,.58.22.78.78,0,0,1,.22.58v20.91a.8.8,0,0,1-.8.81h-3a.88.88,0,0,1-.69-.25c-.14-.16-.25-.27-.31-.33l-8.56-13v12.77a.78.78,0,0,1-.22.58.8.8,0,0,1-.58.23Z"/><path class="cls-2" d="M152.48,253.6a11.67,11.67,0,0,1-5.13-1,7.4,7.4,0,0,1-3.27-3,10.1,10.1,0,0,1-1.29-4.74c0-.88,0-1.82,0-2.83s0-2,0-2.9a9.86,9.86,0,0,1,1.31-4.71,7.67,7.67,0,0,1,3.29-3,11.67,11.67,0,0,1,5.09-1,13.4,13.4,0,0,1,3.92.55,9.06,9.06,0,0,1,3.06,1.58,7.26,7.26,0,0,1,2,2.41,7.42,7.42,0,0,1,.78,3.09.63.63,0,0,1-.21.48.71.71,0,0,1-.5.19h-3.67a.89.89,0,0,1-.61-.19,1.33,1.33,0,0,1-.36-.64,4.08,4.08,0,0,0-1.6-2.61,5.22,5.22,0,0,0-2.8-.71,4.44,4.44,0,0,0-3.16,1.1,5.1,5.1,0,0,0-1.25,3.63c-.06,1.76-.06,3.56,0,5.41a5.1,5.1,0,0,0,1.25,3.63,4.44,4.44,0,0,0,3.16,1.1,5.09,5.09,0,0,0,2.81-.73,4,4,0,0,0,1.59-2.59,1.27,1.27,0,0,1,.36-.66,1,1,0,0,1,.61-.17h3.67a.71.71,0,0,1,.5.19.63.63,0,0,1,.21.48,7.42,7.42,0,0,1-.78,3.09,7.26,7.26,0,0,1-2,2.41,9.06,9.06,0,0,1-3.06,1.58A13.4,13.4,0,0,1,152.48,253.6Z"/><path class="cls-2" d="M166.63,253.28a.8.8,0,0,1-.58-.23.78.78,0,0,1-.22-.58V231.56a.78.78,0,0,1,.22-.58.79.79,0,0,1,.58-.22h14.58a.79.79,0,0,1,.58.22.78.78,0,0,1,.22.58v2.57a.74.74,0,0,1-.22.55.8.8,0,0,1-.58.23H170.78V240h9.72a.79.79,0,0,1,.58.22.78.78,0,0,1,.22.58v2.38a.74.74,0,0,1-.22.55.79.79,0,0,1-.58.22h-9.72v5.21h10.68a.79.79,0,0,1,.81.81v2.54a.79.79,0,0,1-.81.81Z"/><path class="cls-2" d="M186.9,253.28a.77.77,0,0,1-.8-.81V231.56a.76.76,0,0,1,.8-.8h2.93a1,1,0,0,1,.71.22,2.06,2.06,0,0,1,.29.35l8.59,13.42V231.56a.78.78,0,0,1,.22-.58.74.74,0,0,1,.55-.22h3.28a.76.76,0,0,1,.8.8v20.91a.78.78,0,0,1-.22.56.76.76,0,0,1-.58.25h-3a.88.88,0,0,1-.69-.25,3.76,3.76,0,0,0-.31-.33l-8.56-13v12.77a.77.77,0,0,1-.8.81Z"/><path class="cls-2" d="M209.84,253.28a.79.79,0,0,1-.81-.81V231.56a.77.77,0,0,1,.81-.8h8.08a12.55,12.55,0,0,1,5.37,1,7.37,7.37,0,0,1,3.3,3,9.8,9.8,0,0,1,1.2,4.81c0,.94,0,1.77,0,2.47s0,1.53,0,2.45a10.8,10.8,0,0,1-1.19,5,6.77,6.77,0,0,1-3.22,2.91,13,13,0,0,1-5.3.95Zm4.31-4.16h3.77a6.21,6.21,0,0,0,2.63-.48,3.08,3.08,0,0,0,1.53-1.53,6.62,6.62,0,0,0,.53-2.71c0-.63,0-1.18,0-1.68s0-1,0-1.48,0-1,0-1.64a4.9,4.9,0,0,0-1.24-3.55,5,5,0,0,0-3.62-1.14h-3.6Z"/><path class="cls-2" d="M232.65,253.28a.79.79,0,0,1-.81-.81V231.56a.77.77,0,0,1,.81-.8h3.63a.77.77,0,0,1,.81.8v20.91a.79.79,0,0,1-.81.81Z"/><path class="cls-2" d="M250.79,253.6a12,12,0,0,1-5-1,7.32,7.32,0,0,1-3.31-2.91,10,10,0,0,1-1.29-4.91c0-.92,0-1.84,0-2.75s0-1.84,0-2.78a9.84,9.84,0,0,1,1.31-4.87,7.55,7.55,0,0,1,3.34-3,13,13,0,0,1,10,0,7.77,7.77,0,0,1,3.36,3,9.53,9.53,0,0,1,1.28,4.87c0,.94.07,1.87.07,2.78s0,1.83-.07,2.75a9.89,9.89,0,0,1-1.28,4.91,7.35,7.35,0,0,1-3.32,2.91A11.93,11.93,0,0,1,250.79,253.6Zm0-4.15a4.28,4.28,0,0,0,3.08-1.15,5,5,0,0,0,1.27-3.65c0-.94.06-1.83.06-2.65s0-1.7-.06-2.62a6,6,0,0,0-.61-2.74,3.72,3.72,0,0,0-1.53-1.56,4.74,4.74,0,0,0-2.21-.5,4.84,4.84,0,0,0-2.22.5,3.53,3.53,0,0,0-1.52,1.56,6.26,6.26,0,0,0-.63,2.74c0,.92,0,1.79,0,2.62s0,1.71,0,2.65a5.1,5.1,0,0,0,1.29,3.65A4.23,4.23,0,0,0,250.79,249.45Z"/><path class="cls-2" d="M272.57,253.6a13,13,0,0,1-5.16-.9,7.54,7.54,0,0,1-3.14-2.35,5.56,5.56,0,0,1-1.12-3.09.67.67,0,0,1,.19-.47.63.63,0,0,1,.48-.21h3.45a1,1,0,0,1,.64.18,2.45,2.45,0,0,1,.42.43,3.48,3.48,0,0,0,.72,1.07,3.87,3.87,0,0,0,1.37.85,6.1,6.1,0,0,0,2.15.34,5.86,5.86,0,0,0,3.14-.68,2.08,2.08,0,0,0,1.05-1.83,1.72,1.72,0,0,0-.57-1.35,5,5,0,0,0-1.77-.94c-.8-.28-1.87-.58-3.2-.9a18.28,18.28,0,0,1-4.1-1.33,6.15,6.15,0,0,1-2.54-2.13,6.3,6.3,0,0,1,.21-6.66,7,7,0,0,1,3-2.34,11.31,11.31,0,0,1,4.6-.86,11.65,11.65,0,0,1,3.81.58,8.8,8.8,0,0,1,2.77,1.51,7.21,7.21,0,0,1,1.69,2,4.53,4.53,0,0,1,.61,2.06.68.68,0,0,1-.68.67H277a1.37,1.37,0,0,1-.58-.12,1,1,0,0,1-.42-.46,2.45,2.45,0,0,0-1.14-1.46,4.36,4.36,0,0,0-2.46-.63,4.68,4.68,0,0,0-2.49.58,2,2,0,0,0-.92,1.77,1.89,1.89,0,0,0,.47,1.3,3.74,3.74,0,0,0,1.57.94c.74.27,1.73.56,2.95.88a22.1,22.1,0,0,1,4.6,1.39,5.82,5.82,0,0,1,2.6,2.07,5.71,5.71,0,0,1,.84,3.2,5.79,5.79,0,0,1-1.21,3.7,7.6,7.6,0,0,1-3.31,2.37A13.65,13.65,0,0,1,272.57,253.6Z"/></svg>