<?xml version="1.0" encoding="utf-8"?>
<!-- Generator: Adobe Illustrator 24.0.0, SVG Export Plug-In . SVG Version: 6.00 Build 0)  -->
<svg version="1.1" id="Capa_1" xmlns="http://www.w3.org/2000/svg" xmlns:xlink="http://www.w3.org/1999/xlink" x="0px" y="0px"
	 viewBox="0 0 283.46 55.86" style="enable-background:new 0 0 283.46 55.86;" xml:space="preserve">
<style type="text/css">
	.st0{fill:#1560A5;}
</style>
<g>
	<path class="st0" d="M22.53,40.75l-0.32-3.84c-0.21,0.32-0.57,0.73-1.08,1.24c-0.51,0.51-1.63,1.17-3.36,2
		c-1.73,0.83-3.61,1.24-5.63,1.24c-3.36,0-6.22-1.16-8.59-3.48C1.18,35.6,0,32.76,0,29.41c0-3.72,1.33-6.64,4-8.76
		c2.66-2.12,6.15-3.36,10.47-3.7l7.03-0.56v-2.8c0-1.6-0.45-2.89-1.36-3.88c-0.91-0.99-2.11-1.48-3.6-1.48
		c-1.44,0-2.65,0.41-3.64,1.24c-0.99,0.83-1.56,1.91-1.72,3.24H2.32c0-3.52,1.34-6.51,4.04-8.99C9.04,1.24,12.39,0,16.38,0
		c4.53,0,8.04,1.29,10.55,3.88c2.5,2.58,3.76,5.85,3.76,9.79v27.09H22.53z M14.38,33.64c1.76,0,3.38-0.63,4.87-1.89
		c1.49-1.26,2.24-2.56,2.24-3.9v-4.58l-6.4,0.51c-1.81,0.16-3.22,0.7-4.23,1.6c-1.01,0.91-1.52,2.14-1.52,3.69
		c0,1.18,0.45,2.23,1.36,3.17C11.61,33.17,12.84,33.64,14.38,33.64z"/>
	<path class="st0" d="M36.47,50.1l6.31-5.75c0.16,0.27,0.43,0.57,0.8,0.92c0.37,0.35,1.21,0.83,2.52,1.44
		c1.3,0.61,2.7,0.92,4.2,0.92c1.81,0,3.36-0.52,4.63-1.56c1.28-1.04,1.92-2.46,1.92-4.28v-5.51c-0.16,0.27-0.41,0.59-0.76,0.96
		c-0.35,0.37-1.17,0.88-2.48,1.52c-1.31,0.64-2.78,0.96-4.43,0.96c-3.78,0-6.95-1.24-9.51-3.72c-2.56-2.48-3.84-5.77-3.84-9.87
		V13.74c0-4,1.32-7.26,3.96-9.79c2.64-2.53,5.82-3.8,9.55-3.8c1.65,0,3.17,0.31,4.55,0.92c1.38,0.61,2.37,1.21,2.96,1.8l0.8,0.96
		L57.8,0.8h8.23v40.35c0,4.37-1.43,7.91-4.27,10.63c-2.85,2.72-6.54,4.08-11.07,4.08c-1.87,0-3.62-0.2-5.27-0.6
		c-1.65-0.4-3.01-0.88-4.08-1.44c-1.07-0.56-1.99-1.12-2.76-1.68c-0.77-0.56-1.32-1.05-1.64-1.48L36.47,50.1z M45.18,13.98v11.67
		c0,1.76,0.56,3.17,1.68,4.23c1.12,1.07,2.5,1.6,4.16,1.6c1.65,0,3.04-0.53,4.16-1.6c1.12-1.06,1.68-2.48,1.68-4.23V13.98
		c0-1.76-0.56-3.17-1.68-4.23c-1.12-1.06-2.53-1.6-4.24-1.6c-1.6,0-2.96,0.53-4.08,1.6C45.74,10.81,45.18,12.23,45.18,13.98z"/>
	<path class="st0" d="M94.68,1.44l-2.72,7.83c-1.07-0.59-2.48-0.88-4.24-0.88c-1.87,0-3.4,0.79-4.59,2.36
		c-1.2,1.57-1.8,3.88-1.8,6.91v23.09h-9.27V0.8h8.71l0.16,4.47c0.05-0.16,0.16-0.35,0.32-0.56c0.16-0.21,0.48-0.61,0.96-1.2
		c0.48-0.59,1-1.1,1.56-1.56c0.56-0.45,1.29-0.87,2.2-1.24c0.91-0.37,1.84-0.56,2.8-0.56c1.06,0,2.09,0.11,3.08,0.32
		c0.99,0.21,1.69,0.43,2.12,0.64L94.68,1.44z"/>
	<path class="st0" d="M125.37,13.66v14.22c0,3.89-1.37,7.14-4.12,9.75c-2.74,2.61-6.33,3.92-10.75,3.92c-4.47,0-8.1-1.3-10.87-3.92
		c-2.77-2.61-4.16-5.86-4.16-9.75V13.66c0-3.89,1.38-7.14,4.16-9.75C102.41,1.31,106.03,0,110.51,0c4.42,0,8,1.31,10.75,3.92
		C124,6.53,125.37,9.78,125.37,13.66z M116.18,27.41V14.14c0-1.76-0.56-3.17-1.68-4.24c-1.12-1.06-2.5-1.6-4.16-1.6
		c-1.65,0-3.04,0.53-4.16,1.6c-1.12,1.07-1.68,2.48-1.68,4.24v13.26c0,1.76,0.56,3.17,1.68,4.24c1.12,1.07,2.53,1.6,4.24,1.6
		c1.6,0,2.96-0.53,4.08-1.6C115.62,30.58,116.18,29.17,116.18,27.41z"/>
	<path class="st0" d="M169.39,40.75V14.06c0-1.54-0.43-2.84-1.28-3.88c-0.85-1.04-1.92-1.56-3.2-1.56c-1.6,0-2.94,0.56-4.04,1.68
		c-1.09,1.12-1.64,2.5-1.64,4.16v26.29h-9.19V14.06c0-1.54-0.43-2.85-1.28-3.92c-0.85-1.06-1.95-1.6-3.28-1.6
		c-1.49,0-2.8,0.59-3.92,1.76c-1.12,1.17-1.68,2.58-1.68,4.24v26.21h-9.19V0.8h8.63l0.4,3.92c0.21-0.32,0.53-0.73,0.96-1.24
		c0.43-0.51,1.37-1.18,2.84-2.04c1.46-0.85,3.02-1.28,4.67-1.28c1.49,0,2.88,0.33,4.16,1c1.28,0.67,2.16,1.35,2.64,2.04l0.8,0.96
		c0.32-0.32,0.75-0.69,1.28-1.12c0.53-0.43,1.64-1.01,3.32-1.76c1.68-0.75,3.37-1.12,5.07-1.12c3.78,0,6.91,1.28,9.39,3.84
		c2.48,2.56,3.72,5.86,3.72,9.91v26.85H169.39z"/>
	<path class="st0" d="M204.21,29.01h9.27c-0.43,3.78-2.05,6.82-4.87,9.11c-2.82,2.29-6.21,3.44-10.15,3.44
		c-4.37,0-7.94-1.3-10.71-3.92c-2.77-2.61-4.16-5.86-4.16-9.75V13.66c0-3.84,1.4-7.07,4.2-9.71c2.8-2.64,6.38-3.96,10.75-3.96
		c4.37,0,7.92,1.29,10.67,3.88c2.74,2.58,4.12,5.79,4.12,9.63v10.31H192.7v3.92c0,1.71,0.55,3.09,1.64,4.16
		c1.09,1.07,2.46,1.6,4.12,1.6c1.49,0,2.72-0.37,3.68-1.12c0.96-0.75,1.54-1.49,1.76-2.24L204.21,29.01z M192.7,13.66v2.56h11.59
		v-2.56c0-1.65-0.55-2.98-1.64-4c-1.09-1.01-2.46-1.52-4.11-1.52c-1.55,0-2.9,0.52-4.08,1.56C193.29,10.75,192.7,12.07,192.7,13.66z
		"/>
	<path class="st0" d="M218.89,50.1l6.31-5.75c0.16,0.27,0.43,0.57,0.8,0.92c0.37,0.35,1.21,0.83,2.52,1.44
		c1.3,0.61,2.7,0.92,4.2,0.92c1.81,0,3.36-0.52,4.63-1.56c1.28-1.04,1.92-2.46,1.92-4.28v-5.51c-0.16,0.27-0.41,0.59-0.76,0.96
		c-0.35,0.37-1.17,0.88-2.48,1.52c-1.31,0.64-2.78,0.96-4.43,0.96c-3.78,0-6.95-1.24-9.51-3.72c-2.56-2.48-3.84-5.77-3.84-9.87
		V13.74c0-4,1.32-7.26,3.96-9.79c2.64-2.53,5.82-3.8,9.55-3.8c1.65,0,3.17,0.31,4.55,0.92c1.38,0.61,2.37,1.21,2.96,1.8l0.8,0.96
		l0.16-3.04h8.23v40.35c0,4.37-1.43,7.91-4.27,10.63c-2.85,2.72-6.54,4.08-11.07,4.08c-1.87,0-3.62-0.2-5.27-0.6
		c-1.65-0.4-3.01-0.88-4.08-1.44c-1.07-0.56-1.99-1.12-2.76-1.68c-0.77-0.56-1.32-1.05-1.64-1.48L218.89,50.1z M227.6,13.98v11.67
		c0,1.76,0.56,3.17,1.68,4.23c1.12,1.07,2.5,1.6,4.16,1.6c1.65,0,3.04-0.53,4.16-1.6c1.12-1.06,1.68-2.48,1.68-4.23V13.98
		c0-1.76-0.56-3.17-1.68-4.23c-1.12-1.06-2.53-1.6-4.24-1.6c-1.6,0-2.96,0.53-4.08,1.6C228.16,10.81,227.6,12.23,227.6,13.98z"/>
	<path class="st0" d="M275.31,40.75l-0.32-3.84c-0.21,0.32-0.57,0.73-1.08,1.24c-0.51,0.51-1.63,1.17-3.36,2
		c-1.73,0.83-3.61,1.24-5.63,1.24c-3.36,0-6.22-1.16-8.59-3.48c-2.37-2.32-3.56-5.15-3.56-8.51c0-3.72,1.33-6.64,4-8.76
		c2.66-2.12,6.15-3.36,10.47-3.7l7.03-0.56v-2.8c0-1.6-0.45-2.89-1.36-3.88c-0.91-0.99-2.11-1.48-3.6-1.48
		c-1.44,0-2.65,0.41-3.64,1.24c-0.99,0.83-1.56,1.91-1.72,3.24h-8.87c0-3.52,1.34-6.51,4.04-8.99C261.82,1.24,265.17,0,269.16,0
		c4.53,0,8.04,1.29,10.55,3.88c2.5,2.58,3.76,5.85,3.76,9.79v27.09H275.31z M267.16,33.64c1.76,0,3.38-0.63,4.87-1.89
		c1.49-1.26,2.24-2.56,2.24-3.9v-4.58l-6.4,0.51c-1.81,0.16-3.22,0.7-4.23,1.6c-1.01,0.91-1.52,2.14-1.52,3.69
		c0,1.18,0.45,2.23,1.36,3.17C264.39,33.17,265.62,33.64,267.16,33.64z"/>
</g>
</svg>
