<?xml version="1.0" encoding="utf-8"?>
<!-- Generator: Adobe Illustrator 24.0.0, SVG Export Plug-In . SVG Version: 6.00 Build 0)  -->
<svg version="1.1" id="Capa_1" xmlns="http://www.w3.org/2000/svg" xmlns:xlink="http://www.w3.org/1999/xlink" x="0px" y="0px"
	 viewBox="0 0 283.5 55.9" style="enable-background:new 0 0 283.5 55.9;" xml:space="preserve">
<style type="text/css">
	.st0{fill:#F2F2F2;}
</style>
<g>
	<path class="st0" d="M22.5,40.8l-0.3-3.8c-0.2,0.3-0.6,0.7-1.1,1.2c-0.5,0.5-1.6,1.2-3.4,2c-1.7,0.8-3.6,1.2-5.6,1.2
		c-3.4,0-6.2-1.2-8.6-3.5C1.2,35.6,0,32.8,0,29.4c0-3.7,1.3-6.6,4-8.8c2.7-2.1,6.1-3.4,10.5-3.7l7-0.6v-2.8c0-1.6-0.5-2.9-1.4-3.9
		S18,8.2,16.5,8.2c-1.4,0-2.6,0.4-3.6,1.2s-1.6,1.9-1.7,3.2H2.3c0-3.5,1.3-6.5,4-9C9,1.2,12.4,0,16.4,0c4.5,0,8,1.3,10.6,3.9
		c2.5,2.6,3.8,5.8,3.8,9.8v27.1L22.5,40.8L22.5,40.8z M14.4,33.6c1.8,0,3.4-0.6,4.9-1.9c1.5-1.3,2.2-2.6,2.2-3.9v-4.6l-6.4,0.5
		c-1.8,0.2-3.2,0.7-4.2,1.6c-1,0.9-1.5,2.1-1.5,3.7c0,1.2,0.4,2.2,1.4,3.2C11.6,33.2,12.8,33.6,14.4,33.6z"/>
	<path class="st0" d="M36.5,50.1l6.3-5.8c0.2,0.3,0.4,0.6,0.8,0.9s1.2,0.8,2.5,1.4c1.3,0.6,2.7,0.9,4.2,0.9c1.8,0,3.4-0.5,4.6-1.6
		c1.3-1,1.9-2.5,1.9-4.3v-5.5c-0.2,0.3-0.4,0.6-0.8,1s-1.2,0.9-2.5,1.5s-2.8,1-4.4,1c-3.8,0-7-1.2-9.5-3.7c-2.6-2.5-3.8-5.8-3.8-9.9
		V13.7c0-4,1.3-7.3,4-9.8s5.8-3.8,9.5-3.8c1.7,0,3.2,0.3,4.5,0.9s2.4,1.2,3,1.8l0.8,1l0.1-3H66v40.3c0,4.4-1.4,7.9-4.3,10.6
		c-2.8,2.7-6.5,4.1-11.1,4.1c-1.9,0-3.6-0.2-5.3-0.6c-1.7-0.4-3-0.9-4.1-1.4c-1.1-0.6-2-1.1-2.8-1.7c-0.8-0.6-1.3-1-1.6-1.5
		L36.5,50.1z M45.2,14v11.7c0,1.8,0.6,3.2,1.7,4.2c1.1,1.1,2.5,1.6,4.2,1.6c1.7,0,3-0.5,4.2-1.6c1.1-1.1,1.7-2.5,1.7-4.2V14
		c0-1.8-0.6-3.2-1.7-4.2s-2.5-1.6-4.2-1.6c-1.6,0-3,0.5-4.1,1.6C45.7,10.8,45.2,12.2,45.2,14z"/>
	<path class="st0" d="M94.7,1.4L92,9.3c-1.1-0.6-2.5-0.9-4.2-0.9c-1.9,0-3.4,0.8-4.6,2.4c-1.2,1.6-1.8,3.9-1.8,6.9v23.1h-9.3v-40
		h8.7l0.2,4.5c0.1-0.2,0.2-0.3,0.3-0.6c0.2-0.2,0.5-0.6,1-1.2c0.5-0.6,1-1.1,1.6-1.6c0.6-0.5,1.3-0.9,2.2-1.2
		c0.9-0.4,1.8-0.6,2.8-0.6c1.1,0,2.1,0.1,3.1,0.3c1,0.2,1.7,0.4,2.1,0.6L94.7,1.4z"/>
	<path class="st0" d="M125.4,13.7v14.2c0,3.9-1.4,7.1-4.1,9.8c-2.7,2.6-6.3,3.9-10.8,3.9c-4.5,0-8.1-1.3-10.9-3.9
		c-2.8-2.6-4.2-5.9-4.2-9.8V13.7c0-3.9,1.4-7.1,4.2-9.8C102.4,1.3,106,0,110.5,0c4.4,0,8,1.3,10.8,3.9C124,6.5,125.4,9.8,125.4,13.7
		z M116.2,27.4V14.1c0-1.8-0.6-3.2-1.7-4.2c-1.1-1.1-2.5-1.6-4.2-1.6c-1.7,0-3,0.5-4.2,1.6s-1.7,2.5-1.7,4.2v13.3
		c0,1.8,0.6,3.2,1.7,4.2c1.1,1.1,2.5,1.6,4.2,1.6c1.6,0,3-0.5,4.1-1.6C115.6,30.6,116.2,29.2,116.2,27.4z"/>
	<path class="st0" d="M169.4,40.8V14.1c0-1.5-0.4-2.8-1.3-3.9s-1.9-1.6-3.2-1.6c-1.6,0-2.9,0.6-4,1.7c-1.1,1.1-1.6,2.5-1.6,4.2v26.3
		H150V14.1c0-1.5-0.4-2.8-1.3-3.9c-0.9-1.1-1.9-1.6-3.3-1.6c-1.5,0-2.8,0.6-3.9,1.8s-1.7,2.6-1.7,4.2v26.2h-9.2v-40h8.6l0.4,3.9
		c0.2-0.3,0.5-0.7,1-1.2c0.4-0.5,1.4-1.2,2.8-2c1.5-0.9,3-1.3,4.7-1.3c1.5,0,2.9,0.3,4.2,1s2.2,1.3,2.6,2l0.8,1
		c0.3-0.3,0.8-0.7,1.3-1.1s1.6-1,3.3-1.8c1.7-0.8,3.4-1.1,5.1-1.1c3.8,0,6.9,1.3,9.4,3.8s3.7,5.9,3.7,9.9v26.9L169.4,40.8
		L169.4,40.8z"/>
	<path class="st0" d="M204.2,29h9.3c-0.4,3.8-2.1,6.8-4.9,9.1c-2.8,2.3-6.2,3.4-10.1,3.4c-4.4,0-7.9-1.3-10.7-3.9
		c-2.8-2.6-4.2-5.9-4.2-9.8V13.7c0-3.8,1.4-7.1,4.2-9.7s6.4-4,10.8-4s7.9,1.3,10.7,3.9c2.7,2.6,4.1,5.8,4.1,9.6v10.3h-20.6v3.9
		c0,1.7,0.6,3.1,1.6,4.2c1.1,1.1,2.5,1.6,4.1,1.6c1.5,0,2.7-0.4,3.7-1.1c1-0.8,1.5-1.5,1.8-2.2L204.2,29z M192.7,13.7v2.6h11.6v-2.6
		c0-1.6-0.6-3-1.6-4c-1.1-1-2.5-1.5-4.1-1.5c-1.6,0-2.9,0.5-4.1,1.6C193.3,10.8,192.7,12.1,192.7,13.7z"/>
	<path class="st0" d="M218.9,50.1l6.3-5.8c0.2,0.3,0.4,0.6,0.8,0.9c0.4,0.3,1.2,0.8,2.5,1.4c1.3,0.6,2.7,0.9,4.2,0.9
		c1.8,0,3.4-0.5,4.6-1.6c1.3-1,1.9-2.5,1.9-4.3v-5.5c-0.2,0.3-0.4,0.6-0.8,1c-0.4,0.4-1.2,0.9-2.5,1.5s-2.8,1-4.4,1
		c-3.8,0-6.9-1.2-9.5-3.7s-3.8-5.8-3.8-9.9V13.7c0-4,1.3-7.3,4-9.8s5.8-3.8,9.6-3.8c1.6,0,3.2,0.3,4.6,0.9s2.4,1.2,3,1.8l0.8,1
		l0.2-3h8.2v40.3c0,4.4-1.4,7.9-4.3,10.6c-2.9,2.7-6.5,4.1-11.1,4.1c-1.9,0-3.6-0.2-5.3-0.6c-1.6-0.4-3-0.9-4.1-1.4
		c-1.1-0.6-2-1.1-2.8-1.7c-0.8-0.6-1.3-1-1.6-1.5L218.9,50.1z M227.6,14v11.7c0,1.8,0.6,3.2,1.7,4.2c1.1,1.1,2.5,1.6,4.2,1.6
		c1.6,0,3-0.5,4.2-1.6c1.1-1.1,1.7-2.5,1.7-4.2V14c0-1.8-0.6-3.2-1.7-4.2s-2.5-1.6-4.2-1.6c-1.6,0-3,0.5-4.1,1.6
		C228.2,10.8,227.6,12.2,227.6,14z"/>
	<path class="st0" d="M275.3,40.8l-0.3-3.8c-0.2,0.3-0.6,0.7-1.1,1.2c-0.5,0.5-1.6,1.2-3.4,2c-1.7,0.8-3.6,1.2-5.6,1.2
		c-3.4,0-6.2-1.2-8.6-3.5s-3.6-5.2-3.6-8.5c0-3.7,1.3-6.6,4-8.8c2.7-2.1,6.1-3.4,10.5-3.7l7-0.6v-2.8c0-1.6-0.5-2.9-1.4-3.9
		c-0.9-1-2.1-1.5-3.6-1.5c-1.4,0-2.6,0.4-3.6,1.2c-1,0.8-1.6,1.9-1.7,3.2h-8.9c0-3.5,1.3-6.5,4-9c2.7-2.5,6-3.7,10-3.7
		c4.5,0,8,1.3,10.5,3.9c2.5,2.6,3.8,5.8,3.8,9.8v27.1L275.3,40.8L275.3,40.8z M267.2,33.6c1.8,0,3.4-0.6,4.9-1.9
		c1.5-1.3,2.2-2.6,2.2-3.9v-4.6l-6.4,0.5c-1.8,0.2-3.2,0.7-4.2,1.6c-1,0.9-1.5,2.1-1.5,3.7c0,1.2,0.5,2.2,1.4,3.2
		C264.4,33.2,265.6,33.6,267.2,33.6z"/>
</g>
</svg>
